<?xml version="1.0" encoding="utf-8" standalone="no"?>
<!DOCTYPE svg PUBLIC "-//W3C//DTD SVG 1.1//EN"
  "http://www.w3.org/Graphics/SVG/1.1/DTD/svg11.dtd">
<svg xmlns:xlink="http://www.w3.org/1999/xlink" width="460.8pt" height="345.6pt" viewBox="0 0 460.8 345.6" xmlns="http://www.w3.org/2000/svg" version="1.1">
 <metadata>
  <rdf:RDF xmlns:dc="http://purl.org/dc/elements/1.1/" xmlns:cc="http://creativecommons.org/ns#" xmlns:rdf="http://www.w3.org/1999/02/22-rdf-syntax-ns#">
   <cc:Work>
    <dc:type rdf:resource="http://purl.org/dc/dcmitype/StillImage"/>
    <dc:date>2024-10-27T17:19:54.587115</dc:date>
    <dc:format>image/svg+xml</dc:format>
    <dc:creator>
     <cc:Agent>
      <dc:title>Matplotlib v3.5.3, https://matplotlib.org/</dc:title>
     </cc:Agent>
    </dc:creator>
   </cc:Work>
  </rdf:RDF>
 </metadata>
 <defs>
  <style type="text/css">*{stroke-linejoin: round; stroke-linecap: butt}</style>
 </defs>
 <g id="figure_1">
  <g id="patch_1">
   <path d="M 0 345.6 
L 460.8 345.6 
L 460.8 0 
L 0 0 
z
" style="fill: #ffffff"/>
  </g>
  <g id="axes_1">
   <g id="patch_2">
    <path d="M 54.92 302.92 
L 450 302.92 
L 450 27.6 
L 54.92 27.6 
z
" style="fill: #ffffff"/>
   </g>
   <g id="matplotlib.axis_1">
    <g id="xtick_1">
     <g id="line2d_1">
      <path d="M 72.878182 302.92 
L 72.878182 27.6 
" clip-path="url(#p38f3d4ed9c)" style="fill: none; stroke: #b0b0b0; stroke-width: 0.8; stroke-linecap: square"/>
     </g>
     <g id="line2d_2">
      <defs>
       <path id="mb6c1bd3297" d="M 0 0 
L 0 3.5 
" style="stroke: #000000; stroke-width: 0.8"/>
      </defs>
      <g>
       <use xlink:href="#mb6c1bd3297" x="72.878182" y="302.92" style="stroke: #000000; stroke-width: 0.8"/>
      </g>
     </g>
     <g id="text_1">
      <!-- 0 -->
      <g transform="translate(69.696932 317.518437)scale(0.1 -0.1)">
       <defs>
        <path id="DejaVuSans-30" d="M 2034 4250 
Q 1547 4250 1301 3770 
Q 1056 3291 1056 2328 
Q 1056 1369 1301 889 
Q 1547 409 2034 409 
Q 2525 409 2770 889 
Q 3016 1369 3016 2328 
Q 3016 3291 2770 3770 
Q 2525 4250 2034 4250 
z
M 2034 4750 
Q 2819 4750 3233 4129 
Q 3647 3509 3647 2328 
Q 3647 1150 3233 529 
Q 2819 -91 2034 -91 
Q 1250 -91 836 529 
Q 422 1150 422 2328 
Q 422 3509 836 4129 
Q 1250 4750 2034 4750 
z
" transform="scale(0.015625)"/>
       </defs>
       <use xlink:href="#DejaVuSans-30"/>
      </g>
     </g>
    </g>
    <g id="xtick_2">
     <g id="line2d_3">
      <path d="M 144.854862 302.92 
L 144.854862 27.6 
" clip-path="url(#p38f3d4ed9c)" style="fill: none; stroke: #b0b0b0; stroke-width: 0.8; stroke-linecap: square"/>
     </g>
     <g id="line2d_4">
      <g>
       <use xlink:href="#mb6c1bd3297" x="144.854862" y="302.92" style="stroke: #000000; stroke-width: 0.8"/>
      </g>
     </g>
     <g id="text_2">
      <!-- 100 -->
      <g transform="translate(135.311112 317.518437)scale(0.1 -0.1)">
       <defs>
        <path id="DejaVuSans-31" d="M 794 531 
L 1825 531 
L 1825 4091 
L 703 3866 
L 703 4441 
L 1819 4666 
L 2450 4666 
L 2450 531 
L 3481 531 
L 3481 0 
L 794 0 
L 794 531 
z
" transform="scale(0.015625)"/>
       </defs>
       <use xlink:href="#DejaVuSans-31"/>
       <use xlink:href="#DejaVuSans-30" x="63.623047"/>
       <use xlink:href="#DejaVuSans-30" x="127.246094"/>
      </g>
     </g>
    </g>
    <g id="xtick_3">
     <g id="line2d_5">
      <path d="M 216.831543 302.92 
L 216.831543 27.6 
" clip-path="url(#p38f3d4ed9c)" style="fill: none; stroke: #b0b0b0; stroke-width: 0.8; stroke-linecap: square"/>
     </g>
     <g id="line2d_6">
      <g>
       <use xlink:href="#mb6c1bd3297" x="216.831543" y="302.92" style="stroke: #000000; stroke-width: 0.8"/>
      </g>
     </g>
     <g id="text_3">
      <!-- 200 -->
      <g transform="translate(207.287793 317.518437)scale(0.1 -0.1)">
       <defs>
        <path id="DejaVuSans-32" d="M 1228 531 
L 3431 531 
L 3431 0 
L 469 0 
L 469 531 
Q 828 903 1448 1529 
Q 2069 2156 2228 2338 
Q 2531 2678 2651 2914 
Q 2772 3150 2772 3378 
Q 2772 3750 2511 3984 
Q 2250 4219 1831 4219 
Q 1534 4219 1204 4116 
Q 875 4013 500 3803 
L 500 4441 
Q 881 4594 1212 4672 
Q 1544 4750 1819 4750 
Q 2544 4750 2975 4387 
Q 3406 4025 3406 3419 
Q 3406 3131 3298 2873 
Q 3191 2616 2906 2266 
Q 2828 2175 2409 1742 
Q 1991 1309 1228 531 
z
" transform="scale(0.015625)"/>
       </defs>
       <use xlink:href="#DejaVuSans-32"/>
       <use xlink:href="#DejaVuSans-30" x="63.623047"/>
       <use xlink:href="#DejaVuSans-30" x="127.246094"/>
      </g>
     </g>
    </g>
    <g id="xtick_4">
     <g id="line2d_7">
      <path d="M 288.808224 302.92 
L 288.808224 27.6 
" clip-path="url(#p38f3d4ed9c)" style="fill: none; stroke: #b0b0b0; stroke-width: 0.8; stroke-linecap: square"/>
     </g>
     <g id="line2d_8">
      <g>
       <use xlink:href="#mb6c1bd3297" x="288.808224" y="302.92" style="stroke: #000000; stroke-width: 0.8"/>
      </g>
     </g>
     <g id="text_4">
      <!-- 300 -->
      <g transform="translate(279.264474 317.518437)scale(0.1 -0.1)">
       <defs>
        <path id="DejaVuSans-33" d="M 2597 2516 
Q 3050 2419 3304 2112 
Q 3559 1806 3559 1356 
Q 3559 666 3084 287 
Q 2609 -91 1734 -91 
Q 1441 -91 1130 -33 
Q 819 25 488 141 
L 488 750 
Q 750 597 1062 519 
Q 1375 441 1716 441 
Q 2309 441 2620 675 
Q 2931 909 2931 1356 
Q 2931 1769 2642 2001 
Q 2353 2234 1838 2234 
L 1294 2234 
L 1294 2753 
L 1863 2753 
Q 2328 2753 2575 2939 
Q 2822 3125 2822 3475 
Q 2822 3834 2567 4026 
Q 2313 4219 1838 4219 
Q 1578 4219 1281 4162 
Q 984 4106 628 3988 
L 628 4550 
Q 988 4650 1302 4700 
Q 1616 4750 1894 4750 
Q 2613 4750 3031 4423 
Q 3450 4097 3450 3541 
Q 3450 3153 3228 2886 
Q 3006 2619 2597 2516 
z
" transform="scale(0.015625)"/>
       </defs>
       <use xlink:href="#DejaVuSans-33"/>
       <use xlink:href="#DejaVuSans-30" x="63.623047"/>
       <use xlink:href="#DejaVuSans-30" x="127.246094"/>
      </g>
     </g>
    </g>
    <g id="xtick_5">
     <g id="line2d_9">
      <path d="M 360.784904 302.92 
L 360.784904 27.6 
" clip-path="url(#p38f3d4ed9c)" style="fill: none; stroke: #b0b0b0; stroke-width: 0.8; stroke-linecap: square"/>
     </g>
     <g id="line2d_10">
      <g>
       <use xlink:href="#mb6c1bd3297" x="360.784904" y="302.92" style="stroke: #000000; stroke-width: 0.8"/>
      </g>
     </g>
     <g id="text_5">
      <!-- 400 -->
      <g transform="translate(351.241154 317.518437)scale(0.1 -0.1)">
       <defs>
        <path id="DejaVuSans-34" d="M 2419 4116 
L 825 1625 
L 2419 1625 
L 2419 4116 
z
M 2253 4666 
L 3047 4666 
L 3047 1625 
L 3713 1625 
L 3713 1100 
L 3047 1100 
L 3047 0 
L 2419 0 
L 2419 1100 
L 313 1100 
L 313 1709 
L 2253 4666 
z
" transform="scale(0.015625)"/>
       </defs>
       <use xlink:href="#DejaVuSans-34"/>
       <use xlink:href="#DejaVuSans-30" x="63.623047"/>
       <use xlink:href="#DejaVuSans-30" x="127.246094"/>
      </g>
     </g>
    </g>
    <g id="xtick_6">
     <g id="line2d_11">
      <path d="M 432.761585 302.92 
L 432.761585 27.6 
" clip-path="url(#p38f3d4ed9c)" style="fill: none; stroke: #b0b0b0; stroke-width: 0.8; stroke-linecap: square"/>
     </g>
     <g id="line2d_12">
      <g>
       <use xlink:href="#mb6c1bd3297" x="432.761585" y="302.92" style="stroke: #000000; stroke-width: 0.8"/>
      </g>
     </g>
     <g id="text_6">
      <!-- 500 -->
      <g transform="translate(423.217835 317.518437)scale(0.1 -0.1)">
       <defs>
        <path id="DejaVuSans-35" d="M 691 4666 
L 3169 4666 
L 3169 4134 
L 1269 4134 
L 1269 2991 
Q 1406 3038 1543 3061 
Q 1681 3084 1819 3084 
Q 2600 3084 3056 2656 
Q 3513 2228 3513 1497 
Q 3513 744 3044 326 
Q 2575 -91 1722 -91 
Q 1428 -91 1123 -41 
Q 819 9 494 109 
L 494 744 
Q 775 591 1075 516 
Q 1375 441 1709 441 
Q 2250 441 2565 725 
Q 2881 1009 2881 1497 
Q 2881 1984 2565 2268 
Q 2250 2553 1709 2553 
Q 1456 2553 1204 2497 
Q 953 2441 691 2322 
L 691 4666 
z
" transform="scale(0.015625)"/>
       </defs>
       <use xlink:href="#DejaVuSans-35"/>
       <use xlink:href="#DejaVuSans-30" x="63.623047"/>
       <use xlink:href="#DejaVuSans-30" x="127.246094"/>
      </g>
     </g>
    </g>
    <g id="text_7">
     <!-- Epochs -->
     <g transform="translate(230.96125 332.71625)scale(0.12 -0.12)">
      <defs>
       <path id="DejaVuSans-45" d="M 628 4666 
L 3578 4666 
L 3578 4134 
L 1259 4134 
L 1259 2753 
L 3481 2753 
L 3481 2222 
L 1259 2222 
L 1259 531 
L 3634 531 
L 3634 0 
L 628 0 
L 628 4666 
z
" transform="scale(0.015625)"/>
       <path id="DejaVuSans-70" d="M 1159 525 
L 1159 -1331 
L 581 -1331 
L 581 3500 
L 1159 3500 
L 1159 2969 
Q 1341 3281 1617 3432 
Q 1894 3584 2278 3584 
Q 2916 3584 3314 3078 
Q 3713 2572 3713 1747 
Q 3713 922 3314 415 
Q 2916 -91 2278 -91 
Q 1894 -91 1617 61 
Q 1341 213 1159 525 
z
M 3116 1747 
Q 3116 2381 2855 2742 
Q 2594 3103 2138 3103 
Q 1681 3103 1420 2742 
Q 1159 2381 1159 1747 
Q 1159 1113 1420 752 
Q 1681 391 2138 391 
Q 2594 391 2855 752 
Q 3116 1113 3116 1747 
z
" transform="scale(0.015625)"/>
       <path id="DejaVuSans-6f" d="M 1959 3097 
Q 1497 3097 1228 2736 
Q 959 2375 959 1747 
Q 959 1119 1226 758 
Q 1494 397 1959 397 
Q 2419 397 2687 759 
Q 2956 1122 2956 1747 
Q 2956 2369 2687 2733 
Q 2419 3097 1959 3097 
z
M 1959 3584 
Q 2709 3584 3137 3096 
Q 3566 2609 3566 1747 
Q 3566 888 3137 398 
Q 2709 -91 1959 -91 
Q 1206 -91 779 398 
Q 353 888 353 1747 
Q 353 2609 779 3096 
Q 1206 3584 1959 3584 
z
" transform="scale(0.015625)"/>
       <path id="DejaVuSans-63" d="M 3122 3366 
L 3122 2828 
Q 2878 2963 2633 3030 
Q 2388 3097 2138 3097 
Q 1578 3097 1268 2742 
Q 959 2388 959 1747 
Q 959 1106 1268 751 
Q 1578 397 2138 397 
Q 2388 397 2633 464 
Q 2878 531 3122 666 
L 3122 134 
Q 2881 22 2623 -34 
Q 2366 -91 2075 -91 
Q 1284 -91 818 406 
Q 353 903 353 1747 
Q 353 2603 823 3093 
Q 1294 3584 2113 3584 
Q 2378 3584 2631 3529 
Q 2884 3475 3122 3366 
z
" transform="scale(0.015625)"/>
       <path id="DejaVuSans-68" d="M 3513 2113 
L 3513 0 
L 2938 0 
L 2938 2094 
Q 2938 2591 2744 2837 
Q 2550 3084 2163 3084 
Q 1697 3084 1428 2787 
Q 1159 2491 1159 1978 
L 1159 0 
L 581 0 
L 581 4863 
L 1159 4863 
L 1159 2956 
Q 1366 3272 1645 3428 
Q 1925 3584 2291 3584 
Q 2894 3584 3203 3211 
Q 3513 2838 3513 2113 
z
" transform="scale(0.015625)"/>
       <path id="DejaVuSans-73" d="M 2834 3397 
L 2834 2853 
Q 2591 2978 2328 3040 
Q 2066 3103 1784 3103 
Q 1356 3103 1142 2972 
Q 928 2841 928 2578 
Q 928 2378 1081 2264 
Q 1234 2150 1697 2047 
L 1894 2003 
Q 2506 1872 2764 1633 
Q 3022 1394 3022 966 
Q 3022 478 2636 193 
Q 2250 -91 1575 -91 
Q 1294 -91 989 -36 
Q 684 19 347 128 
L 347 722 
Q 666 556 975 473 
Q 1284 391 1588 391 
Q 1994 391 2212 530 
Q 2431 669 2431 922 
Q 2431 1156 2273 1281 
Q 2116 1406 1581 1522 
L 1381 1569 
Q 847 1681 609 1914 
Q 372 2147 372 2553 
Q 372 3047 722 3315 
Q 1072 3584 1716 3584 
Q 2034 3584 2315 3537 
Q 2597 3491 2834 3397 
z
" transform="scale(0.015625)"/>
      </defs>
      <use xlink:href="#DejaVuSans-45"/>
      <use xlink:href="#DejaVuSans-70" x="63.183594"/>
      <use xlink:href="#DejaVuSans-6f" x="126.660156"/>
      <use xlink:href="#DejaVuSans-63" x="187.841797"/>
      <use xlink:href="#DejaVuSans-68" x="242.822266"/>
      <use xlink:href="#DejaVuSans-73" x="306.201172"/>
     </g>
    </g>
   </g>
   <g id="matplotlib.axis_2">
    <g id="ytick_1">
     <g id="line2d_13">
      <path d="M 54.92 293.066434 
L 450 293.066434 
" clip-path="url(#p38f3d4ed9c)" style="fill: none; stroke: #b0b0b0; stroke-width: 0.8; stroke-linecap: square"/>
     </g>
     <g id="line2d_14">
      <defs>
       <path id="m2524090ff3" d="M 0 0 
L -3.5 0 
" style="stroke: #000000; stroke-width: 0.8"/>
      </defs>
      <g>
       <use xlink:href="#m2524090ff3" x="54.92" y="293.066434" style="stroke: #000000; stroke-width: 0.8"/>
      </g>
     </g>
     <g id="text_8">
      <!-- 0.50 -->
      <g transform="translate(25.654375 296.865652)scale(0.1 -0.1)">
       <defs>
        <path id="DejaVuSans-2e" d="M 684 794 
L 1344 794 
L 1344 0 
L 684 0 
L 684 794 
z
" transform="scale(0.015625)"/>
       </defs>
       <use xlink:href="#DejaVuSans-30"/>
       <use xlink:href="#DejaVuSans-2e" x="63.623047"/>
       <use xlink:href="#DejaVuSans-35" x="95.410156"/>
       <use xlink:href="#DejaVuSans-30" x="159.033203"/>
      </g>
     </g>
    </g>
    <g id="ytick_2">
     <g id="line2d_15">
      <path d="M 54.92 239.314654 
L 450 239.314654 
" clip-path="url(#p38f3d4ed9c)" style="fill: none; stroke: #b0b0b0; stroke-width: 0.8; stroke-linecap: square"/>
     </g>
     <g id="line2d_16">
      <g>
       <use xlink:href="#m2524090ff3" x="54.92" y="239.314654" style="stroke: #000000; stroke-width: 0.8"/>
      </g>
     </g>
     <g id="text_9">
      <!-- 0.55 -->
      <g transform="translate(25.654375 243.113873)scale(0.1 -0.1)">
       <use xlink:href="#DejaVuSans-30"/>
       <use xlink:href="#DejaVuSans-2e" x="63.623047"/>
       <use xlink:href="#DejaVuSans-35" x="95.410156"/>
       <use xlink:href="#DejaVuSans-35" x="159.033203"/>
      </g>
     </g>
    </g>
    <g id="ytick_3">
     <g id="line2d_17">
      <path d="M 54.92 185.562874 
L 450 185.562874 
" clip-path="url(#p38f3d4ed9c)" style="fill: none; stroke: #b0b0b0; stroke-width: 0.8; stroke-linecap: square"/>
     </g>
     <g id="line2d_18">
      <g>
       <use xlink:href="#m2524090ff3" x="54.92" y="185.562874" style="stroke: #000000; stroke-width: 0.8"/>
      </g>
     </g>
     <g id="text_10">
      <!-- 0.60 -->
      <g transform="translate(25.654375 189.362093)scale(0.1 -0.1)">
       <defs>
        <path id="DejaVuSans-36" d="M 2113 2584 
Q 1688 2584 1439 2293 
Q 1191 2003 1191 1497 
Q 1191 994 1439 701 
Q 1688 409 2113 409 
Q 2538 409 2786 701 
Q 3034 994 3034 1497 
Q 3034 2003 2786 2293 
Q 2538 2584 2113 2584 
z
M 3366 4563 
L 3366 3988 
Q 3128 4100 2886 4159 
Q 2644 4219 2406 4219 
Q 1781 4219 1451 3797 
Q 1122 3375 1075 2522 
Q 1259 2794 1537 2939 
Q 1816 3084 2150 3084 
Q 2853 3084 3261 2657 
Q 3669 2231 3669 1497 
Q 3669 778 3244 343 
Q 2819 -91 2113 -91 
Q 1303 -91 875 529 
Q 447 1150 447 2328 
Q 447 3434 972 4092 
Q 1497 4750 2381 4750 
Q 2619 4750 2861 4703 
Q 3103 4656 3366 4563 
z
" transform="scale(0.015625)"/>
       </defs>
       <use xlink:href="#DejaVuSans-30"/>
       <use xlink:href="#DejaVuSans-2e" x="63.623047"/>
       <use xlink:href="#DejaVuSans-36" x="95.410156"/>
       <use xlink:href="#DejaVuSans-30" x="159.033203"/>
      </g>
     </g>
    </g>
    <g id="ytick_4">
     <g id="line2d_19">
      <path d="M 54.92 131.811094 
L 450 131.811094 
" clip-path="url(#p38f3d4ed9c)" style="fill: none; stroke: #b0b0b0; stroke-width: 0.8; stroke-linecap: square"/>
     </g>
     <g id="line2d_20">
      <g>
       <use xlink:href="#m2524090ff3" x="54.92" y="131.811094" style="stroke: #000000; stroke-width: 0.8"/>
      </g>
     </g>
     <g id="text_11">
      <!-- 0.65 -->
      <g transform="translate(25.654375 135.610313)scale(0.1 -0.1)">
       <use xlink:href="#DejaVuSans-30"/>
       <use xlink:href="#DejaVuSans-2e" x="63.623047"/>
       <use xlink:href="#DejaVuSans-36" x="95.410156"/>
       <use xlink:href="#DejaVuSans-35" x="159.033203"/>
      </g>
     </g>
    </g>
    <g id="ytick_5">
     <g id="line2d_21">
      <path d="M 54.92 78.059315 
L 450 78.059315 
" clip-path="url(#p38f3d4ed9c)" style="fill: none; stroke: #b0b0b0; stroke-width: 0.8; stroke-linecap: square"/>
     </g>
     <g id="line2d_22">
      <g>
       <use xlink:href="#m2524090ff3" x="54.92" y="78.059315" style="stroke: #000000; stroke-width: 0.8"/>
      </g>
     </g>
     <g id="text_12">
      <!-- 0.70 -->
      <g transform="translate(25.654375 81.858533)scale(0.1 -0.1)">
       <defs>
        <path id="DejaVuSans-37" d="M 525 4666 
L 3525 4666 
L 3525 4397 
L 1831 0 
L 1172 0 
L 2766 4134 
L 525 4134 
L 525 4666 
z
" transform="scale(0.015625)"/>
       </defs>
       <use xlink:href="#DejaVuSans-30"/>
       <use xlink:href="#DejaVuSans-2e" x="63.623047"/>
       <use xlink:href="#DejaVuSans-37" x="95.410156"/>
       <use xlink:href="#DejaVuSans-30" x="159.033203"/>
      </g>
     </g>
    </g>
    <g id="text_13">
     <!-- AUROC -->
     <g transform="translate(19.15875 186.8375)rotate(-90)scale(0.12 -0.12)">
      <defs>
       <path id="DejaVuSans-41" d="M 2188 4044 
L 1331 1722 
L 3047 1722 
L 2188 4044 
z
M 1831 4666 
L 2547 4666 
L 4325 0 
L 3669 0 
L 3244 1197 
L 1141 1197 
L 716 0 
L 50 0 
L 1831 4666 
z
" transform="scale(0.015625)"/>
       <path id="DejaVuSans-55" d="M 556 4666 
L 1191 4666 
L 1191 1831 
Q 1191 1081 1462 751 
Q 1734 422 2344 422 
Q 2950 422 3222 751 
Q 3494 1081 3494 1831 
L 3494 4666 
L 4128 4666 
L 4128 1753 
Q 4128 841 3676 375 
Q 3225 -91 2344 -91 
Q 1459 -91 1007 375 
Q 556 841 556 1753 
L 556 4666 
z
" transform="scale(0.015625)"/>
       <path id="DejaVuSans-52" d="M 2841 2188 
Q 3044 2119 3236 1894 
Q 3428 1669 3622 1275 
L 4263 0 
L 3584 0 
L 2988 1197 
Q 2756 1666 2539 1819 
Q 2322 1972 1947 1972 
L 1259 1972 
L 1259 0 
L 628 0 
L 628 4666 
L 2053 4666 
Q 2853 4666 3247 4331 
Q 3641 3997 3641 3322 
Q 3641 2881 3436 2590 
Q 3231 2300 2841 2188 
z
M 1259 4147 
L 1259 2491 
L 2053 2491 
Q 2509 2491 2742 2702 
Q 2975 2913 2975 3322 
Q 2975 3731 2742 3939 
Q 2509 4147 2053 4147 
L 1259 4147 
z
" transform="scale(0.015625)"/>
       <path id="DejaVuSans-4f" d="M 2522 4238 
Q 1834 4238 1429 3725 
Q 1025 3213 1025 2328 
Q 1025 1447 1429 934 
Q 1834 422 2522 422 
Q 3209 422 3611 934 
Q 4013 1447 4013 2328 
Q 4013 3213 3611 3725 
Q 3209 4238 2522 4238 
z
M 2522 4750 
Q 3503 4750 4090 4092 
Q 4678 3434 4678 2328 
Q 4678 1225 4090 567 
Q 3503 -91 2522 -91 
Q 1538 -91 948 565 
Q 359 1222 359 2328 
Q 359 3434 948 4092 
Q 1538 4750 2522 4750 
z
" transform="scale(0.015625)"/>
       <path id="DejaVuSans-43" d="M 4122 4306 
L 4122 3641 
Q 3803 3938 3442 4084 
Q 3081 4231 2675 4231 
Q 1875 4231 1450 3742 
Q 1025 3253 1025 2328 
Q 1025 1406 1450 917 
Q 1875 428 2675 428 
Q 3081 428 3442 575 
Q 3803 722 4122 1019 
L 4122 359 
Q 3791 134 3420 21 
Q 3050 -91 2638 -91 
Q 1578 -91 968 557 
Q 359 1206 359 2328 
Q 359 3453 968 4101 
Q 1578 4750 2638 4750 
Q 3056 4750 3426 4639 
Q 3797 4528 4122 4306 
z
" transform="scale(0.015625)"/>
      </defs>
      <use xlink:href="#DejaVuSans-41"/>
      <use xlink:href="#DejaVuSans-55" x="68.408203"/>
      <use xlink:href="#DejaVuSans-52" x="141.601562"/>
      <use xlink:href="#DejaVuSans-4f" x="211.083984"/>
      <use xlink:href="#DejaVuSans-43" x="289.794922"/>
     </g>
    </g>
   </g>
   <g id="line2d_23">
    <path d="M 72.878182 80.797078 
L 73.597949 79.076047 
L 74.317715 77.778654 
L 75.037482 77.593312 
L 75.757249 77.699222 
L 76.477016 78.043428 
L 77.196783 78.599454 
L 77.916549 78.758318 
L 78.636316 66.909679 
L 79.356083 45.793949 
L 80.07585 52.21472 
L 80.795617 53.154667 
L 81.515383 87.826829 
L 82.23515 110.610636 
L 82.954917 121.956204 
L 83.674684 128.085723 
L 84.394451 282.422517 
L 85.114218 290.405455 
L 199.55714 290.405455 
L 200.276907 285.083496 
L 200.996673 274.439579 
L 201.71644 250.490767 
L 202.436207 157.356495 
L 203.155974 130.746703 
L 203.875741 130.746703 
L 204.595507 128.085723 
L 219.71061 128.085723 
L 220.430377 125.424744 
L 221.150144 121.956204 
L 221.869911 116.064982 
L 223.309444 110.743023 
L 228.347812 110.67683 
L 229.067579 110.87541 
L 230.507112 110.809217 
L 238.424547 110.729784 
L 239.144314 110.98132 
L 239.864081 110.835694 
L 241.303615 89.216893 
L 242.023381 90.911447 
L 242.743148 88.316661 
L 247.061749 88.3299 
L 247.781516 88.051887 
L 248.501283 88.131319 
L 249.221049 88.422571 
L 249.940816 88.276945 
L 250.660583 88.343139 
L 251.38035 88.051887 
L 252.100117 88.091603 
L 252.819883 88.409332 
L 254.259417 87.959216 
L 254.979184 85.98665 
L 255.698951 72.814141 
L 256.418717 70.444413 
L 257.138484 67.531898 
L 257.858251 67.796672 
L 258.578018 67.452466 
L 259.297785 67.770195 
L 260.737318 67.359795 
L 261.457085 64.96359 
L 262.176852 64.923874 
L 262.896619 64.725293 
L 263.616385 65.082738 
L 265.055919 64.937113 
L 265.775686 64.870919 
L 266.495453 62.249656 
L 267.21522 62.487953 
L 267.934986 53.856319 
L 268.654753 53.750409 
L 269.37452 53.988706 
L 271.53382 53.922512 
L 272.253587 53.631261 
L 272.973354 53.922512 
L 274.412888 53.790125 
L 275.132654 54.015183 
L 275.852421 53.909273 
L 276.572188 53.962228 
L 277.291955 53.353248 
L 278.011722 56.080421 
L 279.451255 56.239285 
L 280.171022 57.444007 
L 280.890789 57.444007 
L 281.610556 57.589633 
L 282.330322 57.483723 
L 283.769856 57.483723 
L 284.489623 54.915415 
L 285.20939 54.015183 
L 285.929156 54.240241 
L 286.648923 51.830797 
L 288.808224 51.777842 
L 289.527991 51.830797 
L 290.247757 49.500786 
L 291.687291 49.474308 
L 292.407058 52.029378 
L 293.126825 53.406203 
L 293.846591 53.803364 
L 294.566358 50.228914 
L 295.286125 51.751365 
L 296.005892 51.579262 
L 297.445425 51.777842 
L 298.165192 51.605739 
L 299.604726 46.932477 
L 300.324493 53.551828 
L 301.044259 54.571209 
L 301.764026 56.371672 
L 302.483793 56.265762 
L 303.20356 55.47144 
L 303.923327 55.921556 
L 304.643093 55.722976 
L 305.36286 55.709737 
L 306.082627 56.18633 
L 306.802394 52.916371 
L 307.522161 51.129146 
L 308.241927 48.719702 
L 308.961694 48.653509 
L 309.681461 47.236967 
L 310.401228 47.581174 
L 311.120995 47.766515 
L 311.840762 46.667703 
L 312.560528 47.064864 
L 313.280295 47.117819 
L 314.000062 44.814285 
L 314.719829 47.051626 
L 315.439596 46.535316 
L 316.159362 46.38969 
L 317.598896 48.719702 
L 318.318663 46.455884 
L 319.03843 46.336736 
L 319.758196 46.667703 
L 320.477963 44.536272 
L 321.19773 44.470079 
L 321.917497 44.787807 
L 322.637264 42.590183 
L 323.35703 42.245977 
L 324.076797 42.404841 
L 324.796564 42.696092 
L 325.516331 40.922106 
L 326.236098 40.9883 
L 326.955864 40.802958 
L 327.675631 40.750003 
L 328.395398 40.9883 
L 329.834932 40.432274 
L 330.554698 40.922106 
L 331.274465 40.842674 
L 331.994232 40.114545 
L 332.713999 40.710287 
L 333.433766 41.59728 
L 334.153533 43.993485 
L 334.873299 43.185924 
L 335.593066 43.238879 
L 336.312833 43.490415 
L 337.0326 43.596324 
L 337.752367 41.438416 
L 338.472133 41.59728 
L 339.1919 41.332506 
L 339.911667 41.319267 
L 341.351201 41.610519 
L 342.070967 41.504609 
L 342.790734 43.305073 
L 343.510501 43.397744 
L 345.669801 43.106492 
L 346.389568 43.238879 
L 347.109335 41.279551 
L 347.829102 41.239835 
L 348.548869 40.27341 
L 349.268635 41.385461 
L 349.988402 41.385461 
L 351.427936 40.869151 
L 352.867469 40.975061 
L 353.587236 40.842674 
L 355.02677 41.054493 
L 355.746537 41.464893 
L 357.905837 41.266313 
L 358.625604 41.319267 
L 359.345371 41.531087 
L 360.065138 41.425177 
L 361.504671 41.491371 
L 362.944205 41.478132 
L 365.103505 41.054493 
L 365.823272 41.226596 
L 367.262806 41.253074 
L 367.982572 41.438416 
L 368.702339 41.358983 
L 369.422106 41.425177 
L 370.141873 41.332506 
L 371.581406 41.967964 
L 372.301173 41.650235 
L 373.02094 41.875293 
L 373.740707 41.782622 
L 374.460474 41.888532 
L 375.18024 41.848815 
L 376.619774 41.954725 
L 377.339541 41.928248 
L 378.779075 42.047396 
L 383.817442 41.954725 
L 384.537209 42.179783 
L 385.256976 42.100351 
L 386.696509 42.193022 
L 387.416276 42.047396 
L 391.734877 42.034157 
L 392.454644 42.219499 
L 393.174411 41.954725 
L 393.894177 41.862054 
L 395.333711 42.193022 
L 396.053478 42.140067 
L 397.493011 42.20626 
L 401.811612 42.232738 
L 403.251146 42.166544 
L 403.970913 41.915009 
L 405.410446 42.073873 
L 408.289514 41.888532 
L 409.729047 41.967964 
L 410.448814 42.166544 
L 411.168581 42.087112 
L 413.327881 42.232738 
L 417.646482 42.219499 
L 418.366249 44.059679 
L 419.805782 44.297975 
L 420.525549 46.098439 
L 421.245316 46.283781 
L 421.965083 46.257303 
L 422.68485 46.071962 
L 423.404617 46.177871 
L 427.003451 46.019007 
L 427.723217 46.111678 
L 428.442984 45.966052 
L 429.882518 46.38969 
L 430.602285 46.283781 
L 431.322051 46.548555 
L 432.041818 46.336736 
L 432.041818 46.336736 
" clip-path="url(#p38f3d4ed9c)" style="fill: none; stroke: #8491b4; stroke-width: 2; stroke-linecap: square"/>
   </g>
   <g id="line2d_24">
    <path d="M 72.878182 80.797078 
L 73.597949 79.076047 
L 74.317715 77.778654 
L 75.037482 77.593312 
L 75.757249 77.699222 
L 76.477016 78.069905 
L 77.196783 78.599454 
L 77.916549 78.798034 
L 78.636316 66.883202 
L 79.356083 45.714517 
L 80.07585 52.069094 
L 80.795617 53.167906 
L 81.515383 87.853307 
L 82.23515 110.57092 
L 82.954917 121.956204 
L 83.674684 128.085723 
L 84.394451 285.083496 
L 85.114218 290.405455 
L 210.353642 290.405455 
L 211.073409 287.744475 
L 211.793175 277.100559 
L 212.512942 271.7786 
L 213.232709 258.473704 
L 213.952476 242.507829 
L 214.672243 197.271183 
L 215.392009 128.085723 
L 233.38618 128.085723 
L 234.105946 125.424744 
L 234.825713 125.424744 
L 235.54548 124.617183 
L 236.265247 121.148643 
L 236.985014 113.404002 
L 237.70478 110.743023 
L 247.061749 110.743023 
L 247.781516 110.87541 
L 248.501283 110.888649 
L 249.221049 110.67683 
L 250.660583 110.782739 
L 251.38035 110.637114 
L 253.53965 110.848933 
L 255.698951 110.756262 
L 257.138484 105.540213 
L 257.858251 105.646123 
L 258.578018 97.901482 
L 259.297785 84.795166 
L 260.017551 88.3299 
L 263.616385 88.276945 
L 264.336152 88.210752 
L 265.055919 88.316661 
L 265.775686 88.091603 
L 266.495453 88.051887 
L 267.21522 87.681203 
L 267.934986 88.22399 
L 269.37452 88.171035 
L 270.814054 87.959216 
L 271.53382 88.276945 
L 272.973354 88.051887 
L 273.693121 85.324714 
L 274.412888 85.602727 
L 275.132654 80.452872 
L 275.852421 70.047252 
L 276.572188 70.034013 
L 277.291955 67.386273 
L 278.011722 67.333318 
L 278.731488 64.831203 
L 280.171022 64.698816 
L 280.890789 64.910635 
L 281.610556 64.85768 
L 282.330322 64.592906 
L 283.050089 64.698816 
L 283.769856 64.632622 
L 284.489623 64.804726 
L 286.648923 64.685577 
L 287.36869 64.579668 
L 288.088457 61.945166 
L 288.808224 62.342327 
L 289.527991 56.120137 
L 290.247757 53.604783 
L 290.967524 53.379725 
L 291.687291 53.618022 
L 293.126825 53.340009 
L 293.846591 53.53859 
L 294.566358 53.498874 
L 295.286125 53.604783 
L 296.005892 53.445919 
L 296.725659 53.525351 
L 297.445425 53.43268 
L 298.165192 53.565067 
L 298.884959 53.53859 
L 299.604726 54.835983 
L 300.324493 54.14757 
L 301.044259 57.152756 
L 304.643093 57.20571 
L 306.082627 57.033607 
L 306.802394 57.179233 
L 307.522161 57.165994 
L 308.241927 54.730073 
L 308.961694 54.624163 
L 309.681461 56.053943 
L 310.401228 51.645455 
L 311.120995 51.711649 
L 311.840762 49.341921 
L 312.560528 49.487547 
L 313.280295 49.381637 
L 314.719829 49.421353 
L 315.439596 49.24925 
L 316.879129 49.633173 
L 317.598896 52.347107 
L 318.318663 53.975467 
L 319.03843 53.935751 
L 319.758196 51.80432 
L 320.477963 51.777842 
L 321.19773 50.705507 
L 321.917497 50.864372 
L 322.637264 53.326771 
L 323.35703 54.094615 
L 324.076797 56.411388 
L 324.796564 56.477582 
L 325.516331 56.345195 
L 326.236098 56.636446 
L 326.955864 49.514024 
L 327.675631 49.65965 
L 328.395398 51.327726 
L 329.115165 52.122049 
L 329.834932 52.492732 
L 330.554698 46.071962 
L 331.274465 42.444557 
L 331.994232 43.622802 
L 332.713999 41.478132 
L 333.433766 41.676712 
L 334.873299 42.974105 
L 336.312833 43.159447 
L 337.0326 43.530131 
L 337.752367 43.688995 
L 338.472133 43.503653 
L 339.1919 43.516892 
L 339.911667 42.497512 
L 340.631434 43.477176 
L 341.351201 41.70319 
L 342.070967 47.197251 
L 342.790734 50.083288 
L 343.510501 48.441689 
L 344.230268 49.778798 
L 344.950035 49.183057 
L 345.669801 46.522077 
L 346.389568 55.643543 
L 347.829102 55.497918 
L 348.548869 55.696498 
L 349.268635 55.392008 
L 349.988402 54.822744 
L 350.708169 55.564111 
L 351.427936 55.736214 
L 352.867469 55.630305 
L 353.587236 55.603827 
L 354.307003 49.911185 
L 355.02677 50.096527 
L 355.746537 51.155623 
L 356.466304 49.077147 
L 357.905837 49.328682 
L 359.345371 49.381637 
L 360.065138 54.04166 
L 360.784904 51.473352 
L 361.504671 53.618022 
L 362.224438 53.73717 
L 364.383738 53.644499 
L 365.103505 53.723932 
L 365.823272 53.604783 
L 366.543039 51.433636 
L 367.982572 51.566023 
L 368.702339 52.757506 
L 369.422106 51.552784 
L 370.141873 51.420397 
L 370.86164 53.723932 
L 371.581406 54.716834 
L 373.740707 54.875699 
L 374.460474 54.769789 
L 376.619774 54.822744 
L 378.779075 54.835983 
L 380.938375 54.796267 
L 385.976743 54.822744 
L 386.696509 57.338097 
L 390.295343 57.351336 
L 391.01511 50.427495 
L 392.454644 55.312576 
L 393.894177 55.418486 
L 394.613944 55.339053 
L 396.053478 55.444963 
L 397.493011 55.286098 
L 398.212778 50.453972 
L 398.932545 57.324859 
L 399.652312 57.430768 
L 401.091846 57.31162 
L 401.811612 57.404291 
L 403.251146 57.338097 
L 403.970913 57.496962 
L 404.69068 54.928654 
L 412.608114 54.822744 
L 413.327881 54.941892 
L 414.767415 54.915415 
L 415.487182 56.226046 
L 416.206948 53.631261 
L 416.926715 55.948034 
L 417.646482 55.934795 
L 418.366249 54.849221 
L 419.805782 54.888937 
L 421.245316 54.769789 
L 426.283684 54.690357 
L 428.442984 54.677118 
L 432.041818 54.783028 
L 432.041818 54.783028 
" clip-path="url(#p38f3d4ed9c)" style="fill: none; stroke: #91d1c2; stroke-width: 2; stroke-linecap: square"/>
   </g>
   <g id="patch_3">
    <path d="M 54.92 302.92 
L 54.92 27.6 
" style="fill: none; stroke: #000000; stroke-width: 0.8; stroke-linejoin: miter; stroke-linecap: square"/>
   </g>
   <g id="patch_4">
    <path d="M 450 302.92 
L 450 27.6 
" style="fill: none; stroke: #000000; stroke-width: 0.8; stroke-linejoin: miter; stroke-linecap: square"/>
   </g>
   <g id="patch_5">
    <path d="M 54.92 302.92 
L 450 302.92 
" style="fill: none; stroke: #000000; stroke-width: 0.8; stroke-linejoin: miter; stroke-linecap: square"/>
   </g>
   <g id="patch_6">
    <path d="M 54.92 27.6 
L 450 27.6 
" style="fill: none; stroke: #000000; stroke-width: 0.8; stroke-linejoin: miter; stroke-linecap: square"/>
   </g>
   <g id="text_14">
    <!-- Validation set AUROC for the D-RP model -->
    <g transform="translate(108.763125 21.6)scale(0.14 -0.14)">
     <defs>
      <path id="DejaVuSans-56" d="M 1831 0 
L 50 4666 
L 709 4666 
L 2188 738 
L 3669 4666 
L 4325 4666 
L 2547 0 
L 1831 0 
z
" transform="scale(0.015625)"/>
      <path id="DejaVuSans-61" d="M 2194 1759 
Q 1497 1759 1228 1600 
Q 959 1441 959 1056 
Q 959 750 1161 570 
Q 1363 391 1709 391 
Q 2188 391 2477 730 
Q 2766 1069 2766 1631 
L 2766 1759 
L 2194 1759 
z
M 3341 1997 
L 3341 0 
L 2766 0 
L 2766 531 
Q 2569 213 2275 61 
Q 1981 -91 1556 -91 
Q 1019 -91 701 211 
Q 384 513 384 1019 
Q 384 1609 779 1909 
Q 1175 2209 1959 2209 
L 2766 2209 
L 2766 2266 
Q 2766 2663 2505 2880 
Q 2244 3097 1772 3097 
Q 1472 3097 1187 3025 
Q 903 2953 641 2809 
L 641 3341 
Q 956 3463 1253 3523 
Q 1550 3584 1831 3584 
Q 2591 3584 2966 3190 
Q 3341 2797 3341 1997 
z
" transform="scale(0.015625)"/>
      <path id="DejaVuSans-6c" d="M 603 4863 
L 1178 4863 
L 1178 0 
L 603 0 
L 603 4863 
z
" transform="scale(0.015625)"/>
      <path id="DejaVuSans-69" d="M 603 3500 
L 1178 3500 
L 1178 0 
L 603 0 
L 603 3500 
z
M 603 4863 
L 1178 4863 
L 1178 4134 
L 603 4134 
L 603 4863 
z
" transform="scale(0.015625)"/>
      <path id="DejaVuSans-64" d="M 2906 2969 
L 2906 4863 
L 3481 4863 
L 3481 0 
L 2906 0 
L 2906 525 
Q 2725 213 2448 61 
Q 2172 -91 1784 -91 
Q 1150 -91 751 415 
Q 353 922 353 1747 
Q 353 2572 751 3078 
Q 1150 3584 1784 3584 
Q 2172 3584 2448 3432 
Q 2725 3281 2906 2969 
z
M 947 1747 
Q 947 1113 1208 752 
Q 1469 391 1925 391 
Q 2381 391 2643 752 
Q 2906 1113 2906 1747 
Q 2906 2381 2643 2742 
Q 2381 3103 1925 3103 
Q 1469 3103 1208 2742 
Q 947 2381 947 1747 
z
" transform="scale(0.015625)"/>
      <path id="DejaVuSans-74" d="M 1172 4494 
L 1172 3500 
L 2356 3500 
L 2356 3053 
L 1172 3053 
L 1172 1153 
Q 1172 725 1289 603 
Q 1406 481 1766 481 
L 2356 481 
L 2356 0 
L 1766 0 
Q 1100 0 847 248 
Q 594 497 594 1153 
L 594 3053 
L 172 3053 
L 172 3500 
L 594 3500 
L 594 4494 
L 1172 4494 
z
" transform="scale(0.015625)"/>
      <path id="DejaVuSans-6e" d="M 3513 2113 
L 3513 0 
L 2938 0 
L 2938 2094 
Q 2938 2591 2744 2837 
Q 2550 3084 2163 3084 
Q 1697 3084 1428 2787 
Q 1159 2491 1159 1978 
L 1159 0 
L 581 0 
L 581 3500 
L 1159 3500 
L 1159 2956 
Q 1366 3272 1645 3428 
Q 1925 3584 2291 3584 
Q 2894 3584 3203 3211 
Q 3513 2838 3513 2113 
z
" transform="scale(0.015625)"/>
      <path id="DejaVuSans-20" transform="scale(0.015625)"/>
      <path id="DejaVuSans-65" d="M 3597 1894 
L 3597 1613 
L 953 1613 
Q 991 1019 1311 708 
Q 1631 397 2203 397 
Q 2534 397 2845 478 
Q 3156 559 3463 722 
L 3463 178 
Q 3153 47 2828 -22 
Q 2503 -91 2169 -91 
Q 1331 -91 842 396 
Q 353 884 353 1716 
Q 353 2575 817 3079 
Q 1281 3584 2069 3584 
Q 2775 3584 3186 3129 
Q 3597 2675 3597 1894 
z
M 3022 2063 
Q 3016 2534 2758 2815 
Q 2500 3097 2075 3097 
Q 1594 3097 1305 2825 
Q 1016 2553 972 2059 
L 3022 2063 
z
" transform="scale(0.015625)"/>
      <path id="DejaVuSans-66" d="M 2375 4863 
L 2375 4384 
L 1825 4384 
Q 1516 4384 1395 4259 
Q 1275 4134 1275 3809 
L 1275 3500 
L 2222 3500 
L 2222 3053 
L 1275 3053 
L 1275 0 
L 697 0 
L 697 3053 
L 147 3053 
L 147 3500 
L 697 3500 
L 697 3744 
Q 697 4328 969 4595 
Q 1241 4863 1831 4863 
L 2375 4863 
z
" transform="scale(0.015625)"/>
      <path id="DejaVuSans-72" d="M 2631 2963 
Q 2534 3019 2420 3045 
Q 2306 3072 2169 3072 
Q 1681 3072 1420 2755 
Q 1159 2438 1159 1844 
L 1159 0 
L 581 0 
L 581 3500 
L 1159 3500 
L 1159 2956 
Q 1341 3275 1631 3429 
Q 1922 3584 2338 3584 
Q 2397 3584 2469 3576 
Q 2541 3569 2628 3553 
L 2631 2963 
z
" transform="scale(0.015625)"/>
      <path id="DejaVuSans-44" d="M 1259 4147 
L 1259 519 
L 2022 519 
Q 2988 519 3436 956 
Q 3884 1394 3884 2338 
Q 3884 3275 3436 3711 
Q 2988 4147 2022 4147 
L 1259 4147 
z
M 628 4666 
L 1925 4666 
Q 3281 4666 3915 4102 
Q 4550 3538 4550 2338 
Q 4550 1131 3912 565 
Q 3275 0 1925 0 
L 628 0 
L 628 4666 
z
" transform="scale(0.015625)"/>
      <path id="DejaVuSans-2d" d="M 313 2009 
L 1997 2009 
L 1997 1497 
L 313 1497 
L 313 2009 
z
" transform="scale(0.015625)"/>
      <path id="DejaVuSans-50" d="M 1259 4147 
L 1259 2394 
L 2053 2394 
Q 2494 2394 2734 2622 
Q 2975 2850 2975 3272 
Q 2975 3691 2734 3919 
Q 2494 4147 2053 4147 
L 1259 4147 
z
M 628 4666 
L 2053 4666 
Q 2838 4666 3239 4311 
Q 3641 3956 3641 3272 
Q 3641 2581 3239 2228 
Q 2838 1875 2053 1875 
L 1259 1875 
L 1259 0 
L 628 0 
L 628 4666 
z
" transform="scale(0.015625)"/>
      <path id="DejaVuSans-6d" d="M 3328 2828 
Q 3544 3216 3844 3400 
Q 4144 3584 4550 3584 
Q 5097 3584 5394 3201 
Q 5691 2819 5691 2113 
L 5691 0 
L 5113 0 
L 5113 2094 
Q 5113 2597 4934 2840 
Q 4756 3084 4391 3084 
Q 3944 3084 3684 2787 
Q 3425 2491 3425 1978 
L 3425 0 
L 2847 0 
L 2847 2094 
Q 2847 2600 2669 2842 
Q 2491 3084 2119 3084 
Q 1678 3084 1418 2786 
Q 1159 2488 1159 1978 
L 1159 0 
L 581 0 
L 581 3500 
L 1159 3500 
L 1159 2956 
Q 1356 3278 1631 3431 
Q 1906 3584 2284 3584 
Q 2666 3584 2933 3390 
Q 3200 3197 3328 2828 
z
" transform="scale(0.015625)"/>
     </defs>
     <use xlink:href="#DejaVuSans-56"/>
     <use xlink:href="#DejaVuSans-61" x="60.658203"/>
     <use xlink:href="#DejaVuSans-6c" x="121.9375"/>
     <use xlink:href="#DejaVuSans-69" x="149.720703"/>
     <use xlink:href="#DejaVuSans-64" x="177.503906"/>
     <use xlink:href="#DejaVuSans-61" x="240.980469"/>
     <use xlink:href="#DejaVuSans-74" x="302.259766"/>
     <use xlink:href="#DejaVuSans-69" x="341.46875"/>
     <use xlink:href="#DejaVuSans-6f" x="369.251953"/>
     <use xlink:href="#DejaVuSans-6e" x="430.433594"/>
     <use xlink:href="#DejaVuSans-20" x="493.8125"/>
     <use xlink:href="#DejaVuSans-73" x="525.599609"/>
     <use xlink:href="#DejaVuSans-65" x="577.699219"/>
     <use xlink:href="#DejaVuSans-74" x="639.222656"/>
     <use xlink:href="#DejaVuSans-20" x="678.431641"/>
     <use xlink:href="#DejaVuSans-41" x="710.21875"/>
     <use xlink:href="#DejaVuSans-55" x="778.626953"/>
     <use xlink:href="#DejaVuSans-52" x="851.820312"/>
     <use xlink:href="#DejaVuSans-4f" x="921.302734"/>
     <use xlink:href="#DejaVuSans-43" x="1000.013672"/>
     <use xlink:href="#DejaVuSans-20" x="1069.837891"/>
     <use xlink:href="#DejaVuSans-66" x="1101.625"/>
     <use xlink:href="#DejaVuSans-6f" x="1136.830078"/>
     <use xlink:href="#DejaVuSans-72" x="1198.011719"/>
     <use xlink:href="#DejaVuSans-20" x="1239.125"/>
     <use xlink:href="#DejaVuSans-74" x="1270.912109"/>
     <use xlink:href="#DejaVuSans-68" x="1310.121094"/>
     <use xlink:href="#DejaVuSans-65" x="1373.5"/>
     <use xlink:href="#DejaVuSans-20" x="1435.023438"/>
     <use xlink:href="#DejaVuSans-44" x="1466.810547"/>
     <use xlink:href="#DejaVuSans-2d" x="1543.8125"/>
     <use xlink:href="#DejaVuSans-52" x="1579.896484"/>
     <use xlink:href="#DejaVuSans-50" x="1649.378906"/>
     <use xlink:href="#DejaVuSans-20" x="1709.681641"/>
     <use xlink:href="#DejaVuSans-6d" x="1741.46875"/>
     <use xlink:href="#DejaVuSans-6f" x="1838.880859"/>
     <use xlink:href="#DejaVuSans-64" x="1900.0625"/>
     <use xlink:href="#DejaVuSans-65" x="1963.539062"/>
     <use xlink:href="#DejaVuSans-6c" x="2025.0625"/>
    </g>
   </g>
   <g id="legend_1">
    <g id="patch_7">
     <path d="M 278.271875 297.92 
L 443 297.92 
Q 445 297.92 445 295.92 
L 445 267.56375 
Q 445 265.56375 443 265.56375 
L 278.271875 265.56375 
Q 276.271875 265.56375 276.271875 267.56375 
L 276.271875 295.92 
Q 276.271875 297.92 278.271875 297.92 
z
" style="fill: #ffffff; opacity: 0.8; stroke: #cccccc; stroke-linejoin: miter"/>
    </g>
    <g id="line2d_25">
     <path d="M 280.271875 273.662187 
L 290.271875 273.662187 
L 300.271875 273.662187 
" style="fill: none; stroke: #8491b4; stroke-width: 2; stroke-linecap: square"/>
    </g>
    <g id="text_15">
     <!-- D-RP student model (KD) -->
     <g transform="translate(308.271875 277.162187)scale(0.1 -0.1)">
      <defs>
       <path id="DejaVuSans-75" d="M 544 1381 
L 544 3500 
L 1119 3500 
L 1119 1403 
Q 1119 906 1312 657 
Q 1506 409 1894 409 
Q 2359 409 2629 706 
Q 2900 1003 2900 1516 
L 2900 3500 
L 3475 3500 
L 3475 0 
L 2900 0 
L 2900 538 
Q 2691 219 2414 64 
Q 2138 -91 1772 -91 
Q 1169 -91 856 284 
Q 544 659 544 1381 
z
M 1991 3584 
L 1991 3584 
z
" transform="scale(0.015625)"/>
       <path id="DejaVuSans-28" d="M 1984 4856 
Q 1566 4138 1362 3434 
Q 1159 2731 1159 2009 
Q 1159 1288 1364 580 
Q 1569 -128 1984 -844 
L 1484 -844 
Q 1016 -109 783 600 
Q 550 1309 550 2009 
Q 550 2706 781 3412 
Q 1013 4119 1484 4856 
L 1984 4856 
z
" transform="scale(0.015625)"/>
       <path id="DejaVuSans-4b" d="M 628 4666 
L 1259 4666 
L 1259 2694 
L 3353 4666 
L 4166 4666 
L 1850 2491 
L 4331 0 
L 3500 0 
L 1259 2247 
L 1259 0 
L 628 0 
L 628 4666 
z
" transform="scale(0.015625)"/>
       <path id="DejaVuSans-29" d="M 513 4856 
L 1013 4856 
Q 1481 4119 1714 3412 
Q 1947 2706 1947 2009 
Q 1947 1309 1714 600 
Q 1481 -109 1013 -844 
L 513 -844 
Q 928 -128 1133 580 
Q 1338 1288 1338 2009 
Q 1338 2731 1133 3434 
Q 928 4138 513 4856 
z
" transform="scale(0.015625)"/>
      </defs>
      <use xlink:href="#DejaVuSans-44"/>
      <use xlink:href="#DejaVuSans-2d" x="77.001953"/>
      <use xlink:href="#DejaVuSans-52" x="113.085938"/>
      <use xlink:href="#DejaVuSans-50" x="182.568359"/>
      <use xlink:href="#DejaVuSans-20" x="242.871094"/>
      <use xlink:href="#DejaVuSans-73" x="274.658203"/>
      <use xlink:href="#DejaVuSans-74" x="326.757812"/>
      <use xlink:href="#DejaVuSans-75" x="365.966797"/>
      <use xlink:href="#DejaVuSans-64" x="429.345703"/>
      <use xlink:href="#DejaVuSans-65" x="492.822266"/>
      <use xlink:href="#DejaVuSans-6e" x="554.345703"/>
      <use xlink:href="#DejaVuSans-74" x="617.724609"/>
      <use xlink:href="#DejaVuSans-20" x="656.933594"/>
      <use xlink:href="#DejaVuSans-6d" x="688.720703"/>
      <use xlink:href="#DejaVuSans-6f" x="786.132812"/>
      <use xlink:href="#DejaVuSans-64" x="847.314453"/>
      <use xlink:href="#DejaVuSans-65" x="910.791016"/>
      <use xlink:href="#DejaVuSans-6c" x="972.314453"/>
      <use xlink:href="#DejaVuSans-20" x="1000.097656"/>
      <use xlink:href="#DejaVuSans-28" x="1031.884766"/>
      <use xlink:href="#DejaVuSans-4b" x="1070.898438"/>
      <use xlink:href="#DejaVuSans-44" x="1136.474609"/>
      <use xlink:href="#DejaVuSans-29" x="1213.476562"/>
     </g>
    </g>
    <g id="line2d_26">
     <path d="M 280.271875 288.340312 
L 290.271875 288.340312 
L 300.271875 288.340312 
" style="fill: none; stroke: #91d1c2; stroke-width: 2; stroke-linecap: square"/>
    </g>
    <g id="text_16">
     <!-- D-RP student model (NKD) -->
     <g transform="translate(308.271875 291.840312)scale(0.1 -0.1)">
      <defs>
       <path id="DejaVuSans-4e" d="M 628 4666 
L 1478 4666 
L 3547 763 
L 3547 4666 
L 4159 4666 
L 4159 0 
L 3309 0 
L 1241 3903 
L 1241 0 
L 628 0 
L 628 4666 
z
" transform="scale(0.015625)"/>
      </defs>
      <use xlink:href="#DejaVuSans-44"/>
      <use xlink:href="#DejaVuSans-2d" x="77.001953"/>
      <use xlink:href="#DejaVuSans-52" x="113.085938"/>
      <use xlink:href="#DejaVuSans-50" x="182.568359"/>
      <use xlink:href="#DejaVuSans-20" x="242.871094"/>
      <use xlink:href="#DejaVuSans-73" x="274.658203"/>
      <use xlink:href="#DejaVuSans-74" x="326.757812"/>
      <use xlink:href="#DejaVuSans-75" x="365.966797"/>
      <use xlink:href="#DejaVuSans-64" x="429.345703"/>
      <use xlink:href="#DejaVuSans-65" x="492.822266"/>
      <use xlink:href="#DejaVuSans-6e" x="554.345703"/>
      <use xlink:href="#DejaVuSans-74" x="617.724609"/>
      <use xlink:href="#DejaVuSans-20" x="656.933594"/>
      <use xlink:href="#DejaVuSans-6d" x="688.720703"/>
      <use xlink:href="#DejaVuSans-6f" x="786.132812"/>
      <use xlink:href="#DejaVuSans-64" x="847.314453"/>
      <use xlink:href="#DejaVuSans-65" x="910.791016"/>
      <use xlink:href="#DejaVuSans-6c" x="972.314453"/>
      <use xlink:href="#DejaVuSans-20" x="1000.097656"/>
      <use xlink:href="#DejaVuSans-28" x="1031.884766"/>
      <use xlink:href="#DejaVuSans-4e" x="1070.898438"/>
      <use xlink:href="#DejaVuSans-4b" x="1145.703125"/>
      <use xlink:href="#DejaVuSans-44" x="1211.279297"/>
      <use xlink:href="#DejaVuSans-29" x="1288.28125"/>
     </g>
    </g>
   </g>
  </g>
 </g>
 <defs>
  <clipPath id="p38f3d4ed9c">
   <rect x="54.92" y="27.6" width="395.08" height="275.32"/>
  </clipPath>
 </defs>
</svg>
