<?xml version="1.0" encoding="utf-8" standalone="no"?>
<!DOCTYPE svg PUBLIC "-//W3C//DTD SVG 1.1//EN"
  "http://www.w3.org/Graphics/SVG/1.1/DTD/svg11.dtd">
<svg xmlns:xlink="http://www.w3.org/1999/xlink" width="460.8pt" height="345.6pt" viewBox="0 0 460.8 345.6" xmlns="http://www.w3.org/2000/svg" version="1.1">
 <metadata>
  <rdf:RDF xmlns:dc="http://purl.org/dc/elements/1.1/" xmlns:cc="http://creativecommons.org/ns#" xmlns:rdf="http://www.w3.org/1999/02/22-rdf-syntax-ns#">
   <cc:Work>
    <dc:type rdf:resource="http://purl.org/dc/dcmitype/StillImage"/>
    <dc:date>2024-10-27T11:45:59.715133</dc:date>
    <dc:format>image/svg+xml</dc:format>
    <dc:creator>
     <cc:Agent>
      <dc:title>Matplotlib v3.5.3, https://matplotlib.org/</dc:title>
     </cc:Agent>
    </dc:creator>
   </cc:Work>
  </rdf:RDF>
 </metadata>
 <defs>
  <style type="text/css">*{stroke-linejoin: round; stroke-linecap: butt}</style>
 </defs>
 <g id="figure_1">
  <g id="patch_1">
   <path d="M 0 345.6 
L 460.8 345.6 
L 460.8 0 
L 0 0 
z
" style="fill: #ffffff"/>
  </g>
  <g id="axes_1">
   <g id="patch_2">
    <path d="M 38.99 302.92 
L 450 302.92 
L 450 27.6 
L 38.99 27.6 
z
" style="fill: #ffffff"/>
   </g>
   <g id="matplotlib.axis_1">
    <g id="xtick_1">
     <g id="line2d_1">
      <path d="M 57.672273 302.92 
L 57.672273 27.6 
" clip-path="url(#p342c184f6d)" style="fill: none; stroke: #b0b0b0; stroke-width: 0.8; stroke-linecap: square"/>
     </g>
     <g id="line2d_2">
      <defs>
       <path id="mbb10633350" d="M 0 0 
L 0 3.5 
" style="stroke: #000000; stroke-width: 0.8"/>
      </defs>
      <g>
       <use xlink:href="#mbb10633350" x="57.672273" y="302.92" style="stroke: #000000; stroke-width: 0.8"/>
      </g>
     </g>
     <g id="text_1">
      <!-- 0 -->
      <g transform="translate(54.491023 317.518437)scale(0.1 -0.1)">
       <defs>
        <path id="DejaVuSans-30" d="M 2034 4250 
Q 1547 4250 1301 3770 
Q 1056 3291 1056 2328 
Q 1056 1369 1301 889 
Q 1547 409 2034 409 
Q 2525 409 2770 889 
Q 3016 1369 3016 2328 
Q 3016 3291 2770 3770 
Q 2525 4250 2034 4250 
z
M 2034 4750 
Q 2819 4750 3233 4129 
Q 3647 3509 3647 2328 
Q 3647 1150 3233 529 
Q 2819 -91 2034 -91 
Q 1250 -91 836 529 
Q 422 1150 422 2328 
Q 422 3509 836 4129 
Q 1250 4750 2034 4750 
z
" transform="scale(0.015625)"/>
       </defs>
       <use xlink:href="#DejaVuSans-30"/>
      </g>
     </g>
    </g>
    <g id="xtick_2">
     <g id="line2d_3">
      <path d="M 133.156203 302.92 
L 133.156203 27.6 
" clip-path="url(#p342c184f6d)" style="fill: none; stroke: #b0b0b0; stroke-width: 0.8; stroke-linecap: square"/>
     </g>
     <g id="line2d_4">
      <g>
       <use xlink:href="#mbb10633350" x="133.156203" y="302.92" style="stroke: #000000; stroke-width: 0.8"/>
      </g>
     </g>
     <g id="text_2">
      <!-- 20 -->
      <g transform="translate(126.793703 317.518437)scale(0.1 -0.1)">
       <defs>
        <path id="DejaVuSans-32" d="M 1228 531 
L 3431 531 
L 3431 0 
L 469 0 
L 469 531 
Q 828 903 1448 1529 
Q 2069 2156 2228 2338 
Q 2531 2678 2651 2914 
Q 2772 3150 2772 3378 
Q 2772 3750 2511 3984 
Q 2250 4219 1831 4219 
Q 1534 4219 1204 4116 
Q 875 4013 500 3803 
L 500 4441 
Q 881 4594 1212 4672 
Q 1544 4750 1819 4750 
Q 2544 4750 2975 4387 
Q 3406 4025 3406 3419 
Q 3406 3131 3298 2873 
Q 3191 2616 2906 2266 
Q 2828 2175 2409 1742 
Q 1991 1309 1228 531 
z
" transform="scale(0.015625)"/>
       </defs>
       <use xlink:href="#DejaVuSans-32"/>
       <use xlink:href="#DejaVuSans-30" x="63.623047"/>
      </g>
     </g>
    </g>
    <g id="xtick_3">
     <g id="line2d_5">
      <path d="M 208.640133 302.92 
L 208.640133 27.6 
" clip-path="url(#p342c184f6d)" style="fill: none; stroke: #b0b0b0; stroke-width: 0.8; stroke-linecap: square"/>
     </g>
     <g id="line2d_6">
      <g>
       <use xlink:href="#mbb10633350" x="208.640133" y="302.92" style="stroke: #000000; stroke-width: 0.8"/>
      </g>
     </g>
     <g id="text_3">
      <!-- 40 -->
      <g transform="translate(202.277633 317.518437)scale(0.1 -0.1)">
       <defs>
        <path id="DejaVuSans-34" d="M 2419 4116 
L 825 1625 
L 2419 1625 
L 2419 4116 
z
M 2253 4666 
L 3047 4666 
L 3047 1625 
L 3713 1625 
L 3713 1100 
L 3047 1100 
L 3047 0 
L 2419 0 
L 2419 1100 
L 313 1100 
L 313 1709 
L 2253 4666 
z
" transform="scale(0.015625)"/>
       </defs>
       <use xlink:href="#DejaVuSans-34"/>
       <use xlink:href="#DejaVuSans-30" x="63.623047"/>
      </g>
     </g>
    </g>
    <g id="xtick_4">
     <g id="line2d_7">
      <path d="M 284.124063 302.92 
L 284.124063 27.6 
" clip-path="url(#p342c184f6d)" style="fill: none; stroke: #b0b0b0; stroke-width: 0.8; stroke-linecap: square"/>
     </g>
     <g id="line2d_8">
      <g>
       <use xlink:href="#mbb10633350" x="284.124063" y="302.92" style="stroke: #000000; stroke-width: 0.8"/>
      </g>
     </g>
     <g id="text_4">
      <!-- 60 -->
      <g transform="translate(277.761563 317.518437)scale(0.1 -0.1)">
       <defs>
        <path id="DejaVuSans-36" d="M 2113 2584 
Q 1688 2584 1439 2293 
Q 1191 2003 1191 1497 
Q 1191 994 1439 701 
Q 1688 409 2113 409 
Q 2538 409 2786 701 
Q 3034 994 3034 1497 
Q 3034 2003 2786 2293 
Q 2538 2584 2113 2584 
z
M 3366 4563 
L 3366 3988 
Q 3128 4100 2886 4159 
Q 2644 4219 2406 4219 
Q 1781 4219 1451 3797 
Q 1122 3375 1075 2522 
Q 1259 2794 1537 2939 
Q 1816 3084 2150 3084 
Q 2853 3084 3261 2657 
Q 3669 2231 3669 1497 
Q 3669 778 3244 343 
Q 2819 -91 2113 -91 
Q 1303 -91 875 529 
Q 447 1150 447 2328 
Q 447 3434 972 4092 
Q 1497 4750 2381 4750 
Q 2619 4750 2861 4703 
Q 3103 4656 3366 4563 
z
" transform="scale(0.015625)"/>
       </defs>
       <use xlink:href="#DejaVuSans-36"/>
       <use xlink:href="#DejaVuSans-30" x="63.623047"/>
      </g>
     </g>
    </g>
    <g id="xtick_5">
     <g id="line2d_9">
      <path d="M 359.607994 302.92 
L 359.607994 27.6 
" clip-path="url(#p342c184f6d)" style="fill: none; stroke: #b0b0b0; stroke-width: 0.8; stroke-linecap: square"/>
     </g>
     <g id="line2d_10">
      <g>
       <use xlink:href="#mbb10633350" x="359.607994" y="302.92" style="stroke: #000000; stroke-width: 0.8"/>
      </g>
     </g>
     <g id="text_5">
      <!-- 80 -->
      <g transform="translate(353.245494 317.518437)scale(0.1 -0.1)">
       <defs>
        <path id="DejaVuSans-38" d="M 2034 2216 
Q 1584 2216 1326 1975 
Q 1069 1734 1069 1313 
Q 1069 891 1326 650 
Q 1584 409 2034 409 
Q 2484 409 2743 651 
Q 3003 894 3003 1313 
Q 3003 1734 2745 1975 
Q 2488 2216 2034 2216 
z
M 1403 2484 
Q 997 2584 770 2862 
Q 544 3141 544 3541 
Q 544 4100 942 4425 
Q 1341 4750 2034 4750 
Q 2731 4750 3128 4425 
Q 3525 4100 3525 3541 
Q 3525 3141 3298 2862 
Q 3072 2584 2669 2484 
Q 3125 2378 3379 2068 
Q 3634 1759 3634 1313 
Q 3634 634 3220 271 
Q 2806 -91 2034 -91 
Q 1263 -91 848 271 
Q 434 634 434 1313 
Q 434 1759 690 2068 
Q 947 2378 1403 2484 
z
M 1172 3481 
Q 1172 3119 1398 2916 
Q 1625 2713 2034 2713 
Q 2441 2713 2670 2916 
Q 2900 3119 2900 3481 
Q 2900 3844 2670 4047 
Q 2441 4250 2034 4250 
Q 1625 4250 1398 4047 
Q 1172 3844 1172 3481 
z
" transform="scale(0.015625)"/>
       </defs>
       <use xlink:href="#DejaVuSans-38"/>
       <use xlink:href="#DejaVuSans-30" x="63.623047"/>
      </g>
     </g>
    </g>
    <g id="xtick_6">
     <g id="line2d_11">
      <path d="M 435.091924 302.92 
L 435.091924 27.6 
" clip-path="url(#p342c184f6d)" style="fill: none; stroke: #b0b0b0; stroke-width: 0.8; stroke-linecap: square"/>
     </g>
     <g id="line2d_12">
      <g>
       <use xlink:href="#mbb10633350" x="435.091924" y="302.92" style="stroke: #000000; stroke-width: 0.8"/>
      </g>
     </g>
     <g id="text_6">
      <!-- 100 -->
      <g transform="translate(425.548174 317.518437)scale(0.1 -0.1)">
       <defs>
        <path id="DejaVuSans-31" d="M 794 531 
L 1825 531 
L 1825 4091 
L 703 3866 
L 703 4441 
L 1819 4666 
L 2450 4666 
L 2450 531 
L 3481 531 
L 3481 0 
L 794 0 
L 794 531 
z
" transform="scale(0.015625)"/>
       </defs>
       <use xlink:href="#DejaVuSans-31"/>
       <use xlink:href="#DejaVuSans-30" x="63.623047"/>
       <use xlink:href="#DejaVuSans-30" x="127.246094"/>
      </g>
     </g>
    </g>
    <g id="text_7">
     <!-- Epochs -->
     <g transform="translate(222.99625 332.71625)scale(0.12 -0.12)">
      <defs>
       <path id="DejaVuSans-45" d="M 628 4666 
L 3578 4666 
L 3578 4134 
L 1259 4134 
L 1259 2753 
L 3481 2753 
L 3481 2222 
L 1259 2222 
L 1259 531 
L 3634 531 
L 3634 0 
L 628 0 
L 628 4666 
z
" transform="scale(0.015625)"/>
       <path id="DejaVuSans-70" d="M 1159 525 
L 1159 -1331 
L 581 -1331 
L 581 3500 
L 1159 3500 
L 1159 2969 
Q 1341 3281 1617 3432 
Q 1894 3584 2278 3584 
Q 2916 3584 3314 3078 
Q 3713 2572 3713 1747 
Q 3713 922 3314 415 
Q 2916 -91 2278 -91 
Q 1894 -91 1617 61 
Q 1341 213 1159 525 
z
M 3116 1747 
Q 3116 2381 2855 2742 
Q 2594 3103 2138 3103 
Q 1681 3103 1420 2742 
Q 1159 2381 1159 1747 
Q 1159 1113 1420 752 
Q 1681 391 2138 391 
Q 2594 391 2855 752 
Q 3116 1113 3116 1747 
z
" transform="scale(0.015625)"/>
       <path id="DejaVuSans-6f" d="M 1959 3097 
Q 1497 3097 1228 2736 
Q 959 2375 959 1747 
Q 959 1119 1226 758 
Q 1494 397 1959 397 
Q 2419 397 2687 759 
Q 2956 1122 2956 1747 
Q 2956 2369 2687 2733 
Q 2419 3097 1959 3097 
z
M 1959 3584 
Q 2709 3584 3137 3096 
Q 3566 2609 3566 1747 
Q 3566 888 3137 398 
Q 2709 -91 1959 -91 
Q 1206 -91 779 398 
Q 353 888 353 1747 
Q 353 2609 779 3096 
Q 1206 3584 1959 3584 
z
" transform="scale(0.015625)"/>
       <path id="DejaVuSans-63" d="M 3122 3366 
L 3122 2828 
Q 2878 2963 2633 3030 
Q 2388 3097 2138 3097 
Q 1578 3097 1268 2742 
Q 959 2388 959 1747 
Q 959 1106 1268 751 
Q 1578 397 2138 397 
Q 2388 397 2633 464 
Q 2878 531 3122 666 
L 3122 134 
Q 2881 22 2623 -34 
Q 2366 -91 2075 -91 
Q 1284 -91 818 406 
Q 353 903 353 1747 
Q 353 2603 823 3093 
Q 1294 3584 2113 3584 
Q 2378 3584 2631 3529 
Q 2884 3475 3122 3366 
z
" transform="scale(0.015625)"/>
       <path id="DejaVuSans-68" d="M 3513 2113 
L 3513 0 
L 2938 0 
L 2938 2094 
Q 2938 2591 2744 2837 
Q 2550 3084 2163 3084 
Q 1697 3084 1428 2787 
Q 1159 2491 1159 1978 
L 1159 0 
L 581 0 
L 581 4863 
L 1159 4863 
L 1159 2956 
Q 1366 3272 1645 3428 
Q 1925 3584 2291 3584 
Q 2894 3584 3203 3211 
Q 3513 2838 3513 2113 
z
" transform="scale(0.015625)"/>
       <path id="DejaVuSans-73" d="M 2834 3397 
L 2834 2853 
Q 2591 2978 2328 3040 
Q 2066 3103 1784 3103 
Q 1356 3103 1142 2972 
Q 928 2841 928 2578 
Q 928 2378 1081 2264 
Q 1234 2150 1697 2047 
L 1894 2003 
Q 2506 1872 2764 1633 
Q 3022 1394 3022 966 
Q 3022 478 2636 193 
Q 2250 -91 1575 -91 
Q 1294 -91 989 -36 
Q 684 19 347 128 
L 347 722 
Q 666 556 975 473 
Q 1284 391 1588 391 
Q 1994 391 2212 530 
Q 2431 669 2431 922 
Q 2431 1156 2273 1281 
Q 2116 1406 1581 1522 
L 1381 1569 
Q 847 1681 609 1914 
Q 372 2147 372 2553 
Q 372 3047 722 3315 
Q 1072 3584 1716 3584 
Q 2034 3584 2315 3537 
Q 2597 3491 2834 3397 
z
" transform="scale(0.015625)"/>
      </defs>
      <use xlink:href="#DejaVuSans-45"/>
      <use xlink:href="#DejaVuSans-70" x="63.183594"/>
      <use xlink:href="#DejaVuSans-6f" x="126.660156"/>
      <use xlink:href="#DejaVuSans-63" x="187.841797"/>
      <use xlink:href="#DejaVuSans-68" x="242.822266"/>
      <use xlink:href="#DejaVuSans-73" x="306.201172"/>
     </g>
    </g>
   </g>
   <g id="matplotlib.axis_2">
    <g id="ytick_1">
     <g id="line2d_13">
      <path d="M 38.99 292.427682 
L 450 292.427682 
" clip-path="url(#p342c184f6d)" style="fill: none; stroke: #b0b0b0; stroke-width: 0.8; stroke-linecap: square"/>
     </g>
     <g id="line2d_14">
      <defs>
       <path id="m2e45bf5caa" d="M 0 0 
L -3.5 0 
" style="stroke: #000000; stroke-width: 0.8"/>
      </defs>
      <g>
       <use xlink:href="#m2e45bf5caa" x="38.99" y="292.427682" style="stroke: #000000; stroke-width: 0.8"/>
      </g>
     </g>
     <g id="text_8">
      <!-- 0 -->
      <g transform="translate(25.6275 296.226901)scale(0.1 -0.1)">
       <use xlink:href="#DejaVuSans-30"/>
      </g>
     </g>
    </g>
    <g id="ytick_2">
     <g id="line2d_15">
      <path d="M 38.99 239.375571 
L 450 239.375571 
" clip-path="url(#p342c184f6d)" style="fill: none; stroke: #b0b0b0; stroke-width: 0.8; stroke-linecap: square"/>
     </g>
     <g id="line2d_16">
      <g>
       <use xlink:href="#m2e45bf5caa" x="38.99" y="239.375571" style="stroke: #000000; stroke-width: 0.8"/>
      </g>
     </g>
     <g id="text_9">
      <!-- 2 -->
      <g transform="translate(25.6275 243.17479)scale(0.1 -0.1)">
       <use xlink:href="#DejaVuSans-32"/>
      </g>
     </g>
    </g>
    <g id="ytick_3">
     <g id="line2d_17">
      <path d="M 38.99 186.32346 
L 450 186.32346 
" clip-path="url(#p342c184f6d)" style="fill: none; stroke: #b0b0b0; stroke-width: 0.8; stroke-linecap: square"/>
     </g>
     <g id="line2d_18">
      <g>
       <use xlink:href="#m2e45bf5caa" x="38.99" y="186.32346" style="stroke: #000000; stroke-width: 0.8"/>
      </g>
     </g>
     <g id="text_10">
      <!-- 4 -->
      <g transform="translate(25.6275 190.122678)scale(0.1 -0.1)">
       <use xlink:href="#DejaVuSans-34"/>
      </g>
     </g>
    </g>
    <g id="ytick_4">
     <g id="line2d_19">
      <path d="M 38.99 133.271348 
L 450 133.271348 
" clip-path="url(#p342c184f6d)" style="fill: none; stroke: #b0b0b0; stroke-width: 0.8; stroke-linecap: square"/>
     </g>
     <g id="line2d_20">
      <g>
       <use xlink:href="#m2e45bf5caa" x="38.99" y="133.271348" style="stroke: #000000; stroke-width: 0.8"/>
      </g>
     </g>
     <g id="text_11">
      <!-- 6 -->
      <g transform="translate(25.6275 137.070567)scale(0.1 -0.1)">
       <use xlink:href="#DejaVuSans-36"/>
      </g>
     </g>
    </g>
    <g id="ytick_5">
     <g id="line2d_21">
      <path d="M 38.99 80.219237 
L 450 80.219237 
" clip-path="url(#p342c184f6d)" style="fill: none; stroke: #b0b0b0; stroke-width: 0.8; stroke-linecap: square"/>
     </g>
     <g id="line2d_22">
      <g>
       <use xlink:href="#m2e45bf5caa" x="38.99" y="80.219237" style="stroke: #000000; stroke-width: 0.8"/>
      </g>
     </g>
     <g id="text_12">
      <!-- 8 -->
      <g transform="translate(25.6275 84.018456)scale(0.1 -0.1)">
       <use xlink:href="#DejaVuSans-38"/>
      </g>
     </g>
    </g>
    <g id="text_13">
     <!-- Loss -->
     <g transform="translate(19.131875 178.420625)rotate(-90)scale(0.12 -0.12)">
      <defs>
       <path id="DejaVuSans-4c" d="M 628 4666 
L 1259 4666 
L 1259 531 
L 3531 531 
L 3531 0 
L 628 0 
L 628 4666 
z
" transform="scale(0.015625)"/>
      </defs>
      <use xlink:href="#DejaVuSans-4c"/>
      <use xlink:href="#DejaVuSans-6f" x="53.962891"/>
      <use xlink:href="#DejaVuSans-73" x="115.144531"/>
      <use xlink:href="#DejaVuSans-73" x="167.244141"/>
     </g>
    </g>
   </g>
   <g id="line2d_23">
    <path d="M 57.672273 236.069313 
L 61.446469 279.921621 
L 65.220666 287.725548 
L 68.994862 286.186251 
L 72.769059 289.029216 
L 76.543255 283.526664 
L 80.317452 288.892992 
L 84.091648 288.276275 
L 87.865845 289.249414 
L 91.640041 289.108134 
L 95.414238 286.796785 
L 99.188434 282.434924 
L 102.962631 289.199284 
L 106.736827 282.656934 
L 110.511024 288.326993 
L 114.28522 289.072296 
L 118.059417 289.492895 
L 121.833613 288.104234 
L 125.60781 289.493196 
L 129.382006 288.912889 
L 133.156203 289.387115 
L 136.930399 289.131566 
L 140.704596 288.933487 
L 144.478792 289.562236 
L 148.252989 287.953601 
L 152.027185 289.669809 
L 155.801382 288.067803 
L 159.575579 289.453522 
L 163.349775 289.471828 
L 167.123972 289.766582 
L 170.898168 289.892073 
L 174.672365 289.62588 
L 178.446561 289.826454 
L 182.220758 289.195925 
L 185.994954 289.598261 
L 189.769151 289.207416 
L 193.543347 289.724229 
L 197.317544 289.366746 
L 201.09174 289.313722 
L 204.865937 289.795369 
L 208.640133 288.790113 
L 212.41433 290.018364 
L 216.188526 289.504471 
L 219.962723 290.133576 
L 223.736919 289.980794 
L 227.511116 289.562988 
L 231.285312 289.624793 
L 235.059509 288.873646 
L 238.833705 289.781259 
L 242.607902 290.058376 
L 246.382098 290.024064 
L 250.156295 289.828098 
L 253.930491 290.015038 
L 257.704688 290.121805 
L 261.478884 289.225917 
L 265.253081 290.051372 
L 269.027277 287.331488 
L 272.801474 290.328233 
L 276.57567 290.261274 
L 280.349867 290.116794 
L 284.124063 289.190004 
L 287.89826 287.23655 
L 291.672456 289.559033 
L 295.446653 290.207583 
L 299.220849 290.263771 
L 302.995046 290.320385 
L 306.769242 290.271165 
L 310.543439 290.250615 
L 314.317635 289.437231 
L 318.091832 289.848768 
L 321.866028 289.974338 
L 325.640225 290.132406 
L 329.414421 290.179863 
L 333.188618 290.175962 
L 336.962815 290.111938 
L 340.737011 290.310646 
L 344.511208 290.231531 
L 348.285404 290.122555 
L 352.059601 290.253269 
L 355.833797 289.957602 
L 359.607994 290.184609 
L 363.38219 290.224812 
L 367.156387 290.217924 
L 370.930583 289.031933 
L 374.70478 284.654432 
L 378.478976 290.268665 
L 382.253173 289.797445 
L 386.027369 290.199497 
L 389.801566 290.405455 
L 393.575762 290.268289 
L 397.349959 290.328048 
L 401.124155 290.279204 
L 404.898352 289.748591 
L 408.672548 289.920115 
L 412.446745 290.294975 
L 416.220941 289.218052 
L 419.995138 290.128062 
L 423.769334 290.275126 
L 427.543531 289.845549 
L 431.317727 290.026885 
" clip-path="url(#p342c184f6d)" style="fill: none; stroke: #f39b7f; stroke-width: 2; stroke-linecap: square"/>
   </g>
   <g id="line2d_24">
    <path d="M 57.672273 40.114545 
L 61.446469 268.257443 
L 65.220666 284.121292 
L 68.994862 287.385133 
L 72.769059 288.509834 
L 76.543255 283.417024 
L 80.317452 287.433138 
L 84.091648 288.592509 
L 87.865845 288.361309 
L 91.640041 288.224237 
L 95.414238 288.18175 
L 99.188434 285.833918 
L 102.962631 287.852864 
L 106.736827 288.211229 
L 110.511024 282.72888 
L 114.28522 289.239743 
L 118.059417 289.17603 
L 121.833613 288.730006 
L 125.60781 289.152704 
L 129.382006 288.653251 
L 133.156203 288.561806 
L 136.930399 287.857175 
L 140.704596 287.162429 
L 144.478792 289.19873 
L 148.252989 288.58662 
L 152.027185 288.559251 
L 155.801382 288.334168 
L 159.575579 288.995542 
L 163.349775 287.88344 
L 167.123972 288.966854 
L 170.898168 288.038853 
L 174.672365 289.533617 
L 178.446561 289.239679 
L 182.220758 288.905544 
L 185.994954 289.175355 
L 189.769151 289.452799 
L 193.543347 288.637785 
L 197.317544 289.502496 
L 201.09174 289.424992 
L 204.865937 289.665605 
L 208.640133 286.177395 
L 212.41433 289.579252 
L 216.188526 289.875558 
L 219.962723 289.458784 
L 223.736919 289.666652 
L 227.511116 289.737222 
L 231.285312 289.010069 
L 235.059509 289.223679 
L 238.833705 289.286167 
L 242.607902 289.171126 
L 246.382098 289.919589 
L 250.156295 289.261553 
L 253.930491 289.787415 
L 257.704688 289.716686 
L 261.478884 289.766292 
L 265.253081 289.166636 
L 269.027277 290.005416 
L 272.801474 289.69336 
L 276.57567 289.87589 
L 280.349867 289.334033 
L 284.124063 289.481095 
L 287.89826 287.910416 
L 291.672456 287.16115 
L 295.446653 288.457554 
L 299.220849 290.161594 
L 302.995046 290.177449 
L 306.769242 290.167963 
L 310.543439 290.231886 
L 314.317635 289.859213 
L 318.091832 289.823151 
L 321.866028 289.803323 
L 325.640225 290.046231 
L 329.414421 289.94356 
L 333.188618 289.865898 
L 336.962815 290.000179 
L 340.737011 290.161758 
L 344.511208 290.23188 
L 348.285404 290.111091 
L 352.059601 289.37414 
L 355.833797 289.438861 
L 359.607994 289.777303 
L 363.38219 290.162724 
L 367.156387 290.0918 
L 370.930583 289.281912 
L 374.70478 288.5121 
L 378.478976 288.6968 
L 382.253173 290.166753 
L 386.027369 290.097165 
L 389.801566 290.154567 
L 393.575762 290.236839 
L 397.349959 290.170551 
L 401.124155 290.213227 
L 404.898352 289.873161 
L 408.672548 289.405917 
L 412.446745 290.167963 
L 416.220941 290.07816 
L 419.995138 289.796453 
L 423.769334 289.58272 
L 427.543531 289.867 
L 431.317727 289.580685 
" clip-path="url(#p342c184f6d)" style="fill: none; stroke: #8491b4; stroke-width: 2; stroke-linecap: square"/>
   </g>
   <g id="line2d_25">
    <path d="M 57.672273 260.243322 
L 61.446469 280.370884 
L 65.220666 273.684124 
L 68.994862 277.560298 
L 72.769059 279.441232 
L 76.543255 281.155473 
L 80.317452 283.580431 
L 84.091648 279.165195 
L 87.865845 281.147607 
L 91.640041 278.757861 
L 95.414238 281.247602 
L 99.188434 282.70607 
L 102.962631 281.504989 
L 106.736827 280.861888 
L 110.511024 282.320237 
L 114.28522 280.197379 
L 118.059417 279.823595 
L 121.833613 278.446933 
L 125.60781 280.841654 
L 129.382006 283.363429 
L 133.156203 276.826513 
L 136.930399 281.530765 
L 140.704596 281.42113 
L 144.478792 281.359941 
L 148.252989 282.000685 
L 152.027185 283.35789 
L 155.801382 280.340618 
L 159.575579 279.948487 
L 163.349775 279.766558 
L 167.123972 281.881838 
L 170.898168 281.606422 
L 174.672365 279.858083 
L 178.446561 283.253531 
L 182.220758 281.380262 
L 185.994954 281.336666 
L 189.769151 281.405378 
L 193.543347 281.395772 
L 197.317544 279.138922 
L 201.09174 282.006247 
L 204.865937 282.899029 
L 208.640133 281.020766 
L 212.41433 282.33529 
L 216.188526 278.165085 
L 219.962723 281.202364 
L 223.736919 278.969385 
L 227.511116 281.090241 
L 231.285312 280.5851 
L 235.059509 281.417726 
L 238.833705 279.65662 
L 242.607902 281.391243 
L 246.382098 282.106975 
L 250.156295 281.193332 
L 253.930491 281.613019 
L 257.704688 281.799793 
L 261.478884 280.62195 
L 265.253081 281.858935 
L 269.027277 281.110295 
L 272.801474 282.24391 
L 276.57567 283.157145 
L 280.349867 281.648244 
L 284.124063 279.399029 
L 287.89826 282.600204 
L 291.672456 280.618076 
L 295.446653 282.773875 
L 299.220849 281.005803 
L 302.995046 282.167903 
L 306.769242 281.258413 
L 310.543439 280.564794 
L 314.317635 282.148922 
L 318.091832 278.603309 
L 321.866028 282.12206 
L 325.640225 283.290085 
L 329.414421 279.790062 
L 333.188618 280.83328 
L 336.962815 282.278788 
L 340.737011 282.026541 
L 344.511208 281.298807 
L 348.285404 282.117361 
L 352.059601 283.491339 
L 355.833797 282.021021 
L 359.607994 282.11841 
L 363.38219 281.882592 
L 367.156387 282.848145 
L 370.930583 280.221505 
L 374.70478 281.360289 
L 378.478976 283.504053 
L 382.253173 280.017684 
L 386.027369 282.847669 
L 389.801566 279.217281 
L 393.575762 282.944782 
L 397.349959 282.992415 
L 401.124155 277.317032 
L 404.898352 280.540763 
L 408.672548 282.575681 
L 412.446745 282.400915 
L 416.220941 278.368805 
L 419.995138 279.293125 
L 423.769334 282.993179 
L 427.543531 282.199346 
L 431.317727 281.979827 
" clip-path="url(#p342c184f6d)" style="fill: none; stroke: #91d1c2; stroke-width: 2; stroke-linecap: square"/>
   </g>
   <g id="line2d_26">
    <path d="M 57.672273 171.678002 
L 61.446469 267.327778 
L 65.220666 271.730172 
L 68.994862 270.406177 
L 72.769059 274.817438 
L 76.543255 276.11556 
L 80.317452 275.816798 
L 84.091648 276.129376 
L 87.865845 276.923307 
L 91.640041 275.741625 
L 95.414238 276.491655 
L 99.188434 276.697489 
L 102.962631 277.026092 
L 106.736827 276.323231 
L 110.511024 276.428474 
L 114.28522 276.597967 
L 118.059417 275.489188 
L 121.833613 275.777517 
L 125.60781 276.648588 
L 129.382006 276.987182 
L 133.156203 276.177205 
L 136.930399 276.04808 
L 140.704596 276.202777 
L 144.478792 276.470885 
L 148.252989 276.983493 
L 152.027185 276.274335 
L 155.801382 275.353745 
L 159.575579 276.956561 
L 163.349775 276.504045 
L 167.123972 275.038599 
L 170.898168 276.784792 
L 174.672365 276.598827 
L 178.446561 276.117873 
L 182.220758 276.315013 
L 185.994954 276.180201 
L 189.769151 276.603528 
L 193.543347 276.460594 
L 197.317544 276.191124 
L 201.09174 276.349384 
L 204.865937 276.377272 
L 208.640133 276.973716 
L 212.41433 276.65262 
L 216.188526 276.707515 
L 219.962723 274.629391 
L 223.736919 277.231999 
L 227.511116 276.68676 
L 231.285312 276.354643 
L 235.059509 276.103033 
L 238.833705 276.249504 
L 242.607902 276.593364 
L 246.382098 276.873632 
L 250.156295 276.237203 
L 253.930491 276.493957 
L 257.704688 276.092475 
L 261.478884 276.857935 
L 265.253081 276.583019 
L 269.027277 276.908615 
L 272.801474 276.669953 
L 276.57567 276.903474 
L 280.349867 276.630177 
L 284.124063 276.130111 
L 287.89826 275.693245 
L 291.672456 277.332388 
L 295.446653 276.763945 
L 299.220849 277.040368 
L 302.995046 276.634151 
L 306.769242 276.370559 
L 310.543439 276.883002 
L 314.317635 276.896563 
L 318.091832 277.625255 
L 321.866028 277.183566 
L 325.640225 277.390344 
L 329.414421 277.258125 
L 333.188618 277.2016 
L 336.962815 277.286794 
L 340.737011 277.360564 
L 344.511208 277.175483 
L 348.285404 277.334848 
L 352.059601 277.308161 
L 355.833797 276.218872 
L 359.607994 277.470397 
L 363.38219 277.1627 
L 367.156387 276.689987 
L 370.930583 276.715599 
L 374.70478 277.111746 
L 378.478976 277.249489 
L 382.253173 277.10951 
L 386.027369 275.923116 
L 389.801566 277.258681 
L 393.575762 277.024345 
L 397.349959 277.220203 
L 401.124155 277.387449 
L 404.898352 276.671307 
L 408.672548 277.048308 
L 412.446745 277.387607 
L 416.220941 277.188262 
L 419.995138 277.34672 
L 423.769334 277.445413 
L 427.543531 277.228709 
L 431.317727 277.202915 
" clip-path="url(#p342c184f6d)" style="fill: none; stroke: #fccde5; stroke-width: 2; stroke-linecap: square"/>
   </g>
   <g id="patch_3">
    <path d="M 38.99 302.92 
L 38.99 27.6 
" style="fill: none; stroke: #000000; stroke-width: 0.8; stroke-linejoin: miter; stroke-linecap: square"/>
   </g>
   <g id="patch_4">
    <path d="M 450 302.92 
L 450 27.6 
" style="fill: none; stroke: #000000; stroke-width: 0.8; stroke-linejoin: miter; stroke-linecap: square"/>
   </g>
   <g id="patch_5">
    <path d="M 38.99 302.92 
L 450 302.92 
" style="fill: none; stroke: #000000; stroke-width: 0.8; stroke-linejoin: miter; stroke-linecap: square"/>
   </g>
   <g id="patch_6">
    <path d="M 38.99 27.6 
L 450 27.6 
" style="fill: none; stroke: #000000; stroke-width: 0.8; stroke-linejoin: miter; stroke-linecap: square"/>
   </g>
   <g id="text_14">
    <!-- Loss of the U-RP student model -->
    <g transform="translate(134.493281 21.6)scale(0.14 -0.14)">
     <defs>
      <path id="DejaVuSans-20" transform="scale(0.015625)"/>
      <path id="DejaVuSans-66" d="M 2375 4863 
L 2375 4384 
L 1825 4384 
Q 1516 4384 1395 4259 
Q 1275 4134 1275 3809 
L 1275 3500 
L 2222 3500 
L 2222 3053 
L 1275 3053 
L 1275 0 
L 697 0 
L 697 3053 
L 147 3053 
L 147 3500 
L 697 3500 
L 697 3744 
Q 697 4328 969 4595 
Q 1241 4863 1831 4863 
L 2375 4863 
z
" transform="scale(0.015625)"/>
      <path id="DejaVuSans-74" d="M 1172 4494 
L 1172 3500 
L 2356 3500 
L 2356 3053 
L 1172 3053 
L 1172 1153 
Q 1172 725 1289 603 
Q 1406 481 1766 481 
L 2356 481 
L 2356 0 
L 1766 0 
Q 1100 0 847 248 
Q 594 497 594 1153 
L 594 3053 
L 172 3053 
L 172 3500 
L 594 3500 
L 594 4494 
L 1172 4494 
z
" transform="scale(0.015625)"/>
      <path id="DejaVuSans-65" d="M 3597 1894 
L 3597 1613 
L 953 1613 
Q 991 1019 1311 708 
Q 1631 397 2203 397 
Q 2534 397 2845 478 
Q 3156 559 3463 722 
L 3463 178 
Q 3153 47 2828 -22 
Q 2503 -91 2169 -91 
Q 1331 -91 842 396 
Q 353 884 353 1716 
Q 353 2575 817 3079 
Q 1281 3584 2069 3584 
Q 2775 3584 3186 3129 
Q 3597 2675 3597 1894 
z
M 3022 2063 
Q 3016 2534 2758 2815 
Q 2500 3097 2075 3097 
Q 1594 3097 1305 2825 
Q 1016 2553 972 2059 
L 3022 2063 
z
" transform="scale(0.015625)"/>
      <path id="DejaVuSans-55" d="M 556 4666 
L 1191 4666 
L 1191 1831 
Q 1191 1081 1462 751 
Q 1734 422 2344 422 
Q 2950 422 3222 751 
Q 3494 1081 3494 1831 
L 3494 4666 
L 4128 4666 
L 4128 1753 
Q 4128 841 3676 375 
Q 3225 -91 2344 -91 
Q 1459 -91 1007 375 
Q 556 841 556 1753 
L 556 4666 
z
" transform="scale(0.015625)"/>
      <path id="DejaVuSans-2d" d="M 313 2009 
L 1997 2009 
L 1997 1497 
L 313 1497 
L 313 2009 
z
" transform="scale(0.015625)"/>
      <path id="DejaVuSans-52" d="M 2841 2188 
Q 3044 2119 3236 1894 
Q 3428 1669 3622 1275 
L 4263 0 
L 3584 0 
L 2988 1197 
Q 2756 1666 2539 1819 
Q 2322 1972 1947 1972 
L 1259 1972 
L 1259 0 
L 628 0 
L 628 4666 
L 2053 4666 
Q 2853 4666 3247 4331 
Q 3641 3997 3641 3322 
Q 3641 2881 3436 2590 
Q 3231 2300 2841 2188 
z
M 1259 4147 
L 1259 2491 
L 2053 2491 
Q 2509 2491 2742 2702 
Q 2975 2913 2975 3322 
Q 2975 3731 2742 3939 
Q 2509 4147 2053 4147 
L 1259 4147 
z
" transform="scale(0.015625)"/>
      <path id="DejaVuSans-50" d="M 1259 4147 
L 1259 2394 
L 2053 2394 
Q 2494 2394 2734 2622 
Q 2975 2850 2975 3272 
Q 2975 3691 2734 3919 
Q 2494 4147 2053 4147 
L 1259 4147 
z
M 628 4666 
L 2053 4666 
Q 2838 4666 3239 4311 
Q 3641 3956 3641 3272 
Q 3641 2581 3239 2228 
Q 2838 1875 2053 1875 
L 1259 1875 
L 1259 0 
L 628 0 
L 628 4666 
z
" transform="scale(0.015625)"/>
      <path id="DejaVuSans-75" d="M 544 1381 
L 544 3500 
L 1119 3500 
L 1119 1403 
Q 1119 906 1312 657 
Q 1506 409 1894 409 
Q 2359 409 2629 706 
Q 2900 1003 2900 1516 
L 2900 3500 
L 3475 3500 
L 3475 0 
L 2900 0 
L 2900 538 
Q 2691 219 2414 64 
Q 2138 -91 1772 -91 
Q 1169 -91 856 284 
Q 544 659 544 1381 
z
M 1991 3584 
L 1991 3584 
z
" transform="scale(0.015625)"/>
      <path id="DejaVuSans-64" d="M 2906 2969 
L 2906 4863 
L 3481 4863 
L 3481 0 
L 2906 0 
L 2906 525 
Q 2725 213 2448 61 
Q 2172 -91 1784 -91 
Q 1150 -91 751 415 
Q 353 922 353 1747 
Q 353 2572 751 3078 
Q 1150 3584 1784 3584 
Q 2172 3584 2448 3432 
Q 2725 3281 2906 2969 
z
M 947 1747 
Q 947 1113 1208 752 
Q 1469 391 1925 391 
Q 2381 391 2643 752 
Q 2906 1113 2906 1747 
Q 2906 2381 2643 2742 
Q 2381 3103 1925 3103 
Q 1469 3103 1208 2742 
Q 947 2381 947 1747 
z
" transform="scale(0.015625)"/>
      <path id="DejaVuSans-6e" d="M 3513 2113 
L 3513 0 
L 2938 0 
L 2938 2094 
Q 2938 2591 2744 2837 
Q 2550 3084 2163 3084 
Q 1697 3084 1428 2787 
Q 1159 2491 1159 1978 
L 1159 0 
L 581 0 
L 581 3500 
L 1159 3500 
L 1159 2956 
Q 1366 3272 1645 3428 
Q 1925 3584 2291 3584 
Q 2894 3584 3203 3211 
Q 3513 2838 3513 2113 
z
" transform="scale(0.015625)"/>
      <path id="DejaVuSans-6d" d="M 3328 2828 
Q 3544 3216 3844 3400 
Q 4144 3584 4550 3584 
Q 5097 3584 5394 3201 
Q 5691 2819 5691 2113 
L 5691 0 
L 5113 0 
L 5113 2094 
Q 5113 2597 4934 2840 
Q 4756 3084 4391 3084 
Q 3944 3084 3684 2787 
Q 3425 2491 3425 1978 
L 3425 0 
L 2847 0 
L 2847 2094 
Q 2847 2600 2669 2842 
Q 2491 3084 2119 3084 
Q 1678 3084 1418 2786 
Q 1159 2488 1159 1978 
L 1159 0 
L 581 0 
L 581 3500 
L 1159 3500 
L 1159 2956 
Q 1356 3278 1631 3431 
Q 1906 3584 2284 3584 
Q 2666 3584 2933 3390 
Q 3200 3197 3328 2828 
z
" transform="scale(0.015625)"/>
      <path id="DejaVuSans-6c" d="M 603 4863 
L 1178 4863 
L 1178 0 
L 603 0 
L 603 4863 
z
" transform="scale(0.015625)"/>
     </defs>
     <use xlink:href="#DejaVuSans-4c"/>
     <use xlink:href="#DejaVuSans-6f" x="53.962891"/>
     <use xlink:href="#DejaVuSans-73" x="115.144531"/>
     <use xlink:href="#DejaVuSans-73" x="167.244141"/>
     <use xlink:href="#DejaVuSans-20" x="219.34375"/>
     <use xlink:href="#DejaVuSans-6f" x="251.130859"/>
     <use xlink:href="#DejaVuSans-66" x="312.3125"/>
     <use xlink:href="#DejaVuSans-20" x="347.517578"/>
     <use xlink:href="#DejaVuSans-74" x="379.304688"/>
     <use xlink:href="#DejaVuSans-68" x="418.513672"/>
     <use xlink:href="#DejaVuSans-65" x="481.892578"/>
     <use xlink:href="#DejaVuSans-20" x="543.416016"/>
     <use xlink:href="#DejaVuSans-55" x="575.203125"/>
     <use xlink:href="#DejaVuSans-2d" x="648.396484"/>
     <use xlink:href="#DejaVuSans-52" x="684.480469"/>
     <use xlink:href="#DejaVuSans-50" x="753.962891"/>
     <use xlink:href="#DejaVuSans-20" x="814.265625"/>
     <use xlink:href="#DejaVuSans-73" x="846.052734"/>
     <use xlink:href="#DejaVuSans-74" x="898.152344"/>
     <use xlink:href="#DejaVuSans-75" x="937.361328"/>
     <use xlink:href="#DejaVuSans-64" x="1000.740234"/>
     <use xlink:href="#DejaVuSans-65" x="1064.216797"/>
     <use xlink:href="#DejaVuSans-6e" x="1125.740234"/>
     <use xlink:href="#DejaVuSans-74" x="1189.119141"/>
     <use xlink:href="#DejaVuSans-20" x="1228.328125"/>
     <use xlink:href="#DejaVuSans-6d" x="1260.115234"/>
     <use xlink:href="#DejaVuSans-6f" x="1357.527344"/>
     <use xlink:href="#DejaVuSans-64" x="1418.708984"/>
     <use xlink:href="#DejaVuSans-65" x="1482.185547"/>
     <use xlink:href="#DejaVuSans-6c" x="1543.708984"/>
    </g>
   </g>
   <g id="legend_1">
    <g id="patch_7">
     <path d="M 310.4375 94.3125 
L 443 94.3125 
Q 445 94.3125 445 92.3125 
L 445 34.6 
Q 445 32.6 443 32.6 
L 310.4375 32.6 
Q 308.4375 32.6 308.4375 34.6 
L 308.4375 92.3125 
Q 308.4375 94.3125 310.4375 94.3125 
z
" style="fill: #ffffff; opacity: 0.8; stroke: #cccccc; stroke-linejoin: miter"/>
    </g>
    <g id="line2d_27">
     <path d="M 312.4375 40.698437 
L 322.4375 40.698437 
L 332.4375 40.698437 
" style="fill: none; stroke: #f39b7f; stroke-width: 2; stroke-linecap: square"/>
    </g>
    <g id="text_15">
     <!-- Validation set (KD) -->
     <g transform="translate(340.4375 44.198437)scale(0.1 -0.1)">
      <defs>
       <path id="DejaVuSans-56" d="M 1831 0 
L 50 4666 
L 709 4666 
L 2188 738 
L 3669 4666 
L 4325 4666 
L 2547 0 
L 1831 0 
z
" transform="scale(0.015625)"/>
       <path id="DejaVuSans-61" d="M 2194 1759 
Q 1497 1759 1228 1600 
Q 959 1441 959 1056 
Q 959 750 1161 570 
Q 1363 391 1709 391 
Q 2188 391 2477 730 
Q 2766 1069 2766 1631 
L 2766 1759 
L 2194 1759 
z
M 3341 1997 
L 3341 0 
L 2766 0 
L 2766 531 
Q 2569 213 2275 61 
Q 1981 -91 1556 -91 
Q 1019 -91 701 211 
Q 384 513 384 1019 
Q 384 1609 779 1909 
Q 1175 2209 1959 2209 
L 2766 2209 
L 2766 2266 
Q 2766 2663 2505 2880 
Q 2244 3097 1772 3097 
Q 1472 3097 1187 3025 
Q 903 2953 641 2809 
L 641 3341 
Q 956 3463 1253 3523 
Q 1550 3584 1831 3584 
Q 2591 3584 2966 3190 
Q 3341 2797 3341 1997 
z
" transform="scale(0.015625)"/>
       <path id="DejaVuSans-69" d="M 603 3500 
L 1178 3500 
L 1178 0 
L 603 0 
L 603 3500 
z
M 603 4863 
L 1178 4863 
L 1178 4134 
L 603 4134 
L 603 4863 
z
" transform="scale(0.015625)"/>
       <path id="DejaVuSans-28" d="M 1984 4856 
Q 1566 4138 1362 3434 
Q 1159 2731 1159 2009 
Q 1159 1288 1364 580 
Q 1569 -128 1984 -844 
L 1484 -844 
Q 1016 -109 783 600 
Q 550 1309 550 2009 
Q 550 2706 781 3412 
Q 1013 4119 1484 4856 
L 1984 4856 
z
" transform="scale(0.015625)"/>
       <path id="DejaVuSans-4b" d="M 628 4666 
L 1259 4666 
L 1259 2694 
L 3353 4666 
L 4166 4666 
L 1850 2491 
L 4331 0 
L 3500 0 
L 1259 2247 
L 1259 0 
L 628 0 
L 628 4666 
z
" transform="scale(0.015625)"/>
       <path id="DejaVuSans-44" d="M 1259 4147 
L 1259 519 
L 2022 519 
Q 2988 519 3436 956 
Q 3884 1394 3884 2338 
Q 3884 3275 3436 3711 
Q 2988 4147 2022 4147 
L 1259 4147 
z
M 628 4666 
L 1925 4666 
Q 3281 4666 3915 4102 
Q 4550 3538 4550 2338 
Q 4550 1131 3912 565 
Q 3275 0 1925 0 
L 628 0 
L 628 4666 
z
" transform="scale(0.015625)"/>
       <path id="DejaVuSans-29" d="M 513 4856 
L 1013 4856 
Q 1481 4119 1714 3412 
Q 1947 2706 1947 2009 
Q 1947 1309 1714 600 
Q 1481 -109 1013 -844 
L 513 -844 
Q 928 -128 1133 580 
Q 1338 1288 1338 2009 
Q 1338 2731 1133 3434 
Q 928 4138 513 4856 
z
" transform="scale(0.015625)"/>
      </defs>
      <use xlink:href="#DejaVuSans-56"/>
      <use xlink:href="#DejaVuSans-61" x="60.658203"/>
      <use xlink:href="#DejaVuSans-6c" x="121.9375"/>
      <use xlink:href="#DejaVuSans-69" x="149.720703"/>
      <use xlink:href="#DejaVuSans-64" x="177.503906"/>
      <use xlink:href="#DejaVuSans-61" x="240.980469"/>
      <use xlink:href="#DejaVuSans-74" x="302.259766"/>
      <use xlink:href="#DejaVuSans-69" x="341.46875"/>
      <use xlink:href="#DejaVuSans-6f" x="369.251953"/>
      <use xlink:href="#DejaVuSans-6e" x="430.433594"/>
      <use xlink:href="#DejaVuSans-20" x="493.8125"/>
      <use xlink:href="#DejaVuSans-73" x="525.599609"/>
      <use xlink:href="#DejaVuSans-65" x="577.699219"/>
      <use xlink:href="#DejaVuSans-74" x="639.222656"/>
      <use xlink:href="#DejaVuSans-20" x="678.431641"/>
      <use xlink:href="#DejaVuSans-28" x="710.21875"/>
      <use xlink:href="#DejaVuSans-4b" x="749.232422"/>
      <use xlink:href="#DejaVuSans-44" x="814.808594"/>
      <use xlink:href="#DejaVuSans-29" x="891.810547"/>
     </g>
    </g>
    <g id="line2d_28">
     <path d="M 312.4375 55.376562 
L 322.4375 55.376562 
L 332.4375 55.376562 
" style="fill: none; stroke: #8491b4; stroke-width: 2; stroke-linecap: square"/>
    </g>
    <g id="text_16">
     <!-- Train set (KD) -->
     <g transform="translate(340.4375 58.876562)scale(0.1 -0.1)">
      <defs>
       <path id="DejaVuSans-54" d="M -19 4666 
L 3928 4666 
L 3928 4134 
L 2272 4134 
L 2272 0 
L 1638 0 
L 1638 4134 
L -19 4134 
L -19 4666 
z
" transform="scale(0.015625)"/>
       <path id="DejaVuSans-72" d="M 2631 2963 
Q 2534 3019 2420 3045 
Q 2306 3072 2169 3072 
Q 1681 3072 1420 2755 
Q 1159 2438 1159 1844 
L 1159 0 
L 581 0 
L 581 3500 
L 1159 3500 
L 1159 2956 
Q 1341 3275 1631 3429 
Q 1922 3584 2338 3584 
Q 2397 3584 2469 3576 
Q 2541 3569 2628 3553 
L 2631 2963 
z
" transform="scale(0.015625)"/>
      </defs>
      <use xlink:href="#DejaVuSans-54"/>
      <use xlink:href="#DejaVuSans-72" x="46.333984"/>
      <use xlink:href="#DejaVuSans-61" x="87.447266"/>
      <use xlink:href="#DejaVuSans-69" x="148.726562"/>
      <use xlink:href="#DejaVuSans-6e" x="176.509766"/>
      <use xlink:href="#DejaVuSans-20" x="239.888672"/>
      <use xlink:href="#DejaVuSans-73" x="271.675781"/>
      <use xlink:href="#DejaVuSans-65" x="323.775391"/>
      <use xlink:href="#DejaVuSans-74" x="385.298828"/>
      <use xlink:href="#DejaVuSans-20" x="424.507812"/>
      <use xlink:href="#DejaVuSans-28" x="456.294922"/>
      <use xlink:href="#DejaVuSans-4b" x="495.308594"/>
      <use xlink:href="#DejaVuSans-44" x="560.884766"/>
      <use xlink:href="#DejaVuSans-29" x="637.886719"/>
     </g>
    </g>
    <g id="line2d_29">
     <path d="M 312.4375 70.054687 
L 322.4375 70.054687 
L 332.4375 70.054687 
" style="fill: none; stroke: #91d1c2; stroke-width: 2; stroke-linecap: square"/>
    </g>
    <g id="text_17">
     <!-- Validation set (NKD) -->
     <g transform="translate(340.4375 73.554687)scale(0.1 -0.1)">
      <defs>
       <path id="DejaVuSans-4e" d="M 628 4666 
L 1478 4666 
L 3547 763 
L 3547 4666 
L 4159 4666 
L 4159 0 
L 3309 0 
L 1241 3903 
L 1241 0 
L 628 0 
L 628 4666 
z
" transform="scale(0.015625)"/>
      </defs>
      <use xlink:href="#DejaVuSans-56"/>
      <use xlink:href="#DejaVuSans-61" x="60.658203"/>
      <use xlink:href="#DejaVuSans-6c" x="121.9375"/>
      <use xlink:href="#DejaVuSans-69" x="149.720703"/>
      <use xlink:href="#DejaVuSans-64" x="177.503906"/>
      <use xlink:href="#DejaVuSans-61" x="240.980469"/>
      <use xlink:href="#DejaVuSans-74" x="302.259766"/>
      <use xlink:href="#DejaVuSans-69" x="341.46875"/>
      <use xlink:href="#DejaVuSans-6f" x="369.251953"/>
      <use xlink:href="#DejaVuSans-6e" x="430.433594"/>
      <use xlink:href="#DejaVuSans-20" x="493.8125"/>
      <use xlink:href="#DejaVuSans-73" x="525.599609"/>
      <use xlink:href="#DejaVuSans-65" x="577.699219"/>
      <use xlink:href="#DejaVuSans-74" x="639.222656"/>
      <use xlink:href="#DejaVuSans-20" x="678.431641"/>
      <use xlink:href="#DejaVuSans-28" x="710.21875"/>
      <use xlink:href="#DejaVuSans-4e" x="749.232422"/>
      <use xlink:href="#DejaVuSans-4b" x="824.037109"/>
      <use xlink:href="#DejaVuSans-44" x="889.613281"/>
      <use xlink:href="#DejaVuSans-29" x="966.615234"/>
     </g>
    </g>
    <g id="line2d_30">
     <path d="M 312.4375 84.732812 
L 322.4375 84.732812 
L 332.4375 84.732812 
" style="fill: none; stroke: #fccde5; stroke-width: 2; stroke-linecap: square"/>
    </g>
    <g id="text_18">
     <!-- Train set (NKD) -->
     <g transform="translate(340.4375 88.232812)scale(0.1 -0.1)">
      <use xlink:href="#DejaVuSans-54"/>
      <use xlink:href="#DejaVuSans-72" x="46.333984"/>
      <use xlink:href="#DejaVuSans-61" x="87.447266"/>
      <use xlink:href="#DejaVuSans-69" x="148.726562"/>
      <use xlink:href="#DejaVuSans-6e" x="176.509766"/>
      <use xlink:href="#DejaVuSans-20" x="239.888672"/>
      <use xlink:href="#DejaVuSans-73" x="271.675781"/>
      <use xlink:href="#DejaVuSans-65" x="323.775391"/>
      <use xlink:href="#DejaVuSans-74" x="385.298828"/>
      <use xlink:href="#DejaVuSans-20" x="424.507812"/>
      <use xlink:href="#DejaVuSans-28" x="456.294922"/>
      <use xlink:href="#DejaVuSans-4e" x="495.308594"/>
      <use xlink:href="#DejaVuSans-4b" x="570.113281"/>
      <use xlink:href="#DejaVuSans-44" x="635.689453"/>
      <use xlink:href="#DejaVuSans-29" x="712.691406"/>
     </g>
    </g>
   </g>
  </g>
 </g>
 <defs>
  <clipPath id="p342c184f6d">
   <rect x="38.99" y="27.6" width="411.01" height="275.32"/>
  </clipPath>
 </defs>
</svg>
