<?xml version="1.0" encoding="utf-8" standalone="no"?>
<!DOCTYPE svg PUBLIC "-//W3C//DTD SVG 1.1//EN"
  "http://www.w3.org/Graphics/SVG/1.1/DTD/svg11.dtd">
<svg xmlns:xlink="http://www.w3.org/1999/xlink" width="460.8pt" height="345.6pt" viewBox="0 0 460.8 345.6" xmlns="http://www.w3.org/2000/svg" version="1.1">
 <metadata>
  <rdf:RDF xmlns:dc="http://purl.org/dc/elements/1.1/" xmlns:cc="http://creativecommons.org/ns#" xmlns:rdf="http://www.w3.org/1999/02/22-rdf-syntax-ns#">
   <cc:Work>
    <dc:type rdf:resource="http://purl.org/dc/dcmitype/StillImage"/>
    <dc:date>2024-10-25T18:47:34.830231</dc:date>
    <dc:format>image/svg+xml</dc:format>
    <dc:creator>
     <cc:Agent>
      <dc:title>Matplotlib v3.5.3, https://matplotlib.org/</dc:title>
     </cc:Agent>
    </dc:creator>
   </cc:Work>
  </rdf:RDF>
 </metadata>
 <defs>
  <style type="text/css">*{stroke-linejoin: round; stroke-linecap: butt}</style>
 </defs>
 <g id="figure_1">
  <g id="patch_1">
   <path d="M 0 345.6 
L 460.8 345.6 
L 460.8 0 
L 0 0 
z
" style="fill: #ffffff"/>
  </g>
  <g id="axes_1">
   <g id="patch_2">
    <path d="M 45.38 302.92 
L 450 302.92 
L 450 27.6 
L 45.38 27.6 
z
" style="fill: #ffffff"/>
   </g>
   <g id="matplotlib.axis_1">
    <g id="xtick_1">
     <g id="line2d_1">
      <path d="M 63.771818 302.92 
L 63.771818 27.6 
" clip-path="url(#p651ab37c93)" style="fill: none; stroke: #b0b0b0; stroke-width: 0.8; stroke-linecap: square"/>
     </g>
     <g id="line2d_2">
      <defs>
       <path id="m1beca0bb09" d="M 0 0 
L 0 3.5 
" style="stroke: #000000; stroke-width: 0.8"/>
      </defs>
      <g>
       <use xlink:href="#m1beca0bb09" x="63.771818" y="302.92" style="stroke: #000000; stroke-width: 0.8"/>
      </g>
     </g>
     <g id="text_1">
      <!-- 0 -->
      <g transform="translate(60.590568 317.518437)scale(0.1 -0.1)">
       <defs>
        <path id="DejaVuSans-30" d="M 2034 4250 
Q 1547 4250 1301 3770 
Q 1056 3291 1056 2328 
Q 1056 1369 1301 889 
Q 1547 409 2034 409 
Q 2525 409 2770 889 
Q 3016 1369 3016 2328 
Q 3016 3291 2770 3770 
Q 2525 4250 2034 4250 
z
M 2034 4750 
Q 2819 4750 3233 4129 
Q 3647 3509 3647 2328 
Q 3647 1150 3233 529 
Q 2819 -91 2034 -91 
Q 1250 -91 836 529 
Q 422 1150 422 2328 
Q 422 3509 836 4129 
Q 1250 4750 2034 4750 
z
" transform="scale(0.015625)"/>
       </defs>
       <use xlink:href="#DejaVuSans-30"/>
      </g>
     </g>
    </g>
    <g id="xtick_2">
     <g id="line2d_3">
      <path d="M 138.082195 302.92 
L 138.082195 27.6 
" clip-path="url(#p651ab37c93)" style="fill: none; stroke: #b0b0b0; stroke-width: 0.8; stroke-linecap: square"/>
     </g>
     <g id="line2d_4">
      <g>
       <use xlink:href="#m1beca0bb09" x="138.082195" y="302.92" style="stroke: #000000; stroke-width: 0.8"/>
      </g>
     </g>
     <g id="text_2">
      <!-- 20 -->
      <g transform="translate(131.719695 317.518437)scale(0.1 -0.1)">
       <defs>
        <path id="DejaVuSans-32" d="M 1228 531 
L 3431 531 
L 3431 0 
L 469 0 
L 469 531 
Q 828 903 1448 1529 
Q 2069 2156 2228 2338 
Q 2531 2678 2651 2914 
Q 2772 3150 2772 3378 
Q 2772 3750 2511 3984 
Q 2250 4219 1831 4219 
Q 1534 4219 1204 4116 
Q 875 4013 500 3803 
L 500 4441 
Q 881 4594 1212 4672 
Q 1544 4750 1819 4750 
Q 2544 4750 2975 4387 
Q 3406 4025 3406 3419 
Q 3406 3131 3298 2873 
Q 3191 2616 2906 2266 
Q 2828 2175 2409 1742 
Q 1991 1309 1228 531 
z
" transform="scale(0.015625)"/>
       </defs>
       <use xlink:href="#DejaVuSans-32"/>
       <use xlink:href="#DejaVuSans-30" x="63.623047"/>
      </g>
     </g>
    </g>
    <g id="xtick_3">
     <g id="line2d_5">
      <path d="M 212.392571 302.92 
L 212.392571 27.6 
" clip-path="url(#p651ab37c93)" style="fill: none; stroke: #b0b0b0; stroke-width: 0.8; stroke-linecap: square"/>
     </g>
     <g id="line2d_6">
      <g>
       <use xlink:href="#m1beca0bb09" x="212.392571" y="302.92" style="stroke: #000000; stroke-width: 0.8"/>
      </g>
     </g>
     <g id="text_3">
      <!-- 40 -->
      <g transform="translate(206.030071 317.518437)scale(0.1 -0.1)">
       <defs>
        <path id="DejaVuSans-34" d="M 2419 4116 
L 825 1625 
L 2419 1625 
L 2419 4116 
z
M 2253 4666 
L 3047 4666 
L 3047 1625 
L 3713 1625 
L 3713 1100 
L 3047 1100 
L 3047 0 
L 2419 0 
L 2419 1100 
L 313 1100 
L 313 1709 
L 2253 4666 
z
" transform="scale(0.015625)"/>
       </defs>
       <use xlink:href="#DejaVuSans-34"/>
       <use xlink:href="#DejaVuSans-30" x="63.623047"/>
      </g>
     </g>
    </g>
    <g id="xtick_4">
     <g id="line2d_7">
      <path d="M 286.702948 302.92 
L 286.702948 27.6 
" clip-path="url(#p651ab37c93)" style="fill: none; stroke: #b0b0b0; stroke-width: 0.8; stroke-linecap: square"/>
     </g>
     <g id="line2d_8">
      <g>
       <use xlink:href="#m1beca0bb09" x="286.702948" y="302.92" style="stroke: #000000; stroke-width: 0.8"/>
      </g>
     </g>
     <g id="text_4">
      <!-- 60 -->
      <g transform="translate(280.340448 317.518437)scale(0.1 -0.1)">
       <defs>
        <path id="DejaVuSans-36" d="M 2113 2584 
Q 1688 2584 1439 2293 
Q 1191 2003 1191 1497 
Q 1191 994 1439 701 
Q 1688 409 2113 409 
Q 2538 409 2786 701 
Q 3034 994 3034 1497 
Q 3034 2003 2786 2293 
Q 2538 2584 2113 2584 
z
M 3366 4563 
L 3366 3988 
Q 3128 4100 2886 4159 
Q 2644 4219 2406 4219 
Q 1781 4219 1451 3797 
Q 1122 3375 1075 2522 
Q 1259 2794 1537 2939 
Q 1816 3084 2150 3084 
Q 2853 3084 3261 2657 
Q 3669 2231 3669 1497 
Q 3669 778 3244 343 
Q 2819 -91 2113 -91 
Q 1303 -91 875 529 
Q 447 1150 447 2328 
Q 447 3434 972 4092 
Q 1497 4750 2381 4750 
Q 2619 4750 2861 4703 
Q 3103 4656 3366 4563 
z
" transform="scale(0.015625)"/>
       </defs>
       <use xlink:href="#DejaVuSans-36"/>
       <use xlink:href="#DejaVuSans-30" x="63.623047"/>
      </g>
     </g>
    </g>
    <g id="xtick_5">
     <g id="line2d_9">
      <path d="M 361.013324 302.92 
L 361.013324 27.6 
" clip-path="url(#p651ab37c93)" style="fill: none; stroke: #b0b0b0; stroke-width: 0.8; stroke-linecap: square"/>
     </g>
     <g id="line2d_10">
      <g>
       <use xlink:href="#m1beca0bb09" x="361.013324" y="302.92" style="stroke: #000000; stroke-width: 0.8"/>
      </g>
     </g>
     <g id="text_5">
      <!-- 80 -->
      <g transform="translate(354.650824 317.518437)scale(0.1 -0.1)">
       <defs>
        <path id="DejaVuSans-38" d="M 2034 2216 
Q 1584 2216 1326 1975 
Q 1069 1734 1069 1313 
Q 1069 891 1326 650 
Q 1584 409 2034 409 
Q 2484 409 2743 651 
Q 3003 894 3003 1313 
Q 3003 1734 2745 1975 
Q 2488 2216 2034 2216 
z
M 1403 2484 
Q 997 2584 770 2862 
Q 544 3141 544 3541 
Q 544 4100 942 4425 
Q 1341 4750 2034 4750 
Q 2731 4750 3128 4425 
Q 3525 4100 3525 3541 
Q 3525 3141 3298 2862 
Q 3072 2584 2669 2484 
Q 3125 2378 3379 2068 
Q 3634 1759 3634 1313 
Q 3634 634 3220 271 
Q 2806 -91 2034 -91 
Q 1263 -91 848 271 
Q 434 634 434 1313 
Q 434 1759 690 2068 
Q 947 2378 1403 2484 
z
M 1172 3481 
Q 1172 3119 1398 2916 
Q 1625 2713 2034 2713 
Q 2441 2713 2670 2916 
Q 2900 3119 2900 3481 
Q 2900 3844 2670 4047 
Q 2441 4250 2034 4250 
Q 1625 4250 1398 4047 
Q 1172 3844 1172 3481 
z
" transform="scale(0.015625)"/>
       </defs>
       <use xlink:href="#DejaVuSans-38"/>
       <use xlink:href="#DejaVuSans-30" x="63.623047"/>
      </g>
     </g>
    </g>
    <g id="xtick_6">
     <g id="line2d_11">
      <path d="M 435.323701 302.92 
L 435.323701 27.6 
" clip-path="url(#p651ab37c93)" style="fill: none; stroke: #b0b0b0; stroke-width: 0.8; stroke-linecap: square"/>
     </g>
     <g id="line2d_12">
      <g>
       <use xlink:href="#m1beca0bb09" x="435.323701" y="302.92" style="stroke: #000000; stroke-width: 0.8"/>
      </g>
     </g>
     <g id="text_6">
      <!-- 100 -->
      <g transform="translate(425.779951 317.518437)scale(0.1 -0.1)">
       <defs>
        <path id="DejaVuSans-31" d="M 794 531 
L 1825 531 
L 1825 4091 
L 703 3866 
L 703 4441 
L 1819 4666 
L 2450 4666 
L 2450 531 
L 3481 531 
L 3481 0 
L 794 0 
L 794 531 
z
" transform="scale(0.015625)"/>
       </defs>
       <use xlink:href="#DejaVuSans-31"/>
       <use xlink:href="#DejaVuSans-30" x="63.623047"/>
       <use xlink:href="#DejaVuSans-30" x="127.246094"/>
      </g>
     </g>
    </g>
    <g id="text_7">
     <!-- Epochs -->
     <g transform="translate(226.19125 332.71625)scale(0.12 -0.12)">
      <defs>
       <path id="DejaVuSans-45" d="M 628 4666 
L 3578 4666 
L 3578 4134 
L 1259 4134 
L 1259 2753 
L 3481 2753 
L 3481 2222 
L 1259 2222 
L 1259 531 
L 3634 531 
L 3634 0 
L 628 0 
L 628 4666 
z
" transform="scale(0.015625)"/>
       <path id="DejaVuSans-70" d="M 1159 525 
L 1159 -1331 
L 581 -1331 
L 581 3500 
L 1159 3500 
L 1159 2969 
Q 1341 3281 1617 3432 
Q 1894 3584 2278 3584 
Q 2916 3584 3314 3078 
Q 3713 2572 3713 1747 
Q 3713 922 3314 415 
Q 2916 -91 2278 -91 
Q 1894 -91 1617 61 
Q 1341 213 1159 525 
z
M 3116 1747 
Q 3116 2381 2855 2742 
Q 2594 3103 2138 3103 
Q 1681 3103 1420 2742 
Q 1159 2381 1159 1747 
Q 1159 1113 1420 752 
Q 1681 391 2138 391 
Q 2594 391 2855 752 
Q 3116 1113 3116 1747 
z
" transform="scale(0.015625)"/>
       <path id="DejaVuSans-6f" d="M 1959 3097 
Q 1497 3097 1228 2736 
Q 959 2375 959 1747 
Q 959 1119 1226 758 
Q 1494 397 1959 397 
Q 2419 397 2687 759 
Q 2956 1122 2956 1747 
Q 2956 2369 2687 2733 
Q 2419 3097 1959 3097 
z
M 1959 3584 
Q 2709 3584 3137 3096 
Q 3566 2609 3566 1747 
Q 3566 888 3137 398 
Q 2709 -91 1959 -91 
Q 1206 -91 779 398 
Q 353 888 353 1747 
Q 353 2609 779 3096 
Q 1206 3584 1959 3584 
z
" transform="scale(0.015625)"/>
       <path id="DejaVuSans-63" d="M 3122 3366 
L 3122 2828 
Q 2878 2963 2633 3030 
Q 2388 3097 2138 3097 
Q 1578 3097 1268 2742 
Q 959 2388 959 1747 
Q 959 1106 1268 751 
Q 1578 397 2138 397 
Q 2388 397 2633 464 
Q 2878 531 3122 666 
L 3122 134 
Q 2881 22 2623 -34 
Q 2366 -91 2075 -91 
Q 1284 -91 818 406 
Q 353 903 353 1747 
Q 353 2603 823 3093 
Q 1294 3584 2113 3584 
Q 2378 3584 2631 3529 
Q 2884 3475 3122 3366 
z
" transform="scale(0.015625)"/>
       <path id="DejaVuSans-68" d="M 3513 2113 
L 3513 0 
L 2938 0 
L 2938 2094 
Q 2938 2591 2744 2837 
Q 2550 3084 2163 3084 
Q 1697 3084 1428 2787 
Q 1159 2491 1159 1978 
L 1159 0 
L 581 0 
L 581 4863 
L 1159 4863 
L 1159 2956 
Q 1366 3272 1645 3428 
Q 1925 3584 2291 3584 
Q 2894 3584 3203 3211 
Q 3513 2838 3513 2113 
z
" transform="scale(0.015625)"/>
       <path id="DejaVuSans-73" d="M 2834 3397 
L 2834 2853 
Q 2591 2978 2328 3040 
Q 2066 3103 1784 3103 
Q 1356 3103 1142 2972 
Q 928 2841 928 2578 
Q 928 2378 1081 2264 
Q 1234 2150 1697 2047 
L 1894 2003 
Q 2506 1872 2764 1633 
Q 3022 1394 3022 966 
Q 3022 478 2636 193 
Q 2250 -91 1575 -91 
Q 1294 -91 989 -36 
Q 684 19 347 128 
L 347 722 
Q 666 556 975 473 
Q 1284 391 1588 391 
Q 1994 391 2212 530 
Q 2431 669 2431 922 
Q 2431 1156 2273 1281 
Q 2116 1406 1581 1522 
L 1381 1569 
Q 847 1681 609 1914 
Q 372 2147 372 2553 
Q 372 3047 722 3315 
Q 1072 3584 1716 3584 
Q 2034 3584 2315 3537 
Q 2597 3491 2834 3397 
z
" transform="scale(0.015625)"/>
      </defs>
      <use xlink:href="#DejaVuSans-45"/>
      <use xlink:href="#DejaVuSans-70" x="63.183594"/>
      <use xlink:href="#DejaVuSans-6f" x="126.660156"/>
      <use xlink:href="#DejaVuSans-63" x="187.841797"/>
      <use xlink:href="#DejaVuSans-68" x="242.822266"/>
      <use xlink:href="#DejaVuSans-73" x="306.201172"/>
     </g>
    </g>
   </g>
   <g id="matplotlib.axis_2">
    <g id="ytick_1">
     <g id="line2d_13">
      <path d="M 45.38 292.522093 
L 450 292.522093 
" clip-path="url(#p651ab37c93)" style="fill: none; stroke: #b0b0b0; stroke-width: 0.8; stroke-linecap: square"/>
     </g>
     <g id="line2d_14">
      <defs>
       <path id="m384a7a6b4f" d="M 0 0 
L -3.5 0 
" style="stroke: #000000; stroke-width: 0.8"/>
      </defs>
      <g>
       <use xlink:href="#m384a7a6b4f" x="45.38" y="292.522093" style="stroke: #000000; stroke-width: 0.8"/>
      </g>
     </g>
     <g id="text_8">
      <!-- 0 -->
      <g transform="translate(32.0175 296.321312)scale(0.1 -0.1)">
       <use xlink:href="#DejaVuSans-30"/>
      </g>
     </g>
    </g>
    <g id="ytick_2">
     <g id="line2d_15">
      <path d="M 45.38 242.218526 
L 450 242.218526 
" clip-path="url(#p651ab37c93)" style="fill: none; stroke: #b0b0b0; stroke-width: 0.8; stroke-linecap: square"/>
     </g>
     <g id="line2d_16">
      <g>
       <use xlink:href="#m384a7a6b4f" x="45.38" y="242.218526" style="stroke: #000000; stroke-width: 0.8"/>
      </g>
     </g>
     <g id="text_9">
      <!-- 2 -->
      <g transform="translate(32.0175 246.017744)scale(0.1 -0.1)">
       <use xlink:href="#DejaVuSans-32"/>
      </g>
     </g>
    </g>
    <g id="ytick_3">
     <g id="line2d_17">
      <path d="M 45.38 191.914958 
L 450 191.914958 
" clip-path="url(#p651ab37c93)" style="fill: none; stroke: #b0b0b0; stroke-width: 0.8; stroke-linecap: square"/>
     </g>
     <g id="line2d_18">
      <g>
       <use xlink:href="#m384a7a6b4f" x="45.38" y="191.914958" style="stroke: #000000; stroke-width: 0.8"/>
      </g>
     </g>
     <g id="text_10">
      <!-- 4 -->
      <g transform="translate(32.0175 195.714177)scale(0.1 -0.1)">
       <use xlink:href="#DejaVuSans-34"/>
      </g>
     </g>
    </g>
    <g id="ytick_4">
     <g id="line2d_19">
      <path d="M 45.38 141.611391 
L 450 141.611391 
" clip-path="url(#p651ab37c93)" style="fill: none; stroke: #b0b0b0; stroke-width: 0.8; stroke-linecap: square"/>
     </g>
     <g id="line2d_20">
      <g>
       <use xlink:href="#m384a7a6b4f" x="45.38" y="141.611391" style="stroke: #000000; stroke-width: 0.8"/>
      </g>
     </g>
     <g id="text_11">
      <!-- 6 -->
      <g transform="translate(32.0175 145.41061)scale(0.1 -0.1)">
       <use xlink:href="#DejaVuSans-36"/>
      </g>
     </g>
    </g>
    <g id="ytick_5">
     <g id="line2d_21">
      <path d="M 45.38 91.307824 
L 450 91.307824 
" clip-path="url(#p651ab37c93)" style="fill: none; stroke: #b0b0b0; stroke-width: 0.8; stroke-linecap: square"/>
     </g>
     <g id="line2d_22">
      <g>
       <use xlink:href="#m384a7a6b4f" x="45.38" y="91.307824" style="stroke: #000000; stroke-width: 0.8"/>
      </g>
     </g>
     <g id="text_12">
      <!-- 8 -->
      <g transform="translate(32.0175 95.107043)scale(0.1 -0.1)">
       <use xlink:href="#DejaVuSans-38"/>
      </g>
     </g>
    </g>
    <g id="ytick_6">
     <g id="line2d_23">
      <path d="M 45.38 41.004257 
L 450 41.004257 
" clip-path="url(#p651ab37c93)" style="fill: none; stroke: #b0b0b0; stroke-width: 0.8; stroke-linecap: square"/>
     </g>
     <g id="line2d_24">
      <g>
       <use xlink:href="#m384a7a6b4f" x="45.38" y="41.004257" style="stroke: #000000; stroke-width: 0.8"/>
      </g>
     </g>
     <g id="text_13">
      <!-- 10 -->
      <g transform="translate(25.655 44.803476)scale(0.1 -0.1)">
       <use xlink:href="#DejaVuSans-31"/>
       <use xlink:href="#DejaVuSans-30" x="63.623047"/>
      </g>
     </g>
    </g>
    <g id="text_14">
     <!-- Loss -->
     <g transform="translate(19.159375 178.420625)rotate(-90)scale(0.12 -0.12)">
      <defs>
       <path id="DejaVuSans-4c" d="M 628 4666 
L 1259 4666 
L 1259 531 
L 3531 531 
L 3531 0 
L 628 0 
L 628 4666 
z
" transform="scale(0.015625)"/>
      </defs>
      <use xlink:href="#DejaVuSans-4c"/>
      <use xlink:href="#DejaVuSans-6f" x="53.962891"/>
      <use xlink:href="#DejaVuSans-73" x="115.144531"/>
      <use xlink:href="#DejaVuSans-73" x="167.244141"/>
     </g>
    </g>
   </g>
   <g id="line2d_25">
    <path d="M 63.771818 257.545999 
L 67.487337 288.287812 
L 71.202856 287.077159 
L 74.918375 274.170684 
L 78.633893 289.079102 
L 82.349412 288.637104 
L 86.064931 289.518565 
L 89.78045 288.054364 
L 93.495969 288.432215 
L 97.211488 288.601557 
L 100.927006 286.967234 
L 104.642525 288.656193 
L 108.358044 289.72204 
L 112.073563 285.992336 
L 115.789082 289.602662 
L 119.504601 287.343587 
L 123.220119 288.515713 
L 126.935638 286.387875 
L 130.651157 286.953437 
L 134.366676 289.14317 
L 138.082195 289.090507 
L 141.797713 279.537438 
L 145.513232 289.862345 
L 149.228751 289.479541 
L 152.94427 289.808653 
L 156.659789 289.796267 
L 160.375308 289.636697 
L 164.090826 289.095495 
L 167.806345 288.701196 
L 171.521864 289.909965 
L 175.237383 290.041614 
L 178.952902 290.012793 
L 182.668421 289.080789 
L 186.383939 288.978097 
L 190.099458 290.291067 
L 193.814977 289.902896 
L 197.530496 290.111293 
L 201.246015 289.481786 
L 204.961534 289.937818 
L 208.677052 290.195797 
L 212.392571 290.155342 
L 216.10809 289.858224 
L 219.823609 287.743929 
L 223.539128 290.173386 
L 227.254646 289.98328 
L 230.970165 289.092453 
L 234.685684 289.982697 
L 238.401203 290.075914 
L 242.116722 289.689542 
L 245.832241 289.703987 
L 249.547759 289.946035 
L 253.263278 290.067057 
L 256.978797 289.835001 
L 260.694316 289.929719 
L 264.409835 289.992201 
L 268.125354 287.882157 
L 271.840872 290.276866 
L 275.556391 290.200993 
L 279.27191 290.151432 
L 282.987429 290.372605 
L 286.702948 290.219474 
L 290.418466 290.055425 
L 294.133985 287.46423 
L 297.849504 290.230268 
L 301.565023 290.231807 
L 305.280542 289.802629 
L 308.996061 290.239806 
L 312.711579 290.126795 
L 316.427098 290.072443 
L 320.142617 290.191064 
L 323.858136 289.198832 
L 327.573655 289.42643 
L 331.289174 289.972793 
L 335.004692 290.133436 
L 338.720211 290.141046 
L 342.43573 290.297461 
L 346.151249 290.106541 
L 349.866768 290.187992 
L 353.582287 289.743314 
L 357.297805 289.988936 
L 361.013324 289.797865 
L 364.728843 290.405455 
L 368.444362 290.102547 
L 372.159881 284.529279 
L 375.875399 290.272966 
L 379.590918 288.997027 
L 383.306437 289.334926 
L 387.021956 290.244337 
L 390.737475 290.196283 
L 394.452994 290.067113 
L 398.168512 289.37781 
L 401.884031 289.848844 
L 405.59955 289.812894 
L 409.315069 290.239944 
L 413.030588 289.751466 
L 416.746107 289.471951 
L 420.461625 290.206773 
L 424.177144 289.233137 
L 427.892663 289.894517 
L 431.608182 290.287644 
" clip-path="url(#p651ab37c93)" style="fill: none; stroke: #f39b7f; stroke-width: 2; stroke-linecap: square"/>
   </g>
   <g id="line2d_26">
    <path d="M 63.771818 40.114545 
L 67.487337 278.246585 
L 71.202856 285.917483 
L 74.918375 286.613964 
L 78.633893 286.210874 
L 82.349412 288.361844 
L 86.064931 287.891139 
L 89.78045 288.223621 
L 93.495969 288.378426 
L 97.211488 284.416639 
L 100.927006 288.425609 
L 104.642525 285.476645 
L 108.358044 289.207379 
L 112.073563 288.688862 
L 115.789082 287.955664 
L 119.504601 288.56316 
L 123.220119 288.102784 
L 126.935638 288.272731 
L 130.651157 287.6915 
L 134.366676 288.989273 
L 138.082195 284.353344 
L 141.797713 287.107739 
L 145.513232 288.000987 
L 149.228751 289.729079 
L 152.94427 289.605916 
L 156.659789 289.463114 
L 160.375308 289.551317 
L 164.090826 289.139875 
L 167.806345 287.985545 
L 171.521864 286.172565 
L 175.237383 289.45469 
L 178.952902 289.722808 
L 182.668421 288.934731 
L 186.383939 289.38157 
L 190.099458 289.586558 
L 193.814977 288.738002 
L 197.530496 289.341686 
L 201.246015 288.635382 
L 204.961534 289.392378 
L 208.677052 289.343915 
L 212.392571 290.00016 
L 216.10809 289.475108 
L 219.823609 289.644388 
L 223.539128 287.830592 
L 227.254646 290.031786 
L 230.970165 289.808174 
L 234.685684 289.804155 
L 238.401203 289.381999 
L 242.116722 288.063348 
L 245.832241 289.74179 
L 249.547759 289.569041 
L 253.263278 289.588928 
L 256.978797 289.723568 
L 260.694316 289.387247 
L 264.409835 289.66924 
L 268.125354 288.439824 
L 271.840872 289.787018 
L 275.556391 289.160112 
L 279.27191 290.040036 
L 282.987429 289.705912 
L 286.702948 289.889375 
L 290.418466 289.708179 
L 294.133985 289.952751 
L 297.849504 287.936651 
L 301.565023 289.839123 
L 305.280542 289.591379 
L 308.996061 289.666845 
L 312.711579 289.525314 
L 316.427098 289.811041 
L 320.142617 290.041801 
L 323.858136 289.911779 
L 327.573655 288.787612 
L 331.289174 289.855523 
L 335.004692 289.931468 
L 338.720211 290.00077 
L 342.43573 289.111902 
L 346.151249 289.688501 
L 349.866768 289.840775 
L 353.582287 289.439766 
L 357.297805 289.575564 
L 361.013324 289.979199 
L 364.728843 289.844419 
L 368.444362 289.401044 
L 372.159881 289.563584 
L 375.875399 289.574998 
L 379.590918 289.92307 
L 383.306437 289.474588 
L 387.021956 288.437108 
L 390.737475 289.883519 
L 394.452994 289.861629 
L 398.168512 289.227877 
L 401.884031 289.945506 
L 405.59955 289.819533 
L 409.315069 289.535537 
L 413.030588 289.738276 
L 416.746107 289.954241 
L 420.461625 289.696837 
L 424.177144 289.986077 
L 427.892663 287.126656 
L 431.608182 289.765829 
" clip-path="url(#p651ab37c93)" style="fill: none; stroke: #8491b4; stroke-width: 2; stroke-linecap: square"/>
   </g>
   <g id="line2d_27">
    <path d="M 63.771818 222.656288 
L 67.487337 243.066923 
L 71.202856 276.521429 
L 74.918375 278.651937 
L 78.633893 281.120038 
L 82.349412 281.662726 
L 86.064931 278.653498 
L 89.78045 273.788237 
L 93.495969 280.063554 
L 97.211488 278.195306 
L 100.927006 281.902973 
L 104.642525 284.057964 
L 108.358044 281.905284 
L 112.073563 279.43254 
L 115.789082 284.817576 
L 119.504601 279.819028 
L 123.220119 278.824713 
L 126.935638 281.06731 
L 130.651157 283.379859 
L 134.366676 282.723922 
L 138.082195 275.137749 
L 141.797713 282.709532 
L 145.513232 283.955624 
L 149.228751 281.445456 
L 152.94427 283.983457 
L 156.659789 284.818324 
L 160.375308 283.303332 
L 164.090826 282.505948 
L 167.806345 282.681497 
L 171.521864 283.541539 
L 175.237383 283.073167 
L 178.952902 281.261786 
L 182.668421 282.668592 
L 186.383939 283.247947 
L 190.099458 282.475825 
L 193.814977 282.444118 
L 197.530496 283.702263 
L 201.246015 281.970891 
L 204.961534 283.710418 
L 208.677052 283.557355 
L 212.392571 283.516387 
L 216.10809 283.70691 
L 219.823609 282.000659 
L 223.539128 282.569129 
L 227.254646 282.385257 
L 230.970165 283.635033 
L 234.685684 283.189543 
L 238.401203 281.507644 
L 242.116722 283.159915 
L 245.832241 282.178378 
L 249.547759 283.773416 
L 253.263278 282.160859 
L 256.978797 284.094266 
L 260.694316 283.829048 
L 264.409835 281.589018 
L 268.125354 282.887475 
L 271.840872 283.453582 
L 275.556391 283.695299 
L 279.27191 284.311521 
L 282.987429 282.564303 
L 286.702948 282.839706 
L 290.418466 283.916484 
L 294.133985 283.072458 
L 297.849504 283.298139 
L 301.565023 282.42581 
L 305.280542 282.9072 
L 308.996061 281.652017 
L 312.711579 283.234118 
L 316.427098 282.555333 
L 320.142617 283.382131 
L 323.858136 281.1486 
L 327.573655 283.121768 
L 331.289174 282.791948 
L 335.004692 282.991652 
L 338.720211 283.794376 
L 342.43573 283.391327 
L 346.151249 283.575394 
L 349.866768 283.261594 
L 353.582287 283.605238 
L 357.297805 282.521081 
L 361.013324 283.950158 
L 364.728843 283.835436 
L 368.444362 283.28347 
L 372.159881 281.592274 
L 375.875399 283.462063 
L 379.590918 283.96559 
L 383.306437 281.40503 
L 387.021956 283.32275 
L 390.737475 283.130728 
L 394.452994 283.463272 
L 398.168512 283.73787 
L 401.884031 281.037624 
L 405.59955 283.302404 
L 409.315069 283.384296 
L 413.030588 283.534551 
L 416.746107 283.079709 
L 420.461625 282.425059 
L 424.177144 283.919093 
L 427.892663 283.398725 
L 431.608182 283.884787 
" clip-path="url(#p651ab37c93)" style="fill: none; stroke: #91d1c2; stroke-width: 2; stroke-linecap: square"/>
   </g>
   <g id="line2d_28">
    <path d="M 63.771818 48.383258 
L 67.487337 234.010667 
L 71.202856 249.727033 
L 74.918375 259.10822 
L 78.633893 265.611002 
L 82.349412 270.16264 
L 86.064931 271.096676 
L 89.78045 267.463274 
L 93.495969 274.490574 
L 97.211488 276.761259 
L 100.927006 274.83241 
L 104.642525 275.893848 
L 108.358044 277.876642 
L 112.073563 277.140552 
L 115.789082 277.462974 
L 119.504601 277.734388 
L 123.220119 275.917716 
L 126.935638 277.005528 
L 130.651157 278.251016 
L 134.366676 278.288023 
L 138.082195 278.124845 
L 141.797713 277.469841 
L 145.513232 278.216745 
L 149.228751 277.933227 
L 152.94427 278.692103 
L 156.659789 279.01305 
L 160.375308 278.737615 
L 164.090826 278.661748 
L 167.806345 278.805873 
L 171.521864 277.921236 
L 175.237383 278.459899 
L 178.952902 278.648575 
L 182.668421 278.622178 
L 186.383939 278.220244 
L 190.099458 277.891769 
L 193.814977 278.753049 
L 197.530496 278.477301 
L 201.246015 278.70605 
L 204.961534 278.392735 
L 208.677052 278.665514 
L 212.392571 278.401292 
L 216.10809 278.741045 
L 219.823609 278.709054 
L 223.539128 276.389312 
L 227.254646 278.943721 
L 230.970165 278.950526 
L 234.685684 278.710408 
L 238.401203 278.96024 
L 242.116722 278.647167 
L 245.832241 278.90256 
L 249.547759 279.105922 
L 253.263278 278.852488 
L 256.978797 278.317806 
L 260.694316 278.837987 
L 264.409835 278.958698 
L 268.125354 278.706939 
L 271.840872 278.93175 
L 275.556391 278.587282 
L 279.27191 279.305081 
L 282.987429 278.986015 
L 286.702948 278.831125 
L 290.418466 279.057692 
L 294.133985 279.062723 
L 297.849504 279.042553 
L 301.565023 279.250041 
L 305.280542 278.959837 
L 308.996061 279.014687 
L 312.711579 278.792776 
L 316.427098 279.074887 
L 320.142617 279.380135 
L 323.858136 279.395287 
L 327.573655 278.9934 
L 331.289174 279.156575 
L 335.004692 279.310847 
L 338.720211 279.190995 
L 342.43573 279.216371 
L 346.151249 279.460334 
L 349.866768 279.329073 
L 353.582287 279.137284 
L 357.297805 279.178262 
L 361.013324 279.293172 
L 364.728843 279.197276 
L 368.444362 279.144802 
L 372.159881 279.15057 
L 375.875399 279.136501 
L 379.590918 279.37503 
L 383.306437 279.052424 
L 387.021956 278.403717 
L 390.737475 279.537283 
L 394.452994 279.223339 
L 398.168512 279.34287 
L 401.884031 279.298252 
L 405.59955 279.258111 
L 409.315069 279.012068 
L 413.030588 279.38416 
L 416.746107 279.193864 
L 420.461625 279.210121 
L 424.177144 279.060713 
L 427.892663 279.076339 
L 431.608182 279.214431 
" clip-path="url(#p651ab37c93)" style="fill: none; stroke: #fccde5; stroke-width: 2; stroke-linecap: square"/>
   </g>
   <g id="patch_3">
    <path d="M 45.38 302.92 
L 45.38 27.6 
" style="fill: none; stroke: #000000; stroke-width: 0.8; stroke-linejoin: miter; stroke-linecap: square"/>
   </g>
   <g id="patch_4">
    <path d="M 450 302.92 
L 450 27.6 
" style="fill: none; stroke: #000000; stroke-width: 0.8; stroke-linejoin: miter; stroke-linecap: square"/>
   </g>
   <g id="patch_5">
    <path d="M 45.38 302.92 
L 450 302.92 
" style="fill: none; stroke: #000000; stroke-width: 0.8; stroke-linejoin: miter; stroke-linecap: square"/>
   </g>
   <g id="patch_6">
    <path d="M 45.38 27.6 
L 450 27.6 
" style="fill: none; stroke: #000000; stroke-width: 0.8; stroke-linejoin: miter; stroke-linecap: square"/>
   </g>
   <g id="text_15">
    <!-- Loss of the U-RP student model -->
    <g transform="translate(137.688281 21.6)scale(0.14 -0.14)">
     <defs>
      <path id="DejaVuSans-20" transform="scale(0.015625)"/>
      <path id="DejaVuSans-66" d="M 2375 4863 
L 2375 4384 
L 1825 4384 
Q 1516 4384 1395 4259 
Q 1275 4134 1275 3809 
L 1275 3500 
L 2222 3500 
L 2222 3053 
L 1275 3053 
L 1275 0 
L 697 0 
L 697 3053 
L 147 3053 
L 147 3500 
L 697 3500 
L 697 3744 
Q 697 4328 969 4595 
Q 1241 4863 1831 4863 
L 2375 4863 
z
" transform="scale(0.015625)"/>
      <path id="DejaVuSans-74" d="M 1172 4494 
L 1172 3500 
L 2356 3500 
L 2356 3053 
L 1172 3053 
L 1172 1153 
Q 1172 725 1289 603 
Q 1406 481 1766 481 
L 2356 481 
L 2356 0 
L 1766 0 
Q 1100 0 847 248 
Q 594 497 594 1153 
L 594 3053 
L 172 3053 
L 172 3500 
L 594 3500 
L 594 4494 
L 1172 4494 
z
" transform="scale(0.015625)"/>
      <path id="DejaVuSans-65" d="M 3597 1894 
L 3597 1613 
L 953 1613 
Q 991 1019 1311 708 
Q 1631 397 2203 397 
Q 2534 397 2845 478 
Q 3156 559 3463 722 
L 3463 178 
Q 3153 47 2828 -22 
Q 2503 -91 2169 -91 
Q 1331 -91 842 396 
Q 353 884 353 1716 
Q 353 2575 817 3079 
Q 1281 3584 2069 3584 
Q 2775 3584 3186 3129 
Q 3597 2675 3597 1894 
z
M 3022 2063 
Q 3016 2534 2758 2815 
Q 2500 3097 2075 3097 
Q 1594 3097 1305 2825 
Q 1016 2553 972 2059 
L 3022 2063 
z
" transform="scale(0.015625)"/>
      <path id="DejaVuSans-55" d="M 556 4666 
L 1191 4666 
L 1191 1831 
Q 1191 1081 1462 751 
Q 1734 422 2344 422 
Q 2950 422 3222 751 
Q 3494 1081 3494 1831 
L 3494 4666 
L 4128 4666 
L 4128 1753 
Q 4128 841 3676 375 
Q 3225 -91 2344 -91 
Q 1459 -91 1007 375 
Q 556 841 556 1753 
L 556 4666 
z
" transform="scale(0.015625)"/>
      <path id="DejaVuSans-2d" d="M 313 2009 
L 1997 2009 
L 1997 1497 
L 313 1497 
L 313 2009 
z
" transform="scale(0.015625)"/>
      <path id="DejaVuSans-52" d="M 2841 2188 
Q 3044 2119 3236 1894 
Q 3428 1669 3622 1275 
L 4263 0 
L 3584 0 
L 2988 1197 
Q 2756 1666 2539 1819 
Q 2322 1972 1947 1972 
L 1259 1972 
L 1259 0 
L 628 0 
L 628 4666 
L 2053 4666 
Q 2853 4666 3247 4331 
Q 3641 3997 3641 3322 
Q 3641 2881 3436 2590 
Q 3231 2300 2841 2188 
z
M 1259 4147 
L 1259 2491 
L 2053 2491 
Q 2509 2491 2742 2702 
Q 2975 2913 2975 3322 
Q 2975 3731 2742 3939 
Q 2509 4147 2053 4147 
L 1259 4147 
z
" transform="scale(0.015625)"/>
      <path id="DejaVuSans-50" d="M 1259 4147 
L 1259 2394 
L 2053 2394 
Q 2494 2394 2734 2622 
Q 2975 2850 2975 3272 
Q 2975 3691 2734 3919 
Q 2494 4147 2053 4147 
L 1259 4147 
z
M 628 4666 
L 2053 4666 
Q 2838 4666 3239 4311 
Q 3641 3956 3641 3272 
Q 3641 2581 3239 2228 
Q 2838 1875 2053 1875 
L 1259 1875 
L 1259 0 
L 628 0 
L 628 4666 
z
" transform="scale(0.015625)"/>
      <path id="DejaVuSans-75" d="M 544 1381 
L 544 3500 
L 1119 3500 
L 1119 1403 
Q 1119 906 1312 657 
Q 1506 409 1894 409 
Q 2359 409 2629 706 
Q 2900 1003 2900 1516 
L 2900 3500 
L 3475 3500 
L 3475 0 
L 2900 0 
L 2900 538 
Q 2691 219 2414 64 
Q 2138 -91 1772 -91 
Q 1169 -91 856 284 
Q 544 659 544 1381 
z
M 1991 3584 
L 1991 3584 
z
" transform="scale(0.015625)"/>
      <path id="DejaVuSans-64" d="M 2906 2969 
L 2906 4863 
L 3481 4863 
L 3481 0 
L 2906 0 
L 2906 525 
Q 2725 213 2448 61 
Q 2172 -91 1784 -91 
Q 1150 -91 751 415 
Q 353 922 353 1747 
Q 353 2572 751 3078 
Q 1150 3584 1784 3584 
Q 2172 3584 2448 3432 
Q 2725 3281 2906 2969 
z
M 947 1747 
Q 947 1113 1208 752 
Q 1469 391 1925 391 
Q 2381 391 2643 752 
Q 2906 1113 2906 1747 
Q 2906 2381 2643 2742 
Q 2381 3103 1925 3103 
Q 1469 3103 1208 2742 
Q 947 2381 947 1747 
z
" transform="scale(0.015625)"/>
      <path id="DejaVuSans-6e" d="M 3513 2113 
L 3513 0 
L 2938 0 
L 2938 2094 
Q 2938 2591 2744 2837 
Q 2550 3084 2163 3084 
Q 1697 3084 1428 2787 
Q 1159 2491 1159 1978 
L 1159 0 
L 581 0 
L 581 3500 
L 1159 3500 
L 1159 2956 
Q 1366 3272 1645 3428 
Q 1925 3584 2291 3584 
Q 2894 3584 3203 3211 
Q 3513 2838 3513 2113 
z
" transform="scale(0.015625)"/>
      <path id="DejaVuSans-6d" d="M 3328 2828 
Q 3544 3216 3844 3400 
Q 4144 3584 4550 3584 
Q 5097 3584 5394 3201 
Q 5691 2819 5691 2113 
L 5691 0 
L 5113 0 
L 5113 2094 
Q 5113 2597 4934 2840 
Q 4756 3084 4391 3084 
Q 3944 3084 3684 2787 
Q 3425 2491 3425 1978 
L 3425 0 
L 2847 0 
L 2847 2094 
Q 2847 2600 2669 2842 
Q 2491 3084 2119 3084 
Q 1678 3084 1418 2786 
Q 1159 2488 1159 1978 
L 1159 0 
L 581 0 
L 581 3500 
L 1159 3500 
L 1159 2956 
Q 1356 3278 1631 3431 
Q 1906 3584 2284 3584 
Q 2666 3584 2933 3390 
Q 3200 3197 3328 2828 
z
" transform="scale(0.015625)"/>
      <path id="DejaVuSans-6c" d="M 603 4863 
L 1178 4863 
L 1178 0 
L 603 0 
L 603 4863 
z
" transform="scale(0.015625)"/>
     </defs>
     <use xlink:href="#DejaVuSans-4c"/>
     <use xlink:href="#DejaVuSans-6f" x="53.962891"/>
     <use xlink:href="#DejaVuSans-73" x="115.144531"/>
     <use xlink:href="#DejaVuSans-73" x="167.244141"/>
     <use xlink:href="#DejaVuSans-20" x="219.34375"/>
     <use xlink:href="#DejaVuSans-6f" x="251.130859"/>
     <use xlink:href="#DejaVuSans-66" x="312.3125"/>
     <use xlink:href="#DejaVuSans-20" x="347.517578"/>
     <use xlink:href="#DejaVuSans-74" x="379.304688"/>
     <use xlink:href="#DejaVuSans-68" x="418.513672"/>
     <use xlink:href="#DejaVuSans-65" x="481.892578"/>
     <use xlink:href="#DejaVuSans-20" x="543.416016"/>
     <use xlink:href="#DejaVuSans-55" x="575.203125"/>
     <use xlink:href="#DejaVuSans-2d" x="648.396484"/>
     <use xlink:href="#DejaVuSans-52" x="684.480469"/>
     <use xlink:href="#DejaVuSans-50" x="753.962891"/>
     <use xlink:href="#DejaVuSans-20" x="814.265625"/>
     <use xlink:href="#DejaVuSans-73" x="846.052734"/>
     <use xlink:href="#DejaVuSans-74" x="898.152344"/>
     <use xlink:href="#DejaVuSans-75" x="937.361328"/>
     <use xlink:href="#DejaVuSans-64" x="1000.740234"/>
     <use xlink:href="#DejaVuSans-65" x="1064.216797"/>
     <use xlink:href="#DejaVuSans-6e" x="1125.740234"/>
     <use xlink:href="#DejaVuSans-74" x="1189.119141"/>
     <use xlink:href="#DejaVuSans-20" x="1228.328125"/>
     <use xlink:href="#DejaVuSans-6d" x="1260.115234"/>
     <use xlink:href="#DejaVuSans-6f" x="1357.527344"/>
     <use xlink:href="#DejaVuSans-64" x="1418.708984"/>
     <use xlink:href="#DejaVuSans-65" x="1482.185547"/>
     <use xlink:href="#DejaVuSans-6c" x="1543.708984"/>
    </g>
   </g>
   <g id="legend_1">
    <g id="patch_7">
     <path d="M 310.4375 94.3125 
L 443 94.3125 
Q 445 94.3125 445 92.3125 
L 445 34.6 
Q 445 32.6 443 32.6 
L 310.4375 32.6 
Q 308.4375 32.6 308.4375 34.6 
L 308.4375 92.3125 
Q 308.4375 94.3125 310.4375 94.3125 
z
" style="fill: #ffffff; opacity: 0.8; stroke: #cccccc; stroke-linejoin: miter"/>
    </g>
    <g id="line2d_29">
     <path d="M 312.4375 40.698437 
L 322.4375 40.698437 
L 332.4375 40.698437 
" style="fill: none; stroke: #f39b7f; stroke-width: 2; stroke-linecap: square"/>
    </g>
    <g id="text_16">
     <!-- Validation set (KD) -->
     <g transform="translate(340.4375 44.198437)scale(0.1 -0.1)">
      <defs>
       <path id="DejaVuSans-56" d="M 1831 0 
L 50 4666 
L 709 4666 
L 2188 738 
L 3669 4666 
L 4325 4666 
L 2547 0 
L 1831 0 
z
" transform="scale(0.015625)"/>
       <path id="DejaVuSans-61" d="M 2194 1759 
Q 1497 1759 1228 1600 
Q 959 1441 959 1056 
Q 959 750 1161 570 
Q 1363 391 1709 391 
Q 2188 391 2477 730 
Q 2766 1069 2766 1631 
L 2766 1759 
L 2194 1759 
z
M 3341 1997 
L 3341 0 
L 2766 0 
L 2766 531 
Q 2569 213 2275 61 
Q 1981 -91 1556 -91 
Q 1019 -91 701 211 
Q 384 513 384 1019 
Q 384 1609 779 1909 
Q 1175 2209 1959 2209 
L 2766 2209 
L 2766 2266 
Q 2766 2663 2505 2880 
Q 2244 3097 1772 3097 
Q 1472 3097 1187 3025 
Q 903 2953 641 2809 
L 641 3341 
Q 956 3463 1253 3523 
Q 1550 3584 1831 3584 
Q 2591 3584 2966 3190 
Q 3341 2797 3341 1997 
z
" transform="scale(0.015625)"/>
       <path id="DejaVuSans-69" d="M 603 3500 
L 1178 3500 
L 1178 0 
L 603 0 
L 603 3500 
z
M 603 4863 
L 1178 4863 
L 1178 4134 
L 603 4134 
L 603 4863 
z
" transform="scale(0.015625)"/>
       <path id="DejaVuSans-28" d="M 1984 4856 
Q 1566 4138 1362 3434 
Q 1159 2731 1159 2009 
Q 1159 1288 1364 580 
Q 1569 -128 1984 -844 
L 1484 -844 
Q 1016 -109 783 600 
Q 550 1309 550 2009 
Q 550 2706 781 3412 
Q 1013 4119 1484 4856 
L 1984 4856 
z
" transform="scale(0.015625)"/>
       <path id="DejaVuSans-4b" d="M 628 4666 
L 1259 4666 
L 1259 2694 
L 3353 4666 
L 4166 4666 
L 1850 2491 
L 4331 0 
L 3500 0 
L 1259 2247 
L 1259 0 
L 628 0 
L 628 4666 
z
" transform="scale(0.015625)"/>
       <path id="DejaVuSans-44" d="M 1259 4147 
L 1259 519 
L 2022 519 
Q 2988 519 3436 956 
Q 3884 1394 3884 2338 
Q 3884 3275 3436 3711 
Q 2988 4147 2022 4147 
L 1259 4147 
z
M 628 4666 
L 1925 4666 
Q 3281 4666 3915 4102 
Q 4550 3538 4550 2338 
Q 4550 1131 3912 565 
Q 3275 0 1925 0 
L 628 0 
L 628 4666 
z
" transform="scale(0.015625)"/>
       <path id="DejaVuSans-29" d="M 513 4856 
L 1013 4856 
Q 1481 4119 1714 3412 
Q 1947 2706 1947 2009 
Q 1947 1309 1714 600 
Q 1481 -109 1013 -844 
L 513 -844 
Q 928 -128 1133 580 
Q 1338 1288 1338 2009 
Q 1338 2731 1133 3434 
Q 928 4138 513 4856 
z
" transform="scale(0.015625)"/>
      </defs>
      <use xlink:href="#DejaVuSans-56"/>
      <use xlink:href="#DejaVuSans-61" x="60.658203"/>
      <use xlink:href="#DejaVuSans-6c" x="121.9375"/>
      <use xlink:href="#DejaVuSans-69" x="149.720703"/>
      <use xlink:href="#DejaVuSans-64" x="177.503906"/>
      <use xlink:href="#DejaVuSans-61" x="240.980469"/>
      <use xlink:href="#DejaVuSans-74" x="302.259766"/>
      <use xlink:href="#DejaVuSans-69" x="341.46875"/>
      <use xlink:href="#DejaVuSans-6f" x="369.251953"/>
      <use xlink:href="#DejaVuSans-6e" x="430.433594"/>
      <use xlink:href="#DejaVuSans-20" x="493.8125"/>
      <use xlink:href="#DejaVuSans-73" x="525.599609"/>
      <use xlink:href="#DejaVuSans-65" x="577.699219"/>
      <use xlink:href="#DejaVuSans-74" x="639.222656"/>
      <use xlink:href="#DejaVuSans-20" x="678.431641"/>
      <use xlink:href="#DejaVuSans-28" x="710.21875"/>
      <use xlink:href="#DejaVuSans-4b" x="749.232422"/>
      <use xlink:href="#DejaVuSans-44" x="814.808594"/>
      <use xlink:href="#DejaVuSans-29" x="891.810547"/>
     </g>
    </g>
    <g id="line2d_30">
     <path d="M 312.4375 55.376562 
L 322.4375 55.376562 
L 332.4375 55.376562 
" style="fill: none; stroke: #8491b4; stroke-width: 2; stroke-linecap: square"/>
    </g>
    <g id="text_17">
     <!-- Train set (KD) -->
     <g transform="translate(340.4375 58.876562)scale(0.1 -0.1)">
      <defs>
       <path id="DejaVuSans-54" d="M -19 4666 
L 3928 4666 
L 3928 4134 
L 2272 4134 
L 2272 0 
L 1638 0 
L 1638 4134 
L -19 4134 
L -19 4666 
z
" transform="scale(0.015625)"/>
       <path id="DejaVuSans-72" d="M 2631 2963 
Q 2534 3019 2420 3045 
Q 2306 3072 2169 3072 
Q 1681 3072 1420 2755 
Q 1159 2438 1159 1844 
L 1159 0 
L 581 0 
L 581 3500 
L 1159 3500 
L 1159 2956 
Q 1341 3275 1631 3429 
Q 1922 3584 2338 3584 
Q 2397 3584 2469 3576 
Q 2541 3569 2628 3553 
L 2631 2963 
z
" transform="scale(0.015625)"/>
      </defs>
      <use xlink:href="#DejaVuSans-54"/>
      <use xlink:href="#DejaVuSans-72" x="46.333984"/>
      <use xlink:href="#DejaVuSans-61" x="87.447266"/>
      <use xlink:href="#DejaVuSans-69" x="148.726562"/>
      <use xlink:href="#DejaVuSans-6e" x="176.509766"/>
      <use xlink:href="#DejaVuSans-20" x="239.888672"/>
      <use xlink:href="#DejaVuSans-73" x="271.675781"/>
      <use xlink:href="#DejaVuSans-65" x="323.775391"/>
      <use xlink:href="#DejaVuSans-74" x="385.298828"/>
      <use xlink:href="#DejaVuSans-20" x="424.507812"/>
      <use xlink:href="#DejaVuSans-28" x="456.294922"/>
      <use xlink:href="#DejaVuSans-4b" x="495.308594"/>
      <use xlink:href="#DejaVuSans-44" x="560.884766"/>
      <use xlink:href="#DejaVuSans-29" x="637.886719"/>
     </g>
    </g>
    <g id="line2d_31">
     <path d="M 312.4375 70.054687 
L 322.4375 70.054687 
L 332.4375 70.054687 
" style="fill: none; stroke: #91d1c2; stroke-width: 2; stroke-linecap: square"/>
    </g>
    <g id="text_18">
     <!-- Validation set (NKD) -->
     <g transform="translate(340.4375 73.554687)scale(0.1 -0.1)">
      <defs>
       <path id="DejaVuSans-4e" d="M 628 4666 
L 1478 4666 
L 3547 763 
L 3547 4666 
L 4159 4666 
L 4159 0 
L 3309 0 
L 1241 3903 
L 1241 0 
L 628 0 
L 628 4666 
z
" transform="scale(0.015625)"/>
      </defs>
      <use xlink:href="#DejaVuSans-56"/>
      <use xlink:href="#DejaVuSans-61" x="60.658203"/>
      <use xlink:href="#DejaVuSans-6c" x="121.9375"/>
      <use xlink:href="#DejaVuSans-69" x="149.720703"/>
      <use xlink:href="#DejaVuSans-64" x="177.503906"/>
      <use xlink:href="#DejaVuSans-61" x="240.980469"/>
      <use xlink:href="#DejaVuSans-74" x="302.259766"/>
      <use xlink:href="#DejaVuSans-69" x="341.46875"/>
      <use xlink:href="#DejaVuSans-6f" x="369.251953"/>
      <use xlink:href="#DejaVuSans-6e" x="430.433594"/>
      <use xlink:href="#DejaVuSans-20" x="493.8125"/>
      <use xlink:href="#DejaVuSans-73" x="525.599609"/>
      <use xlink:href="#DejaVuSans-65" x="577.699219"/>
      <use xlink:href="#DejaVuSans-74" x="639.222656"/>
      <use xlink:href="#DejaVuSans-20" x="678.431641"/>
      <use xlink:href="#DejaVuSans-28" x="710.21875"/>
      <use xlink:href="#DejaVuSans-4e" x="749.232422"/>
      <use xlink:href="#DejaVuSans-4b" x="824.037109"/>
      <use xlink:href="#DejaVuSans-44" x="889.613281"/>
      <use xlink:href="#DejaVuSans-29" x="966.615234"/>
     </g>
    </g>
    <g id="line2d_32">
     <path d="M 312.4375 84.732812 
L 322.4375 84.732812 
L 332.4375 84.732812 
" style="fill: none; stroke: #fccde5; stroke-width: 2; stroke-linecap: square"/>
    </g>
    <g id="text_19">
     <!-- Train set (NKD) -->
     <g transform="translate(340.4375 88.232812)scale(0.1 -0.1)">
      <use xlink:href="#DejaVuSans-54"/>
      <use xlink:href="#DejaVuSans-72" x="46.333984"/>
      <use xlink:href="#DejaVuSans-61" x="87.447266"/>
      <use xlink:href="#DejaVuSans-69" x="148.726562"/>
      <use xlink:href="#DejaVuSans-6e" x="176.509766"/>
      <use xlink:href="#DejaVuSans-20" x="239.888672"/>
      <use xlink:href="#DejaVuSans-73" x="271.675781"/>
      <use xlink:href="#DejaVuSans-65" x="323.775391"/>
      <use xlink:href="#DejaVuSans-74" x="385.298828"/>
      <use xlink:href="#DejaVuSans-20" x="424.507812"/>
      <use xlink:href="#DejaVuSans-28" x="456.294922"/>
      <use xlink:href="#DejaVuSans-4e" x="495.308594"/>
      <use xlink:href="#DejaVuSans-4b" x="570.113281"/>
      <use xlink:href="#DejaVuSans-44" x="635.689453"/>
      <use xlink:href="#DejaVuSans-29" x="712.691406"/>
     </g>
    </g>
   </g>
  </g>
 </g>
 <defs>
  <clipPath id="p651ab37c93">
   <rect x="45.38" y="27.6" width="404.62" height="275.32"/>
  </clipPath>
 </defs>
</svg>
