<?xml version="1.0" encoding="utf-8" standalone="no"?>
<!DOCTYPE svg PUBLIC "-//W3C//DTD SVG 1.1//EN"
  "http://www.w3.org/Graphics/SVG/1.1/DTD/svg11.dtd">
<svg xmlns:xlink="http://www.w3.org/1999/xlink" width="460.8pt" height="345.6pt" viewBox="0 0 460.8 345.6" xmlns="http://www.w3.org/2000/svg" version="1.1">
 <metadata>
  <rdf:RDF xmlns:dc="http://purl.org/dc/elements/1.1/" xmlns:cc="http://creativecommons.org/ns#" xmlns:rdf="http://www.w3.org/1999/02/22-rdf-syntax-ns#">
   <cc:Work>
    <dc:type rdf:resource="http://purl.org/dc/dcmitype/StillImage"/>
    <dc:date>2024-10-04T17:00:36.351979</dc:date>
    <dc:format>image/svg+xml</dc:format>
    <dc:creator>
     <cc:Agent>
      <dc:title>Matplotlib v3.5.3, https://matplotlib.org/</dc:title>
     </cc:Agent>
    </dc:creator>
   </cc:Work>
  </rdf:RDF>
 </metadata>
 <defs>
  <style type="text/css">*{stroke-linejoin: round; stroke-linecap: butt}</style>
 </defs>
 <g id="figure_1">
  <g id="patch_1">
   <path d="M 0 345.6 
L 460.8 345.6 
L 460.8 0 
L 0 0 
z
" style="fill: #ffffff"/>
  </g>
  <g id="axes_1">
   <g id="patch_2">
    <path d="M 45.38 302.92 
L 450 302.92 
L 450 27.6 
L 45.38 27.6 
z
" style="fill: #ffffff"/>
   </g>
   <g id="matplotlib.axis_1">
    <g id="xtick_1">
     <g id="line2d_1">
      <path d="M 63.771818 302.92 
L 63.771818 27.6 
" clip-path="url(#p3841d12f78)" style="fill: none; stroke: #b0b0b0; stroke-width: 0.8; stroke-linecap: square"/>
     </g>
     <g id="line2d_2">
      <defs>
       <path id="me01c5239cd" d="M 0 0 
L 0 3.5 
" style="stroke: #000000; stroke-width: 0.8"/>
      </defs>
      <g>
       <use xlink:href="#me01c5239cd" x="63.771818" y="302.92" style="stroke: #000000; stroke-width: 0.8"/>
      </g>
     </g>
     <g id="text_1">
      <!-- 0 -->
      <g transform="translate(60.590568 317.518437)scale(0.1 -0.1)">
       <defs>
        <path id="DejaVuSans-30" d="M 2034 4250 
Q 1547 4250 1301 3770 
Q 1056 3291 1056 2328 
Q 1056 1369 1301 889 
Q 1547 409 2034 409 
Q 2525 409 2770 889 
Q 3016 1369 3016 2328 
Q 3016 3291 2770 3770 
Q 2525 4250 2034 4250 
z
M 2034 4750 
Q 2819 4750 3233 4129 
Q 3647 3509 3647 2328 
Q 3647 1150 3233 529 
Q 2819 -91 2034 -91 
Q 1250 -91 836 529 
Q 422 1150 422 2328 
Q 422 3509 836 4129 
Q 1250 4750 2034 4750 
z
" transform="scale(0.015625)"/>
       </defs>
       <use xlink:href="#DejaVuSans-30"/>
      </g>
     </g>
    </g>
    <g id="xtick_2">
     <g id="line2d_3">
      <path d="M 138.082195 302.92 
L 138.082195 27.6 
" clip-path="url(#p3841d12f78)" style="fill: none; stroke: #b0b0b0; stroke-width: 0.8; stroke-linecap: square"/>
     </g>
     <g id="line2d_4">
      <g>
       <use xlink:href="#me01c5239cd" x="138.082195" y="302.92" style="stroke: #000000; stroke-width: 0.8"/>
      </g>
     </g>
     <g id="text_2">
      <!-- 20 -->
      <g transform="translate(131.719695 317.518437)scale(0.1 -0.1)">
       <defs>
        <path id="DejaVuSans-32" d="M 1228 531 
L 3431 531 
L 3431 0 
L 469 0 
L 469 531 
Q 828 903 1448 1529 
Q 2069 2156 2228 2338 
Q 2531 2678 2651 2914 
Q 2772 3150 2772 3378 
Q 2772 3750 2511 3984 
Q 2250 4219 1831 4219 
Q 1534 4219 1204 4116 
Q 875 4013 500 3803 
L 500 4441 
Q 881 4594 1212 4672 
Q 1544 4750 1819 4750 
Q 2544 4750 2975 4387 
Q 3406 4025 3406 3419 
Q 3406 3131 3298 2873 
Q 3191 2616 2906 2266 
Q 2828 2175 2409 1742 
Q 1991 1309 1228 531 
z
" transform="scale(0.015625)"/>
       </defs>
       <use xlink:href="#DejaVuSans-32"/>
       <use xlink:href="#DejaVuSans-30" x="63.623047"/>
      </g>
     </g>
    </g>
    <g id="xtick_3">
     <g id="line2d_5">
      <path d="M 212.392571 302.92 
L 212.392571 27.6 
" clip-path="url(#p3841d12f78)" style="fill: none; stroke: #b0b0b0; stroke-width: 0.8; stroke-linecap: square"/>
     </g>
     <g id="line2d_6">
      <g>
       <use xlink:href="#me01c5239cd" x="212.392571" y="302.92" style="stroke: #000000; stroke-width: 0.8"/>
      </g>
     </g>
     <g id="text_3">
      <!-- 40 -->
      <g transform="translate(206.030071 317.518437)scale(0.1 -0.1)">
       <defs>
        <path id="DejaVuSans-34" d="M 2419 4116 
L 825 1625 
L 2419 1625 
L 2419 4116 
z
M 2253 4666 
L 3047 4666 
L 3047 1625 
L 3713 1625 
L 3713 1100 
L 3047 1100 
L 3047 0 
L 2419 0 
L 2419 1100 
L 313 1100 
L 313 1709 
L 2253 4666 
z
" transform="scale(0.015625)"/>
       </defs>
       <use xlink:href="#DejaVuSans-34"/>
       <use xlink:href="#DejaVuSans-30" x="63.623047"/>
      </g>
     </g>
    </g>
    <g id="xtick_4">
     <g id="line2d_7">
      <path d="M 286.702948 302.92 
L 286.702948 27.6 
" clip-path="url(#p3841d12f78)" style="fill: none; stroke: #b0b0b0; stroke-width: 0.8; stroke-linecap: square"/>
     </g>
     <g id="line2d_8">
      <g>
       <use xlink:href="#me01c5239cd" x="286.702948" y="302.92" style="stroke: #000000; stroke-width: 0.8"/>
      </g>
     </g>
     <g id="text_4">
      <!-- 60 -->
      <g transform="translate(280.340448 317.518437)scale(0.1 -0.1)">
       <defs>
        <path id="DejaVuSans-36" d="M 2113 2584 
Q 1688 2584 1439 2293 
Q 1191 2003 1191 1497 
Q 1191 994 1439 701 
Q 1688 409 2113 409 
Q 2538 409 2786 701 
Q 3034 994 3034 1497 
Q 3034 2003 2786 2293 
Q 2538 2584 2113 2584 
z
M 3366 4563 
L 3366 3988 
Q 3128 4100 2886 4159 
Q 2644 4219 2406 4219 
Q 1781 4219 1451 3797 
Q 1122 3375 1075 2522 
Q 1259 2794 1537 2939 
Q 1816 3084 2150 3084 
Q 2853 3084 3261 2657 
Q 3669 2231 3669 1497 
Q 3669 778 3244 343 
Q 2819 -91 2113 -91 
Q 1303 -91 875 529 
Q 447 1150 447 2328 
Q 447 3434 972 4092 
Q 1497 4750 2381 4750 
Q 2619 4750 2861 4703 
Q 3103 4656 3366 4563 
z
" transform="scale(0.015625)"/>
       </defs>
       <use xlink:href="#DejaVuSans-36"/>
       <use xlink:href="#DejaVuSans-30" x="63.623047"/>
      </g>
     </g>
    </g>
    <g id="xtick_5">
     <g id="line2d_9">
      <path d="M 361.013324 302.92 
L 361.013324 27.6 
" clip-path="url(#p3841d12f78)" style="fill: none; stroke: #b0b0b0; stroke-width: 0.8; stroke-linecap: square"/>
     </g>
     <g id="line2d_10">
      <g>
       <use xlink:href="#me01c5239cd" x="361.013324" y="302.92" style="stroke: #000000; stroke-width: 0.8"/>
      </g>
     </g>
     <g id="text_5">
      <!-- 80 -->
      <g transform="translate(354.650824 317.518437)scale(0.1 -0.1)">
       <defs>
        <path id="DejaVuSans-38" d="M 2034 2216 
Q 1584 2216 1326 1975 
Q 1069 1734 1069 1313 
Q 1069 891 1326 650 
Q 1584 409 2034 409 
Q 2484 409 2743 651 
Q 3003 894 3003 1313 
Q 3003 1734 2745 1975 
Q 2488 2216 2034 2216 
z
M 1403 2484 
Q 997 2584 770 2862 
Q 544 3141 544 3541 
Q 544 4100 942 4425 
Q 1341 4750 2034 4750 
Q 2731 4750 3128 4425 
Q 3525 4100 3525 3541 
Q 3525 3141 3298 2862 
Q 3072 2584 2669 2484 
Q 3125 2378 3379 2068 
Q 3634 1759 3634 1313 
Q 3634 634 3220 271 
Q 2806 -91 2034 -91 
Q 1263 -91 848 271 
Q 434 634 434 1313 
Q 434 1759 690 2068 
Q 947 2378 1403 2484 
z
M 1172 3481 
Q 1172 3119 1398 2916 
Q 1625 2713 2034 2713 
Q 2441 2713 2670 2916 
Q 2900 3119 2900 3481 
Q 2900 3844 2670 4047 
Q 2441 4250 2034 4250 
Q 1625 4250 1398 4047 
Q 1172 3844 1172 3481 
z
" transform="scale(0.015625)"/>
       </defs>
       <use xlink:href="#DejaVuSans-38"/>
       <use xlink:href="#DejaVuSans-30" x="63.623047"/>
      </g>
     </g>
    </g>
    <g id="xtick_6">
     <g id="line2d_11">
      <path d="M 435.323701 302.92 
L 435.323701 27.6 
" clip-path="url(#p3841d12f78)" style="fill: none; stroke: #b0b0b0; stroke-width: 0.8; stroke-linecap: square"/>
     </g>
     <g id="line2d_12">
      <g>
       <use xlink:href="#me01c5239cd" x="435.323701" y="302.92" style="stroke: #000000; stroke-width: 0.8"/>
      </g>
     </g>
     <g id="text_6">
      <!-- 100 -->
      <g transform="translate(425.779951 317.518437)scale(0.1 -0.1)">
       <defs>
        <path id="DejaVuSans-31" d="M 794 531 
L 1825 531 
L 1825 4091 
L 703 3866 
L 703 4441 
L 1819 4666 
L 2450 4666 
L 2450 531 
L 3481 531 
L 3481 0 
L 794 0 
L 794 531 
z
" transform="scale(0.015625)"/>
       </defs>
       <use xlink:href="#DejaVuSans-31"/>
       <use xlink:href="#DejaVuSans-30" x="63.623047"/>
       <use xlink:href="#DejaVuSans-30" x="127.246094"/>
      </g>
     </g>
    </g>
    <g id="text_7">
     <!-- Epochs -->
     <g transform="translate(226.19125 332.71625)scale(0.12 -0.12)">
      <defs>
       <path id="DejaVuSans-45" d="M 628 4666 
L 3578 4666 
L 3578 4134 
L 1259 4134 
L 1259 2753 
L 3481 2753 
L 3481 2222 
L 1259 2222 
L 1259 531 
L 3634 531 
L 3634 0 
L 628 0 
L 628 4666 
z
" transform="scale(0.015625)"/>
       <path id="DejaVuSans-70" d="M 1159 525 
L 1159 -1331 
L 581 -1331 
L 581 3500 
L 1159 3500 
L 1159 2969 
Q 1341 3281 1617 3432 
Q 1894 3584 2278 3584 
Q 2916 3584 3314 3078 
Q 3713 2572 3713 1747 
Q 3713 922 3314 415 
Q 2916 -91 2278 -91 
Q 1894 -91 1617 61 
Q 1341 213 1159 525 
z
M 3116 1747 
Q 3116 2381 2855 2742 
Q 2594 3103 2138 3103 
Q 1681 3103 1420 2742 
Q 1159 2381 1159 1747 
Q 1159 1113 1420 752 
Q 1681 391 2138 391 
Q 2594 391 2855 752 
Q 3116 1113 3116 1747 
z
" transform="scale(0.015625)"/>
       <path id="DejaVuSans-6f" d="M 1959 3097 
Q 1497 3097 1228 2736 
Q 959 2375 959 1747 
Q 959 1119 1226 758 
Q 1494 397 1959 397 
Q 2419 397 2687 759 
Q 2956 1122 2956 1747 
Q 2956 2369 2687 2733 
Q 2419 3097 1959 3097 
z
M 1959 3584 
Q 2709 3584 3137 3096 
Q 3566 2609 3566 1747 
Q 3566 888 3137 398 
Q 2709 -91 1959 -91 
Q 1206 -91 779 398 
Q 353 888 353 1747 
Q 353 2609 779 3096 
Q 1206 3584 1959 3584 
z
" transform="scale(0.015625)"/>
       <path id="DejaVuSans-63" d="M 3122 3366 
L 3122 2828 
Q 2878 2963 2633 3030 
Q 2388 3097 2138 3097 
Q 1578 3097 1268 2742 
Q 959 2388 959 1747 
Q 959 1106 1268 751 
Q 1578 397 2138 397 
Q 2388 397 2633 464 
Q 2878 531 3122 666 
L 3122 134 
Q 2881 22 2623 -34 
Q 2366 -91 2075 -91 
Q 1284 -91 818 406 
Q 353 903 353 1747 
Q 353 2603 823 3093 
Q 1294 3584 2113 3584 
Q 2378 3584 2631 3529 
Q 2884 3475 3122 3366 
z
" transform="scale(0.015625)"/>
       <path id="DejaVuSans-68" d="M 3513 2113 
L 3513 0 
L 2938 0 
L 2938 2094 
Q 2938 2591 2744 2837 
Q 2550 3084 2163 3084 
Q 1697 3084 1428 2787 
Q 1159 2491 1159 1978 
L 1159 0 
L 581 0 
L 581 4863 
L 1159 4863 
L 1159 2956 
Q 1366 3272 1645 3428 
Q 1925 3584 2291 3584 
Q 2894 3584 3203 3211 
Q 3513 2838 3513 2113 
z
" transform="scale(0.015625)"/>
       <path id="DejaVuSans-73" d="M 2834 3397 
L 2834 2853 
Q 2591 2978 2328 3040 
Q 2066 3103 1784 3103 
Q 1356 3103 1142 2972 
Q 928 2841 928 2578 
Q 928 2378 1081 2264 
Q 1234 2150 1697 2047 
L 1894 2003 
Q 2506 1872 2764 1633 
Q 3022 1394 3022 966 
Q 3022 478 2636 193 
Q 2250 -91 1575 -91 
Q 1294 -91 989 -36 
Q 684 19 347 128 
L 347 722 
Q 666 556 975 473 
Q 1284 391 1588 391 
Q 1994 391 2212 530 
Q 2431 669 2431 922 
Q 2431 1156 2273 1281 
Q 2116 1406 1581 1522 
L 1381 1569 
Q 847 1681 609 1914 
Q 372 2147 372 2553 
Q 372 3047 722 3315 
Q 1072 3584 1716 3584 
Q 2034 3584 2315 3537 
Q 2597 3491 2834 3397 
z
" transform="scale(0.015625)"/>
      </defs>
      <use xlink:href="#DejaVuSans-45"/>
      <use xlink:href="#DejaVuSans-70" x="63.183594"/>
      <use xlink:href="#DejaVuSans-6f" x="126.660156"/>
      <use xlink:href="#DejaVuSans-63" x="187.841797"/>
      <use xlink:href="#DejaVuSans-68" x="242.822266"/>
      <use xlink:href="#DejaVuSans-73" x="306.201172"/>
     </g>
    </g>
   </g>
   <g id="matplotlib.axis_2">
    <g id="ytick_1">
     <g id="line2d_13">
      <path d="M 45.38 298.568159 
L 450 298.568159 
" clip-path="url(#p3841d12f78)" style="fill: none; stroke: #b0b0b0; stroke-width: 0.8; stroke-linecap: square"/>
     </g>
     <g id="line2d_14">
      <defs>
       <path id="mc0f7057369" d="M 0 0 
L -3.5 0 
" style="stroke: #000000; stroke-width: 0.8"/>
      </defs>
      <g>
       <use xlink:href="#mc0f7057369" x="45.38" y="298.568159" style="stroke: #000000; stroke-width: 0.8"/>
      </g>
     </g>
     <g id="text_8">
      <!-- 0 -->
      <g transform="translate(32.0175 302.367377)scale(0.1 -0.1)">
       <use xlink:href="#DejaVuSans-30"/>
      </g>
     </g>
    </g>
    <g id="ytick_2">
     <g id="line2d_15">
      <path d="M 45.38 256.724617 
L 450 256.724617 
" clip-path="url(#p3841d12f78)" style="fill: none; stroke: #b0b0b0; stroke-width: 0.8; stroke-linecap: square"/>
     </g>
     <g id="line2d_16">
      <g>
       <use xlink:href="#mc0f7057369" x="45.38" y="256.724617" style="stroke: #000000; stroke-width: 0.8"/>
      </g>
     </g>
     <g id="text_9">
      <!-- 2 -->
      <g transform="translate(32.0175 260.523835)scale(0.1 -0.1)">
       <use xlink:href="#DejaVuSans-32"/>
      </g>
     </g>
    </g>
    <g id="ytick_3">
     <g id="line2d_17">
      <path d="M 45.38 214.881075 
L 450 214.881075 
" clip-path="url(#p3841d12f78)" style="fill: none; stroke: #b0b0b0; stroke-width: 0.8; stroke-linecap: square"/>
     </g>
     <g id="line2d_18">
      <g>
       <use xlink:href="#mc0f7057369" x="45.38" y="214.881075" style="stroke: #000000; stroke-width: 0.8"/>
      </g>
     </g>
     <g id="text_10">
      <!-- 4 -->
      <g transform="translate(32.0175 218.680294)scale(0.1 -0.1)">
       <use xlink:href="#DejaVuSans-34"/>
      </g>
     </g>
    </g>
    <g id="ytick_4">
     <g id="line2d_19">
      <path d="M 45.38 173.037533 
L 450 173.037533 
" clip-path="url(#p3841d12f78)" style="fill: none; stroke: #b0b0b0; stroke-width: 0.8; stroke-linecap: square"/>
     </g>
     <g id="line2d_20">
      <g>
       <use xlink:href="#mc0f7057369" x="45.38" y="173.037533" style="stroke: #000000; stroke-width: 0.8"/>
      </g>
     </g>
     <g id="text_11">
      <!-- 6 -->
      <g transform="translate(32.0175 176.836752)scale(0.1 -0.1)">
       <use xlink:href="#DejaVuSans-36"/>
      </g>
     </g>
    </g>
    <g id="ytick_5">
     <g id="line2d_21">
      <path d="M 45.38 131.193991 
L 450 131.193991 
" clip-path="url(#p3841d12f78)" style="fill: none; stroke: #b0b0b0; stroke-width: 0.8; stroke-linecap: square"/>
     </g>
     <g id="line2d_22">
      <g>
       <use xlink:href="#mc0f7057369" x="45.38" y="131.193991" style="stroke: #000000; stroke-width: 0.8"/>
      </g>
     </g>
     <g id="text_12">
      <!-- 8 -->
      <g transform="translate(32.0175 134.99321)scale(0.1 -0.1)">
       <use xlink:href="#DejaVuSans-38"/>
      </g>
     </g>
    </g>
    <g id="ytick_6">
     <g id="line2d_23">
      <path d="M 45.38 89.350449 
L 450 89.350449 
" clip-path="url(#p3841d12f78)" style="fill: none; stroke: #b0b0b0; stroke-width: 0.8; stroke-linecap: square"/>
     </g>
     <g id="line2d_24">
      <g>
       <use xlink:href="#mc0f7057369" x="45.38" y="89.350449" style="stroke: #000000; stroke-width: 0.8"/>
      </g>
     </g>
     <g id="text_13">
      <!-- 10 -->
      <g transform="translate(25.655 93.149668)scale(0.1 -0.1)">
       <use xlink:href="#DejaVuSans-31"/>
       <use xlink:href="#DejaVuSans-30" x="63.623047"/>
      </g>
     </g>
    </g>
    <g id="ytick_7">
     <g id="line2d_25">
      <path d="M 45.38 47.506907 
L 450 47.506907 
" clip-path="url(#p3841d12f78)" style="fill: none; stroke: #b0b0b0; stroke-width: 0.8; stroke-linecap: square"/>
     </g>
     <g id="line2d_26">
      <g>
       <use xlink:href="#mc0f7057369" x="45.38" y="47.506907" style="stroke: #000000; stroke-width: 0.8"/>
      </g>
     </g>
     <g id="text_14">
      <!-- 12 -->
      <g transform="translate(25.655 51.306126)scale(0.1 -0.1)">
       <use xlink:href="#DejaVuSans-31"/>
       <use xlink:href="#DejaVuSans-32" x="63.623047"/>
      </g>
     </g>
    </g>
    <g id="text_15">
     <!-- Loss -->
     <g transform="translate(19.159375 178.420625)rotate(-90)scale(0.12 -0.12)">
      <defs>
       <path id="DejaVuSans-4c" d="M 628 4666 
L 1259 4666 
L 1259 531 
L 3531 531 
L 3531 0 
L 628 0 
L 628 4666 
z
" transform="scale(0.015625)"/>
      </defs>
      <use xlink:href="#DejaVuSans-4c"/>
      <use xlink:href="#DejaVuSans-6f" x="53.962891"/>
      <use xlink:href="#DejaVuSans-73" x="115.144531"/>
      <use xlink:href="#DejaVuSans-73" x="167.244141"/>
     </g>
    </g>
   </g>
   <g id="line2d_27">
    <path d="M 63.771818 187.018897 
L 67.487337 266.159028 
L 71.202856 281.456965 
L 74.918375 282.582371 
L 78.633893 277.700953 
L 82.349412 284.930388 
L 86.064931 285.370998 
L 89.78045 287.635815 
L 93.495969 284.330999 
L 97.211488 288.577659 
L 100.927006 280.748865 
L 104.642525 288.807525 
L 108.358044 286.022343 
L 112.073563 287.671499 
L 115.789082 285.74211 
L 119.504601 286.543505 
L 123.220119 288.876354 
L 126.935638 288.114029 
L 130.651157 285.269835 
L 134.366676 288.056283 
L 138.082195 289.310484 
L 141.797713 289.38537 
L 145.513232 289.47342 
L 149.228751 287.879359 
L 152.94427 286.985301 
L 156.659789 288.183429 
L 160.375308 288.710389 
L 164.090826 289.22467 
L 167.806345 287.028236 
L 171.521864 289.817604 
L 175.237383 289.862919 
L 178.952902 287.877825 
L 182.668421 288.809695 
L 186.383939 290.405455 
L 190.099458 286.772473 
L 193.814977 289.273218 
L 197.530496 287.676674 
L 201.246015 289.40624 
L 204.961534 288.961623 
L 208.677052 286.042599 
L 212.392571 288.374575 
L 216.10809 288.916994 
L 219.823609 289.461879 
L 223.539128 289.880213 
L 227.254646 289.735231 
L 230.970165 289.619725 
L 234.685684 288.676613 
L 238.401203 290.400772 
L 242.116722 288.268554 
L 245.832241 290.058371 
L 249.547759 289.671357 
L 253.263278 287.743603 
L 256.978797 289.811457 
L 260.694316 289.735616 
L 264.409835 288.419875 
L 268.125354 290.072091 
L 271.840872 289.34937 
L 275.556391 290.149288 
L 279.27191 289.981842 
L 282.987429 288.717546 
L 286.702948 289.728083 
L 290.418466 289.352443 
L 294.133985 289.51274 
L 297.849504 287.218079 
L 301.565023 289.166438 
L 305.280542 289.684629 
L 308.996061 290.293779 
L 312.711579 286.372466 
L 316.427098 289.575558 
L 320.142617 289.885112 
L 323.858136 289.620067 
L 327.573655 284.556807 
L 331.289174 290.217611 
L 335.004692 288.722568 
L 338.720211 289.56898 
L 342.43573 289.360749 
L 346.151249 288.910183 
L 349.866768 290.04199 
L 353.582287 289.573481 
L 357.297805 289.64877 
L 361.013324 289.022866 
L 364.728843 289.655576 
L 368.444362 289.637254 
L 372.159881 288.693957 
L 375.875399 288.521416 
L 379.590918 290.124564 
L 383.306437 288.413519 
L 387.021956 289.930596 
L 390.737475 289.598631 
L 394.452994 289.311261 
L 398.168512 289.914696 
L 401.884031 289.326373 
L 405.59955 289.903375 
L 409.315069 289.336849 
L 413.030588 289.481592 
L 416.746107 289.77695 
L 420.461625 289.726202 
L 424.177144 289.459672 
L 427.892663 289.195745 
L 431.608182 288.881101 
" clip-path="url(#p3841d12f78)" style="fill: none; stroke: #8491b4; stroke-width: 2; stroke-linecap: square"/>
   </g>
   <g id="line2d_28">
    <path d="M 63.771818 40.114545 
L 67.487337 210.872836 
L 71.202856 250.07667 
L 74.918375 261.593305 
L 78.633893 266.137923 
L 82.349412 261.33572 
L 86.064931 269.995638 
L 89.78045 278.681628 
L 93.495969 281.812742 
L 97.211488 280.236935 
L 100.927006 281.063127 
L 104.642525 283.880217 
L 108.358044 284.217489 
L 112.073563 283.913869 
L 115.789082 283.248053 
L 119.504601 284.352259 
L 123.220119 284.272515 
L 126.935638 284.534898 
L 130.651157 284.77535 
L 134.366676 284.75534 
L 138.082195 284.705297 
L 141.797713 285.067786 
L 145.513232 285.162606 
L 149.228751 285.650496 
L 152.94427 285.257191 
L 156.659789 285.631399 
L 160.375308 285.858584 
L 164.090826 285.900932 
L 167.806345 285.990359 
L 171.521864 285.993151 
L 175.237383 285.933118 
L 178.952902 285.448084 
L 182.668421 285.885409 
L 186.383939 285.926713 
L 190.099458 286.061474 
L 193.814977 285.906091 
L 197.530496 285.753789 
L 201.246015 286.185566 
L 204.961534 286.093699 
L 208.677052 286.163565 
L 212.392571 285.987275 
L 216.10809 285.735724 
L 219.823609 286.139762 
L 223.539128 286.213525 
L 227.254646 286.260881 
L 230.970165 286.069395 
L 234.685684 285.980833 
L 238.401203 286.249423 
L 242.116722 286.183582 
L 245.832241 286.079657 
L 249.547759 286.178891 
L 253.263278 286.515957 
L 256.978797 286.271344 
L 260.694316 286.038321 
L 264.409835 286.312566 
L 268.125354 286.439252 
L 271.840872 286.451293 
L 275.556391 286.341087 
L 279.27191 286.555468 
L 282.987429 286.067149 
L 286.702948 286.289326 
L 290.418466 286.447323 
L 294.133985 286.15672 
L 297.849504 286.51103 
L 301.565023 286.016997 
L 305.280542 286.431105 
L 308.996061 286.580254 
L 312.711579 286.813634 
L 316.427098 286.284386 
L 320.142617 286.159326 
L 323.858136 286.526259 
L 327.573655 286.400004 
L 331.289174 285.53527 
L 335.004692 286.545714 
L 338.720211 286.490894 
L 342.43573 286.756496 
L 346.151249 286.533066 
L 349.866768 286.424344 
L 353.582287 286.660218 
L 357.297805 286.941657 
L 361.013324 286.528505 
L 364.728843 286.76302 
L 368.444362 286.673294 
L 372.159881 286.594763 
L 375.875399 286.505922 
L 379.590918 286.637786 
L 383.306437 286.304295 
L 387.021956 286.842782 
L 390.737475 286.885508 
L 394.452994 286.612314 
L 398.168512 286.530626 
L 401.884031 286.481358 
L 405.59955 286.50115 
L 409.315069 286.618324 
L 413.030588 286.80268 
L 416.746107 286.469738 
L 420.461625 286.343063 
L 424.177144 286.546728 
L 427.892663 285.794079 
L 431.608182 286.82903 
" clip-path="url(#p3841d12f78)" style="fill: none; stroke: #91d1c2; stroke-width: 2; stroke-linecap: square"/>
   </g>
   <g id="patch_3">
    <path d="M 45.38 302.92 
L 45.38 27.6 
" style="fill: none; stroke: #000000; stroke-width: 0.8; stroke-linejoin: miter; stroke-linecap: square"/>
   </g>
   <g id="patch_4">
    <path d="M 450 302.92 
L 450 27.6 
" style="fill: none; stroke: #000000; stroke-width: 0.8; stroke-linejoin: miter; stroke-linecap: square"/>
   </g>
   <g id="patch_5">
    <path d="M 45.38 302.92 
L 450 302.92 
" style="fill: none; stroke: #000000; stroke-width: 0.8; stroke-linejoin: miter; stroke-linecap: square"/>
   </g>
   <g id="patch_6">
    <path d="M 45.38 27.6 
L 450 27.6 
" style="fill: none; stroke: #000000; stroke-width: 0.8; stroke-linejoin: miter; stroke-linecap: square"/>
   </g>
   <g id="text_16">
    <!-- Validation Set Loss -->
    <g transform="translate(181.824375 21.6)scale(0.14 -0.14)">
     <defs>
      <path id="DejaVuSans-56" d="M 1831 0 
L 50 4666 
L 709 4666 
L 2188 738 
L 3669 4666 
L 4325 4666 
L 2547 0 
L 1831 0 
z
" transform="scale(0.015625)"/>
      <path id="DejaVuSans-61" d="M 2194 1759 
Q 1497 1759 1228 1600 
Q 959 1441 959 1056 
Q 959 750 1161 570 
Q 1363 391 1709 391 
Q 2188 391 2477 730 
Q 2766 1069 2766 1631 
L 2766 1759 
L 2194 1759 
z
M 3341 1997 
L 3341 0 
L 2766 0 
L 2766 531 
Q 2569 213 2275 61 
Q 1981 -91 1556 -91 
Q 1019 -91 701 211 
Q 384 513 384 1019 
Q 384 1609 779 1909 
Q 1175 2209 1959 2209 
L 2766 2209 
L 2766 2266 
Q 2766 2663 2505 2880 
Q 2244 3097 1772 3097 
Q 1472 3097 1187 3025 
Q 903 2953 641 2809 
L 641 3341 
Q 956 3463 1253 3523 
Q 1550 3584 1831 3584 
Q 2591 3584 2966 3190 
Q 3341 2797 3341 1997 
z
" transform="scale(0.015625)"/>
      <path id="DejaVuSans-6c" d="M 603 4863 
L 1178 4863 
L 1178 0 
L 603 0 
L 603 4863 
z
" transform="scale(0.015625)"/>
      <path id="DejaVuSans-69" d="M 603 3500 
L 1178 3500 
L 1178 0 
L 603 0 
L 603 3500 
z
M 603 4863 
L 1178 4863 
L 1178 4134 
L 603 4134 
L 603 4863 
z
" transform="scale(0.015625)"/>
      <path id="DejaVuSans-64" d="M 2906 2969 
L 2906 4863 
L 3481 4863 
L 3481 0 
L 2906 0 
L 2906 525 
Q 2725 213 2448 61 
Q 2172 -91 1784 -91 
Q 1150 -91 751 415 
Q 353 922 353 1747 
Q 353 2572 751 3078 
Q 1150 3584 1784 3584 
Q 2172 3584 2448 3432 
Q 2725 3281 2906 2969 
z
M 947 1747 
Q 947 1113 1208 752 
Q 1469 391 1925 391 
Q 2381 391 2643 752 
Q 2906 1113 2906 1747 
Q 2906 2381 2643 2742 
Q 2381 3103 1925 3103 
Q 1469 3103 1208 2742 
Q 947 2381 947 1747 
z
" transform="scale(0.015625)"/>
      <path id="DejaVuSans-74" d="M 1172 4494 
L 1172 3500 
L 2356 3500 
L 2356 3053 
L 1172 3053 
L 1172 1153 
Q 1172 725 1289 603 
Q 1406 481 1766 481 
L 2356 481 
L 2356 0 
L 1766 0 
Q 1100 0 847 248 
Q 594 497 594 1153 
L 594 3053 
L 172 3053 
L 172 3500 
L 594 3500 
L 594 4494 
L 1172 4494 
z
" transform="scale(0.015625)"/>
      <path id="DejaVuSans-6e" d="M 3513 2113 
L 3513 0 
L 2938 0 
L 2938 2094 
Q 2938 2591 2744 2837 
Q 2550 3084 2163 3084 
Q 1697 3084 1428 2787 
Q 1159 2491 1159 1978 
L 1159 0 
L 581 0 
L 581 3500 
L 1159 3500 
L 1159 2956 
Q 1366 3272 1645 3428 
Q 1925 3584 2291 3584 
Q 2894 3584 3203 3211 
Q 3513 2838 3513 2113 
z
" transform="scale(0.015625)"/>
      <path id="DejaVuSans-20" transform="scale(0.015625)"/>
      <path id="DejaVuSans-53" d="M 3425 4513 
L 3425 3897 
Q 3066 4069 2747 4153 
Q 2428 4238 2131 4238 
Q 1616 4238 1336 4038 
Q 1056 3838 1056 3469 
Q 1056 3159 1242 3001 
Q 1428 2844 1947 2747 
L 2328 2669 
Q 3034 2534 3370 2195 
Q 3706 1856 3706 1288 
Q 3706 609 3251 259 
Q 2797 -91 1919 -91 
Q 1588 -91 1214 -16 
Q 841 59 441 206 
L 441 856 
Q 825 641 1194 531 
Q 1563 422 1919 422 
Q 2459 422 2753 634 
Q 3047 847 3047 1241 
Q 3047 1584 2836 1778 
Q 2625 1972 2144 2069 
L 1759 2144 
Q 1053 2284 737 2584 
Q 422 2884 422 3419 
Q 422 4038 858 4394 
Q 1294 4750 2059 4750 
Q 2388 4750 2728 4690 
Q 3069 4631 3425 4513 
z
" transform="scale(0.015625)"/>
      <path id="DejaVuSans-65" d="M 3597 1894 
L 3597 1613 
L 953 1613 
Q 991 1019 1311 708 
Q 1631 397 2203 397 
Q 2534 397 2845 478 
Q 3156 559 3463 722 
L 3463 178 
Q 3153 47 2828 -22 
Q 2503 -91 2169 -91 
Q 1331 -91 842 396 
Q 353 884 353 1716 
Q 353 2575 817 3079 
Q 1281 3584 2069 3584 
Q 2775 3584 3186 3129 
Q 3597 2675 3597 1894 
z
M 3022 2063 
Q 3016 2534 2758 2815 
Q 2500 3097 2075 3097 
Q 1594 3097 1305 2825 
Q 1016 2553 972 2059 
L 3022 2063 
z
" transform="scale(0.015625)"/>
     </defs>
     <use xlink:href="#DejaVuSans-56"/>
     <use xlink:href="#DejaVuSans-61" x="60.658203"/>
     <use xlink:href="#DejaVuSans-6c" x="121.9375"/>
     <use xlink:href="#DejaVuSans-69" x="149.720703"/>
     <use xlink:href="#DejaVuSans-64" x="177.503906"/>
     <use xlink:href="#DejaVuSans-61" x="240.980469"/>
     <use xlink:href="#DejaVuSans-74" x="302.259766"/>
     <use xlink:href="#DejaVuSans-69" x="341.46875"/>
     <use xlink:href="#DejaVuSans-6f" x="369.251953"/>
     <use xlink:href="#DejaVuSans-6e" x="430.433594"/>
     <use xlink:href="#DejaVuSans-20" x="493.8125"/>
     <use xlink:href="#DejaVuSans-53" x="525.599609"/>
     <use xlink:href="#DejaVuSans-65" x="589.076172"/>
     <use xlink:href="#DejaVuSans-74" x="650.599609"/>
     <use xlink:href="#DejaVuSans-20" x="689.808594"/>
     <use xlink:href="#DejaVuSans-4c" x="721.595703"/>
     <use xlink:href="#DejaVuSans-6f" x="775.558594"/>
     <use xlink:href="#DejaVuSans-73" x="836.740234"/>
     <use xlink:href="#DejaVuSans-73" x="888.839844"/>
    </g>
   </g>
   <g id="legend_1">
    <g id="patch_7">
     <path d="M 277.117188 64.95625 
L 443 64.95625 
Q 445 64.95625 445 62.95625 
L 445 34.6 
Q 445 32.6 443 32.6 
L 277.117188 32.6 
Q 275.117188 32.6 275.117188 34.6 
L 275.117188 62.95625 
Q 275.117188 64.95625 277.117188 64.95625 
z
" style="fill: #ffffff; opacity: 0.8; stroke: #cccccc; stroke-linejoin: miter"/>
    </g>
    <g id="line2d_29">
     <path d="M 279.117188 40.698437 
L 289.117188 40.698437 
L 299.117188 40.698437 
" style="fill: none; stroke: #8491b4; stroke-width: 2; stroke-linecap: square"/>
    </g>
    <g id="text_17">
     <!-- U-RP student model (val) -->
     <g transform="translate(307.117188 44.198437)scale(0.1 -0.1)">
      <defs>
       <path id="DejaVuSans-55" d="M 556 4666 
L 1191 4666 
L 1191 1831 
Q 1191 1081 1462 751 
Q 1734 422 2344 422 
Q 2950 422 3222 751 
Q 3494 1081 3494 1831 
L 3494 4666 
L 4128 4666 
L 4128 1753 
Q 4128 841 3676 375 
Q 3225 -91 2344 -91 
Q 1459 -91 1007 375 
Q 556 841 556 1753 
L 556 4666 
z
" transform="scale(0.015625)"/>
       <path id="DejaVuSans-2d" d="M 313 2009 
L 1997 2009 
L 1997 1497 
L 313 1497 
L 313 2009 
z
" transform="scale(0.015625)"/>
       <path id="DejaVuSans-52" d="M 2841 2188 
Q 3044 2119 3236 1894 
Q 3428 1669 3622 1275 
L 4263 0 
L 3584 0 
L 2988 1197 
Q 2756 1666 2539 1819 
Q 2322 1972 1947 1972 
L 1259 1972 
L 1259 0 
L 628 0 
L 628 4666 
L 2053 4666 
Q 2853 4666 3247 4331 
Q 3641 3997 3641 3322 
Q 3641 2881 3436 2590 
Q 3231 2300 2841 2188 
z
M 1259 4147 
L 1259 2491 
L 2053 2491 
Q 2509 2491 2742 2702 
Q 2975 2913 2975 3322 
Q 2975 3731 2742 3939 
Q 2509 4147 2053 4147 
L 1259 4147 
z
" transform="scale(0.015625)"/>
       <path id="DejaVuSans-50" d="M 1259 4147 
L 1259 2394 
L 2053 2394 
Q 2494 2394 2734 2622 
Q 2975 2850 2975 3272 
Q 2975 3691 2734 3919 
Q 2494 4147 2053 4147 
L 1259 4147 
z
M 628 4666 
L 2053 4666 
Q 2838 4666 3239 4311 
Q 3641 3956 3641 3272 
Q 3641 2581 3239 2228 
Q 2838 1875 2053 1875 
L 1259 1875 
L 1259 0 
L 628 0 
L 628 4666 
z
" transform="scale(0.015625)"/>
       <path id="DejaVuSans-75" d="M 544 1381 
L 544 3500 
L 1119 3500 
L 1119 1403 
Q 1119 906 1312 657 
Q 1506 409 1894 409 
Q 2359 409 2629 706 
Q 2900 1003 2900 1516 
L 2900 3500 
L 3475 3500 
L 3475 0 
L 2900 0 
L 2900 538 
Q 2691 219 2414 64 
Q 2138 -91 1772 -91 
Q 1169 -91 856 284 
Q 544 659 544 1381 
z
M 1991 3584 
L 1991 3584 
z
" transform="scale(0.015625)"/>
       <path id="DejaVuSans-6d" d="M 3328 2828 
Q 3544 3216 3844 3400 
Q 4144 3584 4550 3584 
Q 5097 3584 5394 3201 
Q 5691 2819 5691 2113 
L 5691 0 
L 5113 0 
L 5113 2094 
Q 5113 2597 4934 2840 
Q 4756 3084 4391 3084 
Q 3944 3084 3684 2787 
Q 3425 2491 3425 1978 
L 3425 0 
L 2847 0 
L 2847 2094 
Q 2847 2600 2669 2842 
Q 2491 3084 2119 3084 
Q 1678 3084 1418 2786 
Q 1159 2488 1159 1978 
L 1159 0 
L 581 0 
L 581 3500 
L 1159 3500 
L 1159 2956 
Q 1356 3278 1631 3431 
Q 1906 3584 2284 3584 
Q 2666 3584 2933 3390 
Q 3200 3197 3328 2828 
z
" transform="scale(0.015625)"/>
       <path id="DejaVuSans-28" d="M 1984 4856 
Q 1566 4138 1362 3434 
Q 1159 2731 1159 2009 
Q 1159 1288 1364 580 
Q 1569 -128 1984 -844 
L 1484 -844 
Q 1016 -109 783 600 
Q 550 1309 550 2009 
Q 550 2706 781 3412 
Q 1013 4119 1484 4856 
L 1984 4856 
z
" transform="scale(0.015625)"/>
       <path id="DejaVuSans-76" d="M 191 3500 
L 800 3500 
L 1894 563 
L 2988 3500 
L 3597 3500 
L 2284 0 
L 1503 0 
L 191 3500 
z
" transform="scale(0.015625)"/>
       <path id="DejaVuSans-29" d="M 513 4856 
L 1013 4856 
Q 1481 4119 1714 3412 
Q 1947 2706 1947 2009 
Q 1947 1309 1714 600 
Q 1481 -109 1013 -844 
L 513 -844 
Q 928 -128 1133 580 
Q 1338 1288 1338 2009 
Q 1338 2731 1133 3434 
Q 928 4138 513 4856 
z
" transform="scale(0.015625)"/>
      </defs>
      <use xlink:href="#DejaVuSans-55"/>
      <use xlink:href="#DejaVuSans-2d" x="73.193359"/>
      <use xlink:href="#DejaVuSans-52" x="109.277344"/>
      <use xlink:href="#DejaVuSans-50" x="178.759766"/>
      <use xlink:href="#DejaVuSans-20" x="239.0625"/>
      <use xlink:href="#DejaVuSans-73" x="270.849609"/>
      <use xlink:href="#DejaVuSans-74" x="322.949219"/>
      <use xlink:href="#DejaVuSans-75" x="362.158203"/>
      <use xlink:href="#DejaVuSans-64" x="425.537109"/>
      <use xlink:href="#DejaVuSans-65" x="489.013672"/>
      <use xlink:href="#DejaVuSans-6e" x="550.537109"/>
      <use xlink:href="#DejaVuSans-74" x="613.916016"/>
      <use xlink:href="#DejaVuSans-20" x="653.125"/>
      <use xlink:href="#DejaVuSans-6d" x="684.912109"/>
      <use xlink:href="#DejaVuSans-6f" x="782.324219"/>
      <use xlink:href="#DejaVuSans-64" x="843.505859"/>
      <use xlink:href="#DejaVuSans-65" x="906.982422"/>
      <use xlink:href="#DejaVuSans-6c" x="968.505859"/>
      <use xlink:href="#DejaVuSans-20" x="996.289062"/>
      <use xlink:href="#DejaVuSans-28" x="1028.076172"/>
      <use xlink:href="#DejaVuSans-76" x="1067.089844"/>
      <use xlink:href="#DejaVuSans-61" x="1126.269531"/>
      <use xlink:href="#DejaVuSans-6c" x="1187.548828"/>
      <use xlink:href="#DejaVuSans-29" x="1215.332031"/>
     </g>
    </g>
    <g id="line2d_30">
     <path d="M 279.117188 55.376562 
L 289.117188 55.376562 
L 299.117188 55.376562 
" style="fill: none; stroke: #91d1c2; stroke-width: 2; stroke-linecap: square"/>
    </g>
    <g id="text_18">
     <!-- U-RP student model (train) -->
     <g transform="translate(307.117188 58.876562)scale(0.1 -0.1)">
      <defs>
       <path id="DejaVuSans-72" d="M 2631 2963 
Q 2534 3019 2420 3045 
Q 2306 3072 2169 3072 
Q 1681 3072 1420 2755 
Q 1159 2438 1159 1844 
L 1159 0 
L 581 0 
L 581 3500 
L 1159 3500 
L 1159 2956 
Q 1341 3275 1631 3429 
Q 1922 3584 2338 3584 
Q 2397 3584 2469 3576 
Q 2541 3569 2628 3553 
L 2631 2963 
z
" transform="scale(0.015625)"/>
      </defs>
      <use xlink:href="#DejaVuSans-55"/>
      <use xlink:href="#DejaVuSans-2d" x="73.193359"/>
      <use xlink:href="#DejaVuSans-52" x="109.277344"/>
      <use xlink:href="#DejaVuSans-50" x="178.759766"/>
      <use xlink:href="#DejaVuSans-20" x="239.0625"/>
      <use xlink:href="#DejaVuSans-73" x="270.849609"/>
      <use xlink:href="#DejaVuSans-74" x="322.949219"/>
      <use xlink:href="#DejaVuSans-75" x="362.158203"/>
      <use xlink:href="#DejaVuSans-64" x="425.537109"/>
      <use xlink:href="#DejaVuSans-65" x="489.013672"/>
      <use xlink:href="#DejaVuSans-6e" x="550.537109"/>
      <use xlink:href="#DejaVuSans-74" x="613.916016"/>
      <use xlink:href="#DejaVuSans-20" x="653.125"/>
      <use xlink:href="#DejaVuSans-6d" x="684.912109"/>
      <use xlink:href="#DejaVuSans-6f" x="782.324219"/>
      <use xlink:href="#DejaVuSans-64" x="843.505859"/>
      <use xlink:href="#DejaVuSans-65" x="906.982422"/>
      <use xlink:href="#DejaVuSans-6c" x="968.505859"/>
      <use xlink:href="#DejaVuSans-20" x="996.289062"/>
      <use xlink:href="#DejaVuSans-28" x="1028.076172"/>
      <use xlink:href="#DejaVuSans-74" x="1067.089844"/>
      <use xlink:href="#DejaVuSans-72" x="1106.298828"/>
      <use xlink:href="#DejaVuSans-61" x="1147.412109"/>
      <use xlink:href="#DejaVuSans-69" x="1208.691406"/>
      <use xlink:href="#DejaVuSans-6e" x="1236.474609"/>
      <use xlink:href="#DejaVuSans-29" x="1299.853516"/>
     </g>
    </g>
   </g>
  </g>
 </g>
 <defs>
  <clipPath id="p3841d12f78">
   <rect x="45.38" y="27.6" width="404.62" height="275.32"/>
  </clipPath>
 </defs>
</svg>
